<svg width="231" height="104" viewBox="0 0 231 104" fill="none" xmlns="http://www.w3.org/2000/svg">
<g filter="url(#filter0_ddddd_251_58784)">
<path d="M11.3 65H25.25V24.14H25.61L48.83 65H65.57V2H51.53V43.13H51.17L27.95 2H11.3V65ZM77.8696 65H91.9996V40.61H120.08V28.01H91.9996V14.6H122.87V2H77.8696V65ZM145.716 65H159.936V14.69H178.116V2H127.536V14.69H145.716V65ZM198.659 65.81C210.629 65.81 219.269 60.5 219.269 50.78C219.269 40.88 212.519 37.55 205.319 36.2L196.319 34.49C194.069 34.04 192.809 33.05 192.809 31.25C192.809 29.45 194.879 28.01 198.299 28.01C202.979 28.01 204.599 30.71 204.509 32.87H218.189C218.189 24.14 210.809 17.12 198.569 17.12C185.969 17.12 179.219 23.42 179.219 31.07C179.219 40.52 186.059 44.39 193.619 45.83L200.549 47.18C203.789 47.81 205.319 48.8 205.319 50.87C205.319 52.49 203.609 54.29 198.659 54.29C193.709 54.29 191.639 51.68 191.639 49.07H177.779C178.049 58.7 183.989 65.81 198.659 65.81Z" fill="url(#paint0_linear_251_58784)"/>
<path d="M11.3 65H10.3V66H11.3V65ZM25.25 65V66H26.25V65H25.25ZM25.25 24.14V23.14H24.25V24.14H25.25ZM25.61 24.14L26.4794 23.6459L26.1919 23.14H25.61V24.14ZM48.83 65L47.9606 65.4941L48.2481 66H48.83V65ZM65.57 65V66H66.57V65H65.57ZM65.57 2H66.57V0.999996H65.57V2ZM51.53 2V0.999996H50.53V2H51.53ZM51.53 43.13V44.13H52.53V43.13H51.53ZM51.17 43.13L50.2992 43.6216L50.5862 44.13H51.17V43.13ZM27.95 2L28.8208 1.50838L28.5338 0.999996H27.95V2ZM11.3 2V0.999996H10.3V2H11.3ZM11.3 66H25.25V64H11.3V66ZM26.25 65V24.14H24.25V65H26.25ZM25.25 25.14H25.61V23.14H25.25V25.14ZM24.7406 24.6341L47.9606 65.4941L49.6994 64.5059L26.4794 23.6459L24.7406 24.6341ZM48.83 66H65.57V64H48.83V66ZM66.57 65V2H64.57V65H66.57ZM65.57 0.999996H51.53V3H65.57V0.999996ZM50.53 2V43.13H52.53V2H50.53ZM51.53 42.13H51.17V44.13H51.53V42.13ZM52.0408 42.6384L28.8208 1.50838L27.0792 2.49161L50.2992 43.6216L52.0408 42.6384ZM27.95 0.999996H11.3V3H27.95V0.999996ZM10.3 2V65H12.3V2H10.3ZM77.8696 65H76.8696V66H77.8696V65ZM91.9996 65V66H92.9996V65H91.9996ZM91.9996 40.61V39.61H90.9996V40.61H91.9996ZM120.08 40.61V41.61H121.08V40.61H120.08ZM120.08 28.01H121.08V27.01H120.08V28.01ZM91.9996 28.01H90.9996V29.01H91.9996V28.01ZM91.9996 14.6V13.6H90.9996V14.6H91.9996ZM122.87 14.6V15.6H123.87V14.6H122.87ZM122.87 2H123.87V0.999996H122.87V2ZM77.8696 2V0.999996H76.8696V2H77.8696ZM77.8696 66H91.9996V64H77.8696V66ZM92.9996 65V40.61H90.9996V65H92.9996ZM91.9996 41.61H120.08V39.61H91.9996V41.61ZM121.08 40.61V28.01H119.08V40.61H121.08ZM120.08 27.01H91.9996V29.01H120.08V27.01ZM92.9996 28.01V14.6H90.9996V28.01H92.9996ZM91.9996 15.6H122.87V13.6H91.9996V15.6ZM123.87 14.6V2H121.87V14.6H123.87ZM122.87 0.999996H77.8696V3H122.87V0.999996ZM76.8696 2V65H78.8696V2H76.8696ZM145.716 65H144.716V66H145.716V65ZM159.936 65V66H160.936V65H159.936ZM159.936 14.69V13.69H158.936V14.69H159.936ZM178.116 14.69V15.69H179.116V14.69H178.116ZM178.116 2H179.116V0.999996H178.116V2ZM127.536 2V0.999996H126.536V2H127.536ZM127.536 14.69H126.536V15.69H127.536V14.69ZM145.716 14.69H146.716V13.69H145.716V14.69ZM145.716 66H159.936V64H145.716V66ZM160.936 65V14.69H158.936V65H160.936ZM159.936 15.69H178.116V13.69H159.936V15.69ZM179.116 14.69V2H177.116V14.69H179.116ZM178.116 0.999996H127.536V3H178.116V0.999996ZM126.536 2V14.69H128.536V2H126.536ZM127.536 15.69H145.716V13.69H127.536V15.69ZM144.716 14.69V65H146.716V14.69H144.716ZM205.319 36.2L205.133 37.1824L205.135 37.1829L205.319 36.2ZM196.319 34.49L196.123 35.4706L196.132 35.4724L196.319 34.49ZM204.509 32.87L203.51 32.8284L203.467 33.87H204.509V32.87ZM218.189 32.87V33.87H219.189V32.87H218.189ZM193.619 45.83L193.81 44.8484L193.806 44.8477L193.619 45.83ZM200.549 47.18L200.358 48.1615L200.358 48.1616L200.549 47.18ZM191.639 49.07H192.639V48.07H191.639V49.07ZM177.779 49.07V48.07H176.751L176.78 49.098L177.779 49.07ZM198.659 66.81C204.775 66.81 210.148 65.456 214.024 62.761C217.937 60.0398 220.269 55.9815 220.269 50.78H218.269C218.269 55.2985 216.281 58.7552 212.882 61.119C209.445 63.509 204.514 64.81 198.659 64.81V66.81ZM220.269 50.78C220.269 45.5712 218.478 41.9759 215.648 39.5275C212.864 37.1182 209.171 35.9048 205.503 35.2171L205.135 37.1829C208.667 37.8452 211.949 38.9718 214.34 41.04C216.685 43.0691 218.269 46.0888 218.269 50.78H220.269ZM205.506 35.2176L196.506 33.5076L196.132 35.4724L205.133 37.1824L205.506 35.2176ZM196.515 33.5094C195.473 33.3009 194.792 32.9902 194.384 32.6281C194.016 32.3015 193.809 31.8832 193.809 31.25H191.809C191.809 32.4168 192.233 33.3935 193.057 34.1244C193.841 34.8198 194.915 35.2291 196.123 35.4706L196.515 33.5094ZM193.809 31.25C193.809 30.7821 194.066 30.2582 194.798 29.8053C195.541 29.3453 196.716 29.01 198.299 29.01V27.01C196.463 27.01 194.892 27.3947 193.745 28.1047C192.587 28.8218 191.809 29.9179 191.809 31.25H193.809ZM198.299 29.01C200.445 29.01 201.748 29.6251 202.498 30.3494C203.255 31.0796 203.544 32.0096 203.51 32.8284L205.508 32.9116C205.564 31.5704 205.089 30.0704 203.888 28.9106C202.68 27.7449 200.833 27.01 198.299 27.01V29.01ZM204.509 33.87H218.189V31.87H204.509V33.87ZM219.189 32.87C219.189 28.206 217.211 23.9903 213.614 20.9568C210.025 17.9302 204.877 16.12 198.569 16.12V18.12C204.501 18.12 209.163 19.8198 212.324 22.4857C215.477 25.1447 217.189 28.8039 217.189 32.87H219.189ZM198.569 16.12C192.111 16.12 187.039 17.7342 183.556 20.4362C180.057 23.1509 178.219 26.9264 178.219 31.07H180.219C180.219 27.5636 181.756 24.3641 184.782 22.0163C187.825 19.6558 192.427 18.12 198.569 18.12V16.12ZM178.219 31.07C178.219 36.0706 180.044 39.6789 182.925 42.2055C185.768 44.699 189.564 46.0755 193.432 46.8123L193.806 44.8477C190.114 44.1445 186.711 42.866 184.244 40.702C181.814 38.5711 180.219 35.5194 180.219 31.07H178.219ZM193.428 46.8115L200.358 48.1615L200.74 46.1984L193.81 44.8484L193.428 46.8115ZM200.358 48.1616C201.945 48.4701 202.952 48.8417 203.553 49.2877C204.077 49.677 204.319 50.1393 204.319 50.87H206.319C206.319 49.5307 205.796 48.463 204.745 47.6823C203.771 46.9583 202.394 46.5199 200.74 46.1984L200.358 48.1616ZM204.319 50.87C204.319 51.2856 204.114 51.8414 203.316 52.339C202.488 52.8554 201.032 53.29 198.659 53.29V55.29C201.236 55.29 203.11 54.8246 204.375 54.036C205.669 53.2286 206.319 52.0744 206.319 50.87H204.319ZM198.659 53.29C196.356 53.29 194.855 52.6841 193.946 51.9011C193.043 51.1239 192.639 50.1022 192.639 49.07H190.639C190.639 50.6478 191.27 52.2361 192.64 53.4164C194.004 54.5909 196.013 55.29 198.659 55.29V53.29ZM191.639 48.07H177.779V50.07H191.639V48.07ZM176.78 49.098C176.92 54.1139 178.546 58.5896 182.155 61.7985C185.75 64.9962 191.174 66.81 198.659 66.81V64.81C191.474 64.81 186.593 63.0688 183.484 60.304C180.387 57.5504 178.908 53.6561 178.779 49.042L176.78 49.098Z" fill="#281AF0" fill-opacity="0.6"/>
</g>
<defs>
<filter id="filter0_ddddd_251_58784" x="0.299988" y="0" width="229.969" height="103.81" filterUnits="userSpaceOnUse" color-interpolation-filters="sRGB">
<feFlood flood-opacity="0" result="BackgroundImageFix"/>
<feColorMatrix in="SourceAlpha" type="matrix" values="0 0 0 0 0 0 0 0 0 0 0 0 0 0 0 0 0 0 127 0" result="hardAlpha"/>
<feOffset/>
<feColorMatrix type="matrix" values="0 0 0 0 0.156863 0 0 0 0 0.105882 0 0 0 0 0.941176 0 0 0 0.04 0"/>
<feBlend mode="normal" in2="BackgroundImageFix" result="effect1_dropShadow_251_58784"/>
<feColorMatrix in="SourceAlpha" type="matrix" values="0 0 0 0 0 0 0 0 0 0 0 0 0 0 0 0 0 0 127 0" result="hardAlpha"/>
<feOffset dy="2"/>
<feGaussianBlur stdDeviation="2"/>
<feColorMatrix type="matrix" values="0 0 0 0 0.156863 0 0 0 0 0.105882 0 0 0 0 0.941176 0 0 0 0.04 0"/>
<feBlend mode="normal" in2="effect1_dropShadow_251_58784" result="effect2_dropShadow_251_58784"/>
<feColorMatrix in="SourceAlpha" type="matrix" values="0 0 0 0 0 0 0 0 0 0 0 0 0 0 0 0 0 0 127 0" result="hardAlpha"/>
<feOffset dy="7"/>
<feGaussianBlur stdDeviation="3.5"/>
<feColorMatrix type="matrix" values="0 0 0 0 0.156863 0 0 0 0 0.105882 0 0 0 0 0.941176 0 0 0 0.04 0"/>
<feBlend mode="normal" in2="effect2_dropShadow_251_58784" result="effect3_dropShadow_251_58784"/>
<feColorMatrix in="SourceAlpha" type="matrix" values="0 0 0 0 0 0 0 0 0 0 0 0 0 0 0 0 0 0 127 0" result="hardAlpha"/>
<feOffset dy="15"/>
<feGaussianBlur stdDeviation="4.5"/>
<feColorMatrix type="matrix" values="0 0 0 0 0.156863 0 0 0 0 0.105882 0 0 0 0 0.941176 0 0 0 0.02 0"/>
<feBlend mode="normal" in2="effect3_dropShadow_251_58784" result="effect4_dropShadow_251_58784"/>
<feColorMatrix in="SourceAlpha" type="matrix" values="0 0 0 0 0 0 0 0 0 0 0 0 0 0 0 0 0 0 127 0" result="hardAlpha"/>
<feOffset dy="27"/>
<feGaussianBlur stdDeviation="5.5"/>
<feColorMatrix type="matrix" values="0 0 0 0 0.156863 0 0 0 0 0.105882 0 0 0 0 0.941176 0 0 0 0.01 0"/>
<feBlend mode="normal" in2="effect4_dropShadow_251_58784" result="effect5_dropShadow_251_58784"/>
<feBlend mode="normal" in="SourceGraphic" in2="effect5_dropShadow_251_58784" result="shape"/>
</filter>
<linearGradient id="paint0_linear_251_58784" x1="113.5" y1="-12" x2="113.5" y2="78" gradientUnits="userSpaceOnUse">
<stop stop-color="#FBFAFF"/>
<stop offset="0.259788" stop-color="white"/>
<stop offset="0.871399" stop-color="#EFEFFF"/>
<stop offset="1" stop-color="#F5F3FD"/>
</linearGradient>
</defs>
</svg>
