<svg width="190" height="103" viewBox="0 0 190 103" fill="none" xmlns="http://www.w3.org/2000/svg">
<g filter="url(#filter0_ddddd_251_58748)">
<path d="M11.3 65H25.25V24.14H25.61L48.83 65H65.57V2H51.53V43.13H51.17L27.95 2H11.3V65ZM77.8696 65H91.9996V40.61H120.08V28.01H91.9996V14.6H122.87V2H77.8696V65ZM145.716 65H159.936V14.69H178.116V2H127.536V14.69H145.716V65Z" fill="url(#paint0_linear_251_58748)"/>
<path d="M11.3 65H10.3V66H11.3V65ZM25.25 65V66H26.25V65H25.25ZM25.25 24.14V23.14H24.25V24.14H25.25ZM25.61 24.14L26.4794 23.6459L26.1919 23.14H25.61V24.14ZM48.83 65L47.9606 65.4941L48.2481 66H48.83V65ZM65.57 65V66H66.57V65H65.57ZM65.57 2H66.57V0.999996H65.57V2ZM51.53 2V0.999996H50.53V2H51.53ZM51.53 43.13V44.13H52.53V43.13H51.53ZM51.17 43.13L50.2992 43.6216L50.5862 44.13H51.17V43.13ZM27.95 2L28.8208 1.50838L28.5338 0.999996H27.95V2ZM11.3 2V0.999996H10.3V2H11.3ZM11.3 66H25.25V64H11.3V66ZM26.25 65V24.14H24.25V65H26.25ZM25.25 25.14H25.61V23.14H25.25V25.14ZM24.7406 24.6341L47.9606 65.4941L49.6994 64.5059L26.4794 23.6459L24.7406 24.6341ZM48.83 66H65.57V64H48.83V66ZM66.57 65V2H64.57V65H66.57ZM65.57 0.999996H51.53V3H65.57V0.999996ZM50.53 2V43.13H52.53V2H50.53ZM51.53 42.13H51.17V44.13H51.53V42.13ZM52.0408 42.6384L28.8208 1.50838L27.0792 2.49161L50.2992 43.6216L52.0408 42.6384ZM27.95 0.999996H11.3V3H27.95V0.999996ZM10.3 2V65H12.3V2H10.3ZM77.8696 65H76.8696V66H77.8696V65ZM91.9996 65V66H92.9996V65H91.9996ZM91.9996 40.61V39.61H90.9996V40.61H91.9996ZM120.08 40.61V41.61H121.08V40.61H120.08ZM120.08 28.01H121.08V27.01H120.08V28.01ZM91.9996 28.01H90.9996V29.01H91.9996V28.01ZM91.9996 14.6V13.6H90.9996V14.6H91.9996ZM122.87 14.6V15.6H123.87V14.6H122.87ZM122.87 2H123.87V0.999996H122.87V2ZM77.8696 2V0.999996H76.8696V2H77.8696ZM77.8696 66H91.9996V64H77.8696V66ZM92.9996 65V40.61H90.9996V65H92.9996ZM91.9996 41.61H120.08V39.61H91.9996V41.61ZM121.08 40.61V28.01H119.08V40.61H121.08ZM120.08 27.01H91.9996V29.01H120.08V27.01ZM92.9996 28.01V14.6H90.9996V28.01H92.9996ZM91.9996 15.6H122.87V13.6H91.9996V15.6ZM123.87 14.6V2H121.87V14.6H123.87ZM122.87 0.999996H77.8696V3H122.87V0.999996ZM76.8696 2V65H78.8696V2H76.8696ZM145.716 65H144.716V66H145.716V65ZM159.936 65V66H160.936V65H159.936ZM159.936 14.69V13.69H158.936V14.69H159.936ZM178.116 14.69V15.69H179.116V14.69H178.116ZM178.116 2H179.116V0.999996H178.116V2ZM127.536 2V0.999996H126.536V2H127.536ZM127.536 14.69H126.536V15.69H127.536V14.69ZM145.716 14.69H146.716V13.69H145.716V14.69ZM145.716 66H159.936V64H145.716V66ZM160.936 65V14.69H158.936V65H160.936ZM159.936 15.69H178.116V13.69H159.936V15.69ZM179.116 14.69V2H177.116V14.69H179.116ZM178.116 0.999996H127.536V3H178.116V0.999996ZM126.536 2V14.69H128.536V2H126.536ZM127.536 15.69H145.716V13.69H127.536V15.69ZM144.716 14.69V65H146.716V14.69H144.716Z" fill="#281AF0" fill-opacity="0.6"/>
</g>
<defs>
<filter id="filter0_ddddd_251_58748" x="0.299988" y="0" width="188.816" height="103" filterUnits="userSpaceOnUse" color-interpolation-filters="sRGB">
<feFlood flood-opacity="0" result="BackgroundImageFix"/>
<feColorMatrix in="SourceAlpha" type="matrix" values="0 0 0 0 0 0 0 0 0 0 0 0 0 0 0 0 0 0 127 0" result="hardAlpha"/>
<feOffset/>
<feColorMatrix type="matrix" values="0 0 0 0 0.156863 0 0 0 0 0.105882 0 0 0 0 0.941176 0 0 0 0.04 0"/>
<feBlend mode="normal" in2="BackgroundImageFix" result="effect1_dropShadow_251_58748"/>
<feColorMatrix in="SourceAlpha" type="matrix" values="0 0 0 0 0 0 0 0 0 0 0 0 0 0 0 0 0 0 127 0" result="hardAlpha"/>
<feOffset dy="2"/>
<feGaussianBlur stdDeviation="2"/>
<feColorMatrix type="matrix" values="0 0 0 0 0.156863 0 0 0 0 0.105882 0 0 0 0 0.941176 0 0 0 0.04 0"/>
<feBlend mode="normal" in2="effect1_dropShadow_251_58748" result="effect2_dropShadow_251_58748"/>
<feColorMatrix in="SourceAlpha" type="matrix" values="0 0 0 0 0 0 0 0 0 0 0 0 0 0 0 0 0 0 127 0" result="hardAlpha"/>
<feOffset dy="7"/>
<feGaussianBlur stdDeviation="3.5"/>
<feColorMatrix type="matrix" values="0 0 0 0 0.156863 0 0 0 0 0.105882 0 0 0 0 0.941176 0 0 0 0.04 0"/>
<feBlend mode="normal" in2="effect2_dropShadow_251_58748" result="effect3_dropShadow_251_58748"/>
<feColorMatrix in="SourceAlpha" type="matrix" values="0 0 0 0 0 0 0 0 0 0 0 0 0 0 0 0 0 0 127 0" result="hardAlpha"/>
<feOffset dy="15"/>
<feGaussianBlur stdDeviation="4.5"/>
<feColorMatrix type="matrix" values="0 0 0 0 0.156863 0 0 0 0 0.105882 0 0 0 0 0.941176 0 0 0 0.02 0"/>
<feBlend mode="normal" in2="effect3_dropShadow_251_58748" result="effect4_dropShadow_251_58748"/>
<feColorMatrix in="SourceAlpha" type="matrix" values="0 0 0 0 0 0 0 0 0 0 0 0 0 0 0 0 0 0 127 0" result="hardAlpha"/>
<feOffset dy="27"/>
<feGaussianBlur stdDeviation="5.5"/>
<feColorMatrix type="matrix" values="0 0 0 0 0.156863 0 0 0 0 0.105882 0 0 0 0 0.941176 0 0 0 0.01 0"/>
<feBlend mode="normal" in2="effect4_dropShadow_251_58748" result="effect5_dropShadow_251_58748"/>
<feBlend mode="normal" in="SourceGraphic" in2="effect5_dropShadow_251_58748" result="shape"/>
</filter>
<linearGradient id="paint0_linear_251_58748" x1="92.5" y1="-12" x2="92.5" y2="78" gradientUnits="userSpaceOnUse">
<stop stop-color="#FBFAFF"/>
<stop offset="0.259788" stop-color="white"/>
<stop offset="0.871399" stop-color="#EFEFFF"/>
<stop offset="1" stop-color="#F5F3FD"/>
</linearGradient>
</defs>
</svg>
