<svg width="288" height="198" viewBox="0 0 288 198" fill="none" xmlns="http://www.w3.org/2000/svg">
<g filter="url(#filter0_ddddd_251_58848)">
<path d="M15.3 69H46.62C58.95 69 66.69 62.34 66.69 50.82C66.69 42.54 63.36 38.04 58.23 35.61V35.25C61.38 33 64.35 29.22 64.35 22.38C64.35 12.03 56.7 6 45.45 6H15.3V69ZM29.34 30.3V18.42H43.38C48.15 18.42 50.04 20.94 50.04 24.36C50.04 27.78 48.15 30.3 43.38 30.3H29.34ZM29.34 56.49V42.54H44.28C50.4 42.54 52.29 46.32 52.29 49.47C52.29 53.25 50.31 56.49 44.28 56.49H29.34ZM73.1263 69H86.9863V2.4H73.1263V69ZM116.024 69.81C131.324 69.81 139.514 59.55 139.514 45.51C139.514 31.38 131.144 21.12 116.024 21.12C100.904 21.12 92.5338 31.38 92.5338 45.51C92.5338 59.64 100.724 69.81 116.024 69.81ZM116.024 57.66C110.354 57.66 106.664 54.06 106.664 45.51C106.664 37.05 110.264 33.27 116.024 33.27C121.784 33.27 125.384 36.96 125.384 45.51C125.384 54.06 121.784 57.66 116.024 57.66ZM167.393 69.81C181.073 69.81 188.183 61.35 188.813 50.46H174.863C174.413 54.6 171.533 57.66 167.033 57.66C161.183 57.66 157.853 53.97 157.853 45.42C157.853 36.96 161.183 33.27 167.033 33.27C171.533 33.27 174.413 36.33 174.863 40.47H188.813C188.183 29.58 180.983 21.12 167.033 21.12C152.003 21.12 143.723 31.2 143.723 45.42C143.723 59.73 152.363 69.81 167.393 69.81ZM220.248 44.16L239.328 22.83V21.93H223.128L208.188 39.03V2.4H195.228V69H208.188V49.74L223.578 69H240.318V68.1L220.248 44.16ZM248.062 48.84H275.602V36.42H248.062V48.84ZM34.92 159.81C48.6 159.81 55.71 151.35 56.34 140.46H42.39C41.94 144.6 39.06 147.66 34.56 147.66C28.71 147.66 25.38 143.97 25.38 135.42C25.38 126.96 28.71 123.27 34.56 123.27C39.06 123.27 41.94 126.33 42.39 130.47H56.34C55.71 119.58 48.51 111.12 34.56 111.12C19.53 111.12 11.25 121.2 11.25 135.42C11.25 149.73 19.89 159.81 34.92 159.81ZM62.7552 159H76.6152V132.9C76.6152 127.23 80.5752 123.72 85.5252 123.72C91.0152 123.72 93.4452 126.96 93.4452 132.36V159H107.305V128.04C107.305 117.6 100.285 111.12 89.8452 111.12C83.7252 111.12 79.5852 113.37 76.9752 116.43H76.6152V92.4H62.7552V159ZM129.306 159.81C135.156 159.81 139.296 157.74 141.906 154.77H142.266L143.256 159H155.676V128.04C155.676 118.23 147.936 111.12 135.066 111.12C121.206 111.12 114.816 118.68 114.816 127.5H127.776C127.776 124.62 130.296 122.28 134.616 122.28C139.746 122.28 141.816 124.8 141.816 128.04V130.56H131.736C118.776 130.56 112.836 136.32 112.836 145.05C112.836 153.42 118.686 159.81 129.306 159.81ZM132.816 149.01C128.676 149.01 126.516 147.03 126.516 144.33C126.516 141.81 128.496 139.83 132.906 139.83H141.816V141.81C141.816 145.68 138.486 149.01 132.816 149.01ZM163.013 106.35H177.773V92.31H163.013V106.35ZM163.463 159H177.323V111.93H163.463V159ZM185.12 159H198.98V132.9C198.98 127.23 202.58 123.72 207.53 123.72C213.02 123.72 215.45 126.96 215.45 132.36V159H229.31V128.04C229.31 117.69 222.29 111.12 211.85 111.12C205.73 111.12 201.59 113.37 198.98 116.43H198.62L197.54 111.93H185.12V159ZM255.73 159.81C267.7 159.81 276.34 154.5 276.34 144.78C276.34 134.88 269.59 131.55 262.39 130.2L253.39 128.49C251.14 128.04 249.88 127.05 249.88 125.25C249.88 123.45 251.95 122.01 255.37 122.01C260.05 122.01 261.67 124.71 261.58 126.87H275.26C275.26 118.14 267.88 111.12 255.64 111.12C243.04 111.12 236.29 117.42 236.29 125.07C236.29 134.52 243.13 138.39 250.69 139.83L257.62 141.18C260.86 141.81 262.39 142.8 262.39 144.87C262.39 146.49 260.68 148.29 255.73 148.29C250.78 148.29 248.71 145.68 248.71 143.07H234.85C235.12 152.7 241.06 159.81 255.73 159.81Z" fill="url(#paint0_linear_251_58848)"/>
<path d="M15.3 69H14.3V70H15.3V69ZM58.23 35.61H57.23V36.2428L57.8019 36.5137L58.23 35.61ZM58.23 35.25L57.6488 34.4363L57.23 34.7354V35.25H58.23ZM15.3 6V5H14.3V6H15.3ZM29.34 30.3H28.34V31.3H29.34V30.3ZM29.34 18.42V17.42H28.34V18.42H29.34ZM29.34 56.49H28.34V57.49H29.34V56.49ZM29.34 42.54V41.54H28.34V42.54H29.34ZM15.3 70H46.62V68H15.3V70ZM46.62 70C52.9572 70 58.2371 68.2876 61.9449 64.9758C65.6677 61.6506 67.69 56.8156 67.69 50.82H65.69C65.69 56.3444 63.8423 60.5994 60.6126 63.4842C57.3679 66.3824 52.6128 68 46.62 68V70ZM67.69 50.82C67.69 46.5468 66.8302 43.1631 65.2419 40.5079C63.6498 37.8462 61.3698 35.9908 58.6581 34.7063L57.8019 36.5137C60.2202 37.6592 62.1702 39.2688 63.5256 41.5346C64.8848 43.8069 65.69 46.8132 65.69 50.82H67.69ZM59.23 35.61V35.25H57.23V35.61H59.23ZM58.8112 36.0637C62.1935 33.6478 65.35 29.5787 65.35 22.38H63.35C63.35 28.8613 60.5665 32.3522 57.6488 34.4363L58.8112 36.0637ZM65.35 22.38C65.35 16.9386 63.3283 12.5533 59.7638 9.54457C56.2195 6.55297 51.2445 5 45.45 5V7C50.9055 7 55.3805 8.46202 58.4737 11.0729C61.5467 13.6667 63.35 17.4714 63.35 22.38H65.35ZM45.45 5H15.3V7H45.45V5ZM14.3 6V69H16.3V6H14.3ZM30.34 30.3V18.42H28.34V30.3H30.34ZM29.34 19.42H43.38V17.42H29.34V19.42ZM43.38 19.42C45.5958 19.42 46.9716 20.0032 47.7954 20.8183C48.6191 21.6334 49.04 22.8278 49.04 24.36H51.04C51.04 22.4722 50.5159 20.6966 49.2021 19.3967C47.8884 18.0968 45.9342 17.42 43.38 17.42V19.42ZM49.04 24.36C49.04 25.8922 48.6191 27.0866 47.7954 27.9017C46.9716 28.7168 45.5958 29.3 43.38 29.3V31.3C45.9342 31.3 47.8884 30.6232 49.2021 29.3233C50.5159 28.0234 51.04 26.2478 51.04 24.36H49.04ZM43.38 29.3H29.34V31.3H43.38V29.3ZM30.34 56.49V42.54H28.34V56.49H30.34ZM29.34 43.54H44.28V41.54H29.34V43.54ZM44.28 43.54C47.1243 43.54 48.8364 44.4107 49.8457 45.5025C50.8725 46.6134 51.29 48.0811 51.29 49.47H53.29C53.29 47.7089 52.7625 45.7116 51.3143 44.145C49.8486 42.5592 47.5557 41.54 44.28 41.54V43.54ZM51.29 49.47C51.29 51.1967 50.8386 52.6638 49.8298 53.6999C48.827 54.7297 47.1211 55.49 44.28 55.49V57.49C47.4689 57.49 49.768 56.6303 51.2627 55.0951C52.7514 53.5662 53.29 51.5233 53.29 49.47H51.29ZM44.28 55.49H29.34V57.49H44.28V55.49ZM73.1263 69H72.1263V70H73.1263V69ZM86.9863 69V70H87.9863V69H86.9863ZM86.9863 2.4H87.9863V1.4H86.9863V2.4ZM73.1263 2.4V1.4H72.1263V2.4H73.1263ZM73.1263 70H86.9863V68H73.1263V70ZM87.9863 69V2.4H85.9863V69H87.9863ZM86.9863 1.4H73.1263V3.4H86.9863V1.4ZM72.1263 2.4V69H74.1263V2.4H72.1263ZM116.024 70.81C123.909 70.81 130.066 68.1584 134.243 63.6007C138.41 59.0557 140.514 52.719 140.514 45.51H138.514C138.514 52.341 136.523 58.1543 132.769 62.2493C129.027 66.3316 123.439 68.81 116.024 68.81V70.81ZM140.514 45.51C140.514 38.252 138.362 31.8937 134.175 27.3394C129.977 22.7734 123.822 20.12 116.024 20.12V22.12C123.346 22.12 128.936 24.5966 132.703 28.6931C136.48 32.8013 138.514 38.638 138.514 45.51H140.514ZM116.024 20.12C108.226 20.12 102.071 22.7734 97.8726 27.3394C93.6851 31.8937 91.5338 38.252 91.5338 45.51H93.5338C93.5338 38.638 95.5675 32.8013 99.3449 28.6931C103.112 24.5966 108.702 22.12 116.024 22.12V20.12ZM91.5338 45.51C91.5338 52.7628 93.6372 59.1006 97.805 63.6354C101.984 68.1826 108.141 70.81 116.024 70.81V68.81C108.606 68.81 103.018 66.3523 99.2775 62.2821C95.5254 58.1994 93.5338 52.3872 93.5338 45.51H91.5338ZM116.024 56.66C113.411 56.66 111.386 55.8405 109.988 54.1532C108.563 52.4336 107.664 49.6623 107.664 45.51H105.664C105.664 49.9076 106.61 53.2114 108.447 55.4293C110.312 57.6796 112.966 58.66 116.024 58.66V56.66ZM107.664 45.51C107.664 41.4002 108.541 38.6017 109.961 36.8464C111.352 35.1271 113.377 34.27 116.024 34.27V32.27C112.91 32.27 110.255 33.3029 108.406 35.5886C106.586 37.8383 105.664 41.1598 105.664 45.51H107.664ZM116.024 34.27C118.677 34.27 120.7 35.1093 122.088 36.8148C123.505 38.5567 124.384 41.3526 124.384 45.51H126.384C126.384 41.1174 125.462 37.7933 123.639 35.5527C121.787 33.2757 119.13 32.27 116.024 32.27V34.27ZM124.384 45.51C124.384 49.6678 123.505 52.4381 122.092 54.1559C120.707 55.8383 118.685 56.66 116.024 56.66V58.66C119.123 58.66 121.78 57.6817 123.636 55.4266C125.463 53.2069 126.384 49.9022 126.384 45.51H124.384ZM188.813 50.46L189.811 50.5178L189.872 49.46H188.813V50.46ZM174.863 50.46V49.46H173.965L173.868 50.3519L174.863 50.46ZM174.863 40.47L173.868 40.5781L173.965 41.47H174.863V40.47ZM188.813 40.47V41.47H189.872L189.811 40.4122L188.813 40.47ZM167.393 70.81C174.446 70.81 179.91 68.6236 183.694 64.9348C187.472 61.2527 189.484 56.1628 189.811 50.5178L187.814 50.4022C187.511 55.6472 185.653 60.2323 182.298 63.5027C178.95 66.7664 174.019 68.81 167.393 68.81V70.81ZM188.813 49.46H174.863V51.46H188.813V49.46ZM173.868 50.3519C173.665 52.2212 172.921 53.7923 171.774 54.8904C170.635 55.9816 169.044 56.66 167.033 56.66V58.66C169.521 58.66 171.62 57.8084 173.158 56.3346C174.689 54.8677 175.61 52.8388 175.857 50.5681L173.868 50.3519ZM167.033 56.66C164.332 56.66 162.364 55.8203 161.035 54.1286C159.67 52.3901 158.853 49.5931 158.853 45.42H156.853C156.853 49.7969 157.7 53.1199 159.462 55.3639C161.261 57.6547 163.883 58.66 167.033 58.66V56.66ZM158.853 45.42C158.853 41.2939 159.669 38.5198 161.034 36.7923C162.362 35.11 164.332 34.27 167.033 34.27V32.27C163.883 32.27 161.263 33.275 159.464 35.5527C157.701 37.7852 156.853 41.0861 156.853 45.42H158.853ZM167.033 34.27C169.044 34.27 170.635 34.9484 171.774 36.0396C172.921 37.1377 173.665 38.7088 173.868 40.5781L175.857 40.3619C175.61 38.0912 174.689 36.0623 173.158 34.5954C171.62 33.1216 169.521 32.27 167.033 32.27V34.27ZM174.863 41.47H188.813V39.47H174.863V41.47ZM189.811 40.4122C189.484 34.7635 187.447 29.6715 183.61 25.9897C179.768 22.303 174.216 20.12 167.033 20.12V22.12C173.799 22.12 178.822 24.167 182.225 27.4328C185.634 30.7035 187.511 35.2865 187.814 40.5278L189.811 40.4122ZM167.033 20.12C159.283 20.12 153.172 22.7263 149.005 27.2609C144.849 31.7837 142.723 38.1208 142.723 45.42H144.723C144.723 38.4991 146.736 32.6863 150.478 28.6141C154.208 24.5537 159.752 22.12 167.033 22.12V20.12ZM142.723 45.42C142.723 52.7736 144.945 59.1342 149.192 63.6651C153.447 68.2049 159.644 70.81 167.393 70.81V68.81C160.111 68.81 154.473 66.3751 150.651 62.2974C146.82 58.2108 144.723 52.3764 144.723 45.42H142.723ZM220.248 44.16L219.502 43.4933L218.925 44.1388L219.481 44.8024L220.248 44.16ZM239.328 22.83L240.073 23.4967L240.328 23.212V22.83H239.328ZM239.328 21.93H240.328V20.93H239.328V21.93ZM223.128 21.93V20.93H222.673L222.375 21.2721L223.128 21.93ZM208.188 39.03H207.188V41.6945L208.941 39.6879L208.188 39.03ZM208.188 2.4H209.188V1.4H208.188V2.4ZM195.228 2.4V1.4H194.228V2.4H195.228ZM195.228 69H194.228V70H195.228V69ZM208.188 69V70H209.188V69H208.188ZM208.188 49.74L208.969 49.1157L207.188 46.8866V49.74H208.188ZM223.578 69L222.796 69.6243L223.097 70H223.578V69ZM240.318 69V70H241.318V69H240.318ZM240.318 68.1H241.318V67.7363L241.084 67.4576L240.318 68.1ZM220.993 44.8267L240.073 23.4967L238.582 22.1633L219.502 43.4933L220.993 44.8267ZM240.328 22.83V21.93H238.328V22.83H240.328ZM239.328 20.93H223.128V22.93H239.328V20.93ZM222.375 21.2721L207.435 38.3721L208.941 39.6879L223.881 22.5879L222.375 21.2721ZM209.188 39.03V2.4H207.188V39.03H209.188ZM208.188 1.4H195.228V3.4H208.188V1.4ZM194.228 2.4V69H196.228V2.4H194.228ZM195.228 70H208.188V68H195.228V70ZM209.188 69V49.74H207.188V69H209.188ZM207.406 50.3642L222.796 69.6243L224.359 68.3757L208.969 49.1157L207.406 50.3642ZM223.578 70H240.318V68H223.578V70ZM241.318 69V68.1H239.318V69H241.318ZM241.084 67.4576L221.014 43.5175L219.481 44.8024L239.551 68.7424L241.084 67.4576ZM248.062 48.84H247.062V49.84H248.062V48.84ZM275.602 48.84V49.84H276.602V48.84H275.602ZM275.602 36.42H276.602V35.42H275.602V36.42ZM248.062 36.42V35.42H247.062V36.42H248.062ZM248.062 49.84H275.602V47.84H248.062V49.84ZM276.602 48.84V36.42H274.602V48.84H276.602ZM275.602 35.42H248.062V37.42H275.602V35.42ZM247.062 36.42V48.84H249.062V36.42H247.062ZM56.34 140.46L57.3383 140.518L57.3995 139.46H56.34V140.46ZM42.39 140.46V139.46H41.4928L41.3959 140.352L42.39 140.46ZM42.39 130.47L41.3959 130.578L41.4928 131.47H42.39V130.47ZM56.34 130.47V131.47H57.3995L57.3383 130.412L56.34 130.47ZM34.92 160.81C41.9737 160.81 47.4375 158.624 51.2218 154.935C54.9992 151.253 57.0118 146.163 57.3383 140.518L55.3417 140.402C55.0382 145.647 53.1808 150.232 49.8257 153.503C46.4775 156.766 41.5463 158.81 34.92 158.81V160.81ZM56.34 139.46H42.39V141.46H56.34V139.46ZM41.3959 140.352C41.1927 142.221 40.4482 143.792 39.302 144.89C38.1629 145.982 36.5716 146.66 34.56 146.66V148.66C37.0484 148.66 39.1471 147.808 40.6855 146.335C42.2168 144.868 43.1373 142.839 43.3841 140.568L41.3959 140.352ZM34.56 146.66C31.8596 146.66 29.8912 145.82 28.5627 144.129C27.1974 142.39 26.38 139.593 26.38 135.42H24.38C24.38 139.797 25.2276 143.12 26.9898 145.364C28.7888 147.655 31.4104 148.66 34.56 148.66V146.66ZM26.38 135.42C26.38 131.294 27.1967 128.52 28.561 126.792C29.8896 125.11 31.8592 124.27 34.56 124.27V122.27C31.4108 122.27 28.7904 123.275 26.9915 125.553C25.2283 127.785 24.38 131.086 24.38 135.42H26.38ZM34.56 124.27C36.5716 124.27 38.1629 124.948 39.302 126.04C40.4482 127.138 41.1927 128.709 41.3959 130.578L43.3841 130.362C43.1373 128.091 42.2168 126.062 40.6855 124.595C39.1471 123.122 37.0484 122.27 34.56 122.27V124.27ZM42.39 131.47H56.34V129.47H42.39V131.47ZM57.3383 130.412C57.0115 124.763 54.974 119.671 51.1374 115.99C47.2956 112.303 41.7432 110.12 34.56 110.12V112.12C41.3268 112.12 46.3494 114.167 49.7526 117.433C53.161 120.704 55.0385 125.287 55.3417 130.528L57.3383 130.412ZM34.56 110.12C26.8102 110.12 20.699 112.726 16.5324 117.261C12.3767 121.784 10.25 128.121 10.25 135.42H12.25C12.25 128.499 14.2633 122.686 18.0051 118.614C21.736 114.554 27.2798 112.12 34.56 112.12V110.12ZM10.25 135.42C10.25 142.774 12.4722 149.134 16.7192 153.665C20.9744 158.205 27.1715 160.81 34.92 160.81V158.81C27.6385 158.81 22.0006 156.375 18.1783 152.297C14.3478 148.211 12.25 142.376 12.25 135.42H10.25ZM62.7552 159H61.7552V160H62.7552V159ZM76.6152 159V160H77.6152V159H76.6152ZM93.4452 159H92.4452V160H93.4452V159ZM107.305 159V160H108.305V159H107.305ZM76.9752 116.43V117.43H77.4366L77.736 117.079L76.9752 116.43ZM76.6152 116.43H75.6152V117.43H76.6152V116.43ZM76.6152 92.4H77.6152V91.4H76.6152V92.4ZM62.7552 92.4V91.4H61.7552V92.4H62.7552ZM62.7552 160H76.6152V158H62.7552V160ZM77.6152 159V132.9H75.6152V159H77.6152ZM77.6152 132.9C77.6152 130.307 78.5152 128.277 79.916 126.896C81.3214 125.51 83.2891 124.72 85.5252 124.72V122.72C82.8112 122.72 80.324 123.685 78.5118 125.472C76.6951 127.263 75.6152 129.823 75.6152 132.9H77.6152ZM85.5252 124.72C88.0694 124.72 89.7373 125.464 90.7899 126.672C91.8646 127.905 92.4452 129.79 92.4452 132.36H94.4452C94.4452 129.53 93.8107 127.095 92.2979 125.358C90.763 123.596 88.471 122.72 85.5252 122.72V124.72ZM92.4452 132.36V159H94.4452V132.36H92.4452ZM93.4452 160H107.305V158H93.4452V160ZM108.305 159V128.04H106.305V159H108.305ZM108.305 128.04C108.305 122.588 106.466 118.082 103.181 114.942C99.9015 111.807 95.2721 110.12 89.8452 110.12V112.12C94.8582 112.12 98.9588 113.673 101.799 116.388C104.634 119.098 106.305 123.052 106.305 128.04H108.305ZM89.8452 110.12C83.4534 110.12 79.0275 112.483 76.2143 115.781L77.736 117.079C80.1428 114.257 83.997 112.12 89.8452 112.12V110.12ZM76.9752 115.43H76.6152V117.43H76.9752V115.43ZM77.6152 116.43V92.4H75.6152V116.43H77.6152ZM76.6152 91.4H62.7552V93.4H76.6152V91.4ZM61.7552 92.4V159H63.7552V92.4H61.7552ZM141.906 154.77V153.77H141.454L141.155 154.11L141.906 154.77ZM142.266 154.77L143.24 154.542L143.059 153.77H142.266V154.77ZM143.257 159L142.283 159.228L142.464 160H143.257V159ZM155.676 159V160H156.676V159H155.676ZM114.816 127.5H113.816V128.5H114.816V127.5ZM127.776 127.5V128.5H128.776V127.5H127.776ZM141.816 130.56V131.56H142.816V130.56H141.816ZM141.816 139.83H142.816V138.83H141.816V139.83ZM129.306 160.81C135.409 160.81 139.836 158.641 142.658 155.43L141.155 154.11C138.757 156.839 134.904 158.81 129.306 158.81V160.81ZM141.906 155.77H142.266V153.77H141.906V155.77ZM141.293 154.998L142.283 159.228L144.23 158.772L143.24 154.542L141.293 154.998ZM143.257 160H155.676V158H143.257V160ZM156.676 159V128.04H154.676V159H156.676ZM156.676 128.04C156.676 122.854 154.622 118.34 150.844 115.138C147.08 111.948 141.68 110.12 135.066 110.12V112.12C141.323 112.12 146.228 113.847 149.551 116.664C152.861 119.47 154.676 123.416 154.676 128.04H156.676ZM135.066 110.12C127.958 110.12 122.634 112.061 119.076 115.259C115.51 118.463 113.816 122.841 113.816 127.5H115.816C115.816 123.339 117.318 119.527 120.412 116.746C123.514 113.959 128.315 112.12 135.066 112.12V110.12ZM114.816 128.5H127.776V126.5H114.816V128.5ZM128.776 127.5C128.776 126.373 129.262 125.35 130.205 124.588C131.159 123.817 132.632 123.28 134.616 123.28V121.28C132.281 121.28 130.334 121.913 128.948 123.032C127.551 124.16 126.776 125.747 126.776 127.5H128.776ZM134.616 123.28C137.029 123.28 138.558 123.873 139.474 124.691C140.375 125.496 140.816 126.638 140.816 128.04H142.816C142.816 126.202 142.223 124.464 140.806 123.199C139.405 121.947 137.334 121.28 134.616 121.28V123.28ZM140.816 128.04V130.56H142.816V128.04H140.816ZM141.816 129.56H131.736V131.56H141.816V129.56ZM131.736 129.56C125.127 129.56 120.143 131.027 116.795 133.756C113.415 136.511 111.836 140.442 111.836 145.05H113.836C113.836 140.928 115.228 137.614 118.058 135.306C120.92 132.973 125.386 131.56 131.736 131.56V129.56ZM111.836 145.05C111.836 149.474 113.388 153.439 116.401 156.295C119.413 159.148 123.795 160.81 129.306 160.81V158.81C124.198 158.81 120.345 157.277 117.777 154.843C115.21 152.411 113.836 148.996 113.836 145.05H111.836ZM132.816 148.01C130.894 148.01 129.561 147.549 128.733 146.897C127.928 146.263 127.516 145.389 127.516 144.33H125.516C125.516 145.971 126.185 147.437 127.495 148.468C128.782 149.481 130.599 150.01 132.816 150.01V148.01ZM127.516 144.33C127.516 143.356 127.886 142.532 128.67 141.926C129.483 141.297 130.836 140.83 132.906 140.83V138.83C130.567 138.83 128.725 139.353 127.446 140.344C126.137 141.358 125.516 142.784 125.516 144.33H127.516ZM132.906 140.83H141.816V138.83H132.906V140.83ZM140.816 139.83V141.81H142.816V139.83H140.816ZM140.816 141.81C140.816 144.986 138.088 148.01 132.816 148.01V150.01C138.885 150.01 142.816 146.374 142.816 141.81H140.816ZM163.013 106.35H162.013V107.35H163.013V106.35ZM177.773 106.35V107.35H178.773V106.35H177.773ZM177.773 92.31H178.773V91.31H177.773V92.31ZM163.013 92.31V91.31H162.013V92.31H163.013ZM163.463 159H162.463V160H163.463V159ZM177.323 159V160H178.323V159H177.323ZM177.323 111.93H178.323V110.93H177.323V111.93ZM163.463 111.93V110.93H162.463V111.93H163.463ZM163.013 107.35H177.773V105.35H163.013V107.35ZM178.773 106.35V92.31H176.773V106.35H178.773ZM177.773 91.31H163.013V93.31H177.773V91.31ZM162.013 92.31V106.35H164.013V92.31H162.013ZM163.463 160H177.323V158H163.463V160ZM178.323 159V111.93H176.323V159H178.323ZM177.323 110.93H163.463V112.93H177.323V110.93ZM162.463 111.93V159H164.463V111.93H162.463ZM185.12 159H184.12V160H185.12V159ZM198.98 159V160H199.98V159H198.98ZM215.45 159H214.45V160H215.45V159ZM229.31 159V160H230.31V159H229.31ZM198.98 116.43V117.43H199.442L199.741 117.079L198.98 116.43ZM198.62 116.43L197.648 116.663L197.832 117.43H198.62V116.43ZM197.54 111.93L198.513 111.697L198.329 110.93H197.54V111.93ZM185.12 111.93V110.93H184.12V111.93H185.12ZM185.12 160H198.98V158H185.12V160ZM199.98 159V132.9H197.98V159H199.98ZM199.98 132.9C199.98 130.28 200.809 128.246 202.121 126.875C203.432 125.506 205.299 124.72 207.53 124.72V122.72C204.811 122.72 202.403 123.689 200.677 125.492C198.952 127.294 197.98 129.85 197.98 132.9H199.98ZM207.53 124.72C210.074 124.72 211.742 125.464 212.795 126.672C213.87 127.905 214.45 129.79 214.45 132.36H216.45C216.45 129.53 215.816 127.095 214.303 125.358C212.768 123.596 210.476 122.72 207.53 122.72V124.72ZM214.45 132.36V159H216.45V132.36H214.45ZM215.45 160H229.31V158H215.45V160ZM230.31 159V128.04H228.31V159H230.31ZM230.31 128.04C230.31 122.631 228.47 118.127 225.188 114.977C221.91 111.832 217.281 110.12 211.85 110.12V112.12C216.86 112.12 220.961 113.693 223.803 116.42C226.64 119.143 228.31 123.099 228.31 128.04H230.31ZM211.85 110.12C205.458 110.12 201.033 112.483 198.219 115.781L199.741 117.079C202.148 114.257 206.002 112.12 211.85 112.12V110.12ZM198.98 115.43H198.62V117.43H198.98V115.43ZM199.593 116.197L198.513 111.697L196.568 112.163L197.648 116.663L199.593 116.197ZM197.54 110.93H185.12V112.93H197.54V110.93ZM184.12 111.93V159H186.12V111.93H184.12ZM262.39 130.2L262.203 131.182L262.206 131.183L262.39 130.2ZM253.39 128.49L253.194 129.471L253.203 129.472L253.39 128.49ZM261.58 126.87L260.581 126.828L260.537 127.87H261.58V126.87ZM275.26 126.87V127.87H276.26V126.87H275.26ZM250.69 139.83L250.881 138.848L250.877 138.848L250.69 139.83ZM257.62 141.18L257.429 142.162L257.429 142.162L257.62 141.18ZM248.71 143.07H249.71V142.07H248.71V143.07ZM234.85 143.07V142.07H233.822L233.85 143.098L234.85 143.07ZM255.73 160.81C261.846 160.81 267.219 159.456 271.095 156.761C275.008 154.04 277.34 149.981 277.34 144.78H275.34C275.34 149.299 273.352 152.755 269.953 155.119C266.516 157.509 261.585 158.81 255.73 158.81V160.81ZM277.34 144.78C277.34 139.571 275.549 135.976 272.719 133.528C269.935 131.118 266.242 129.905 262.574 129.217L262.206 131.183C265.738 131.845 269.02 132.972 271.411 135.04C273.756 137.069 275.34 140.089 275.34 144.78H277.34ZM262.577 129.218L253.577 127.508L253.203 129.472L262.203 131.182L262.577 129.218ZM253.586 127.509C252.544 127.301 251.863 126.99 251.455 126.628C251.087 126.301 250.88 125.883 250.88 125.25H248.88C248.88 126.417 249.304 127.393 250.128 128.124C250.912 128.82 251.986 129.229 253.194 129.471L253.586 127.509ZM250.88 125.25C250.88 124.782 251.137 124.258 251.869 123.805C252.612 123.345 253.787 123.01 255.37 123.01V121.01C253.533 121.01 251.963 121.395 250.816 122.105C249.658 122.822 248.88 123.918 248.88 125.25H250.88ZM255.37 123.01C257.516 123.01 258.819 123.625 259.569 124.349C260.325 125.08 260.615 126.01 260.581 126.828L262.579 126.912C262.635 125.57 262.16 124.07 260.958 122.911C259.751 121.745 257.904 121.01 255.37 121.01V123.01ZM261.58 127.87H275.26V125.87H261.58V127.87ZM276.26 126.87C276.26 122.206 274.282 117.99 270.685 114.957C267.096 111.93 261.948 110.12 255.64 110.12V112.12C261.572 112.12 266.234 113.82 269.395 116.486C272.548 119.145 274.26 122.804 274.26 126.87H276.26ZM255.64 110.12C249.182 110.12 244.11 111.734 240.627 114.436C237.128 117.151 235.29 120.926 235.29 125.07H237.29C237.29 121.564 238.827 118.364 241.853 116.016C244.896 113.656 249.498 112.12 255.64 112.12V110.12ZM235.29 125.07C235.29 130.071 237.115 133.679 239.996 136.206C242.838 138.699 246.635 140.076 250.503 140.812L250.877 138.848C247.185 138.144 243.782 136.866 241.314 134.702C238.885 132.571 237.29 129.519 237.29 125.07H235.29ZM250.499 140.812L257.429 142.162L257.811 140.198L250.881 138.848L250.499 140.812ZM257.429 142.162C259.016 142.47 260.023 142.842 260.624 143.288C261.148 143.677 261.39 144.139 261.39 144.87H263.39C263.39 143.531 262.867 142.463 261.816 141.682C260.842 140.958 259.465 140.52 257.811 140.198L257.429 142.162ZM261.39 144.87C261.39 145.286 261.185 145.841 260.387 146.339C259.559 146.855 258.103 147.29 255.73 147.29V149.29C258.307 149.29 260.181 148.825 261.445 148.036C262.74 147.229 263.39 146.074 263.39 144.87H261.39ZM255.73 147.29C253.426 147.29 251.925 146.684 251.016 145.901C250.114 145.124 249.71 144.102 249.71 143.07H247.71C247.71 144.648 248.341 146.236 249.711 147.416C251.075 148.591 253.084 149.29 255.73 149.29V147.29ZM248.71 142.07H234.85V144.07H248.71V142.07ZM233.85 143.098C233.991 148.114 235.617 152.59 239.226 155.799C242.821 158.996 248.245 160.81 255.73 160.81V158.81C248.545 158.81 243.664 157.069 240.555 154.304C237.458 151.55 235.979 147.656 235.85 143.042L233.85 143.098Z" fill="#281AF0" fill-opacity="0.6"/>
</g>
<defs>
<filter id="filter0_ddddd_251_58848" x="0.25" y="0.399994" width="287.09" height="197.41" filterUnits="userSpaceOnUse" color-interpolation-filters="sRGB">
<feFlood flood-opacity="0" result="BackgroundImageFix"/>
<feColorMatrix in="SourceAlpha" type="matrix" values="0 0 0 0 0 0 0 0 0 0 0 0 0 0 0 0 0 0 127 0" result="hardAlpha"/>
<feOffset/>
<feColorMatrix type="matrix" values="0 0 0 0 0.156863 0 0 0 0 0.105882 0 0 0 0 0.941176 0 0 0 0.04 0"/>
<feBlend mode="normal" in2="BackgroundImageFix" result="effect1_dropShadow_251_58848"/>
<feColorMatrix in="SourceAlpha" type="matrix" values="0 0 0 0 0 0 0 0 0 0 0 0 0 0 0 0 0 0 127 0" result="hardAlpha"/>
<feOffset dy="2"/>
<feGaussianBlur stdDeviation="2"/>
<feColorMatrix type="matrix" values="0 0 0 0 0.156863 0 0 0 0 0.105882 0 0 0 0 0.941176 0 0 0 0.04 0"/>
<feBlend mode="normal" in2="effect1_dropShadow_251_58848" result="effect2_dropShadow_251_58848"/>
<feColorMatrix in="SourceAlpha" type="matrix" values="0 0 0 0 0 0 0 0 0 0 0 0 0 0 0 0 0 0 127 0" result="hardAlpha"/>
<feOffset dy="7"/>
<feGaussianBlur stdDeviation="3.5"/>
<feColorMatrix type="matrix" values="0 0 0 0 0.156863 0 0 0 0 0.105882 0 0 0 0 0.941176 0 0 0 0.04 0"/>
<feBlend mode="normal" in2="effect2_dropShadow_251_58848" result="effect3_dropShadow_251_58848"/>
<feColorMatrix in="SourceAlpha" type="matrix" values="0 0 0 0 0 0 0 0 0 0 0 0 0 0 0 0 0 0 127 0" result="hardAlpha"/>
<feOffset dy="15"/>
<feGaussianBlur stdDeviation="4.5"/>
<feColorMatrix type="matrix" values="0 0 0 0 0.156863 0 0 0 0 0.105882 0 0 0 0 0.941176 0 0 0 0.02 0"/>
<feBlend mode="normal" in2="effect3_dropShadow_251_58848" result="effect4_dropShadow_251_58848"/>
<feColorMatrix in="SourceAlpha" type="matrix" values="0 0 0 0 0 0 0 0 0 0 0 0 0 0 0 0 0 0 127 0" result="hardAlpha"/>
<feOffset dy="27"/>
<feGaussianBlur stdDeviation="5.5"/>
<feColorMatrix type="matrix" values="0 0 0 0 0.156863 0 0 0 0 0.105882 0 0 0 0 0.941176 0 0 0 0.01 0"/>
<feBlend mode="normal" in2="effect4_dropShadow_251_58848" result="effect5_dropShadow_251_58848"/>
<feBlend mode="normal" in="SourceGraphic" in2="effect5_dropShadow_251_58848" result="shape"/>
</filter>
<linearGradient id="paint0_linear_251_58848" x1="146" y1="-8" x2="146" y2="172" gradientUnits="userSpaceOnUse">
<stop stop-color="#FBFAFF"/>
<stop offset="0.259788" stop-color="white"/>
<stop offset="0.871399" stop-color="#EFEFFF"/>
<stop offset="1" stop-color="#F5F3FD"/>
</linearGradient>
</defs>
</svg>
