<svg width="413" height="214" viewBox="0 0 413 214" fill="none" xmlns="http://www.w3.org/2000/svg">
<g filter="url(#filter0_ddddd_251_58832)">
<path d="M17.3 65H39.08C58.79 65 71.66 51.05 71.66 33.5C71.66 14.6 57.89 2 39.08 2H17.3V65ZM30.53 52.49V14.6H38.27C50.06 14.6 57.26 20.45 57.26 33.5C57.26 46.64 50.06 52.49 38.27 52.49H30.53ZM92.774 65.81C98.624 65.81 102.764 63.74 105.374 60.77H105.734L106.724 65H119.144V34.04C119.144 24.23 111.404 17.12 98.534 17.12C84.674 17.12 78.284 24.68 78.284 33.5H91.244C91.244 30.62 93.764 28.28 98.084 28.28C103.214 28.28 105.284 30.8 105.284 34.04V36.56H95.204C82.244 36.56 76.304 42.32 76.304 51.05C76.304 59.42 82.154 65.81 92.774 65.81ZM96.284 55.01C92.144 55.01 89.984 53.03 89.984 50.33C89.984 47.81 91.964 45.83 96.374 45.83H105.284V47.81C105.284 51.68 101.954 55.01 96.284 55.01ZM147.63 65H157.17V52.94H151.77C147.63 52.94 145.74 51.05 145.74 46.64V29.72H156.99V17.93H145.74V5.6H132.51V17.93H124.23V29.72H131.88V49.97C131.88 58.52 136.74 65 147.63 65ZM179.595 65.81C185.445 65.81 189.585 63.74 192.195 60.77H192.555L193.545 65H205.965V34.04C205.965 24.23 198.225 17.12 185.355 17.12C171.495 17.12 165.105 24.68 165.105 33.5H178.065C178.065 30.62 180.585 28.28 184.905 28.28C190.035 28.28 192.105 30.8 192.105 34.04V36.56H182.025C169.065 36.56 163.125 42.32 163.125 51.05C163.125 59.42 168.975 65.81 179.595 65.81ZM183.105 55.01C178.965 55.01 176.805 53.03 176.805 50.33C176.805 47.81 178.785 45.83 183.195 45.83H192.105V47.81C192.105 51.68 188.775 55.01 183.105 55.01ZM51.59 92H33.5L11.9 154.1V155H26.84L30.53 143.03H53.93L57.62 155H73.28V154.1L51.59 92ZM34.4 130.61L42.05 106.13H42.41L50.06 130.61H34.4ZM78.3782 155H92.2382V128.9C92.2382 123.23 95.8382 119.72 100.788 119.72C106.278 119.72 108.708 122.96 108.708 128.36V155H122.568V124.04C122.568 113.69 115.548 107.12 105.108 107.12C98.9882 107.12 94.8482 109.37 92.2382 112.43H91.8782L90.7982 107.93H78.3782V155ZM144.578 155.81C150.428 155.81 154.568 153.74 157.178 150.77H157.538L158.528 155H170.948V124.04C170.948 114.23 163.208 107.12 150.338 107.12C136.478 107.12 130.088 114.68 130.088 123.5H143.048C143.048 120.62 145.568 118.28 149.888 118.28C155.018 118.28 157.088 120.8 157.088 124.04V126.56H147.008C134.048 126.56 128.108 132.32 128.108 141.05C128.108 149.42 133.958 155.81 144.578 155.81ZM148.088 145.01C143.948 145.01 141.788 143.03 141.788 140.33C141.788 137.81 143.768 135.83 148.178 135.83H157.088V137.81C157.088 141.68 153.758 145.01 148.088 145.01ZM178.734 155H192.594V88.4H178.734V155ZM196.792 107.93V108.83L211.732 155H214.072L207.322 174.71V175.61H222.352L246.022 108.83V107.93H231.082L220.912 141.32H220.552L211.012 107.93H196.792ZM273.159 155H282.699V142.94H277.299C273.159 142.94 271.269 141.05 271.269 136.64V119.72H282.519V107.93H271.269V95.6H258.039V107.93H249.759V119.72H257.409V139.97C257.409 148.52 262.269 155 273.159 155ZM290.454 102.35H305.214V88.31H290.454V102.35ZM290.904 155H304.764V107.93H290.904V155ZM333.982 155.81C347.662 155.81 354.772 147.35 355.402 136.46H341.452C341.002 140.6 338.122 143.66 333.622 143.66C327.772 143.66 324.442 139.97 324.442 131.42C324.442 122.96 327.772 119.27 333.622 119.27C338.122 119.27 341.002 122.33 341.452 126.47H355.402C354.772 115.58 347.572 107.12 333.622 107.12C318.592 107.12 310.312 117.2 310.312 131.42C310.312 145.73 318.952 155.81 333.982 155.81ZM380.447 155.81C392.417 155.81 401.057 150.5 401.057 140.78C401.057 130.88 394.307 127.55 387.107 126.2L378.107 124.49C375.857 124.04 374.597 123.05 374.597 121.25C374.597 119.45 376.667 118.01 380.087 118.01C384.767 118.01 386.387 120.71 386.297 122.87H399.977C399.977 114.14 392.597 107.12 380.357 107.12C367.757 107.12 361.007 113.42 361.007 121.07C361.007 130.52 367.847 134.39 375.407 135.83L382.337 137.18C385.577 137.81 387.107 138.8 387.107 140.87C387.107 142.49 385.397 144.29 380.447 144.29C375.497 144.29 373.427 141.68 373.427 139.07H359.567C359.837 148.7 365.777 155.81 380.447 155.81Z" fill="url(#paint0_linear_251_58832)"/>
<path d="M17.3 65H16.3V66H17.3V65ZM17.3 2V0.999996H16.3V2H17.3ZM30.53 52.49H29.53V53.49H30.53V52.49ZM30.53 14.6V13.6H29.53V14.6H30.53ZM17.3 66H39.08V64H17.3V66ZM39.08 66C59.3423 66 72.66 51.6023 72.66 33.5H70.66C70.66 50.4977 58.2377 64 39.08 64V66ZM72.66 33.5C72.66 23.7962 69.1193 15.6527 63.1131 9.93802C57.1118 4.22805 48.7101 0.999996 39.08 0.999996V3C48.2599 3 56.1482 6.07194 61.7344 11.387C67.3157 16.6973 70.66 24.3038 70.66 33.5H72.66ZM39.08 0.999996H17.3V3H39.08V0.999996ZM16.3 2V65H18.3V2H16.3ZM31.53 52.49V14.6H29.53V52.49H31.53ZM30.53 15.6H38.27V13.6H30.53V15.6ZM38.27 15.6C44.0131 15.6 48.4749 17.0249 51.4994 19.8831C54.5136 22.7315 56.26 27.1555 56.26 33.5H58.26C58.26 26.7945 56.4064 21.7685 52.8731 18.4294C49.3501 15.1001 44.3169 13.6 38.27 13.6V15.6ZM56.26 33.5C56.26 39.8914 54.5125 44.3379 51.4981 47.1969C48.474 50.0652 44.0131 51.49 38.27 51.49V53.49C44.3169 53.49 49.351 51.9898 52.8744 48.6481C56.4075 45.2971 58.26 40.2486 58.26 33.5H56.26ZM38.27 51.49H30.53V53.49H38.27V51.49ZM105.374 60.77V59.77H104.922L104.623 60.1099L105.374 60.77ZM105.734 60.77L106.708 60.5421L106.527 59.77H105.734V60.77ZM106.724 65L105.75 65.2279L105.931 66H106.724V65ZM119.144 65V66H120.144V65H119.144ZM78.284 33.5H77.284V34.5H78.284V33.5ZM91.244 33.5V34.5H92.244V33.5H91.244ZM105.284 36.56V37.56H106.284V36.56H105.284ZM105.284 45.83H106.284V44.83H105.284V45.83ZM92.774 66.81C98.8767 66.81 103.303 64.6411 106.125 61.4301L104.623 60.1099C102.225 62.8389 98.3713 64.81 92.774 64.81V66.81ZM105.374 61.77H105.734V59.77H105.374V61.77ZM104.76 60.9979L105.75 65.2279L107.698 64.7721L106.708 60.5421L104.76 60.9979ZM106.724 66H119.144V64H106.724V66ZM120.144 65V34.04H118.144V65H120.144ZM120.144 34.04C120.144 28.8538 118.089 24.3402 114.312 21.1384C110.548 17.9478 105.148 16.12 98.534 16.12V18.12C104.79 18.12 109.695 19.8472 113.019 22.6641C116.329 25.4698 118.144 29.4162 118.144 34.04H120.144ZM98.534 16.12C91.4257 16.12 86.1019 18.0606 82.5431 21.2587C78.9777 24.4628 77.284 28.8407 77.284 33.5H79.284C79.284 29.3392 80.7853 25.5272 83.8799 22.7463C86.9811 19.9594 91.7823 18.12 98.534 18.12V16.12ZM78.284 34.5H91.244V32.5H78.284V34.5ZM92.244 33.5C92.244 32.3725 92.7292 31.3497 93.6723 30.5879C94.6268 29.817 96.0991 29.28 98.084 29.28V27.28C95.7489 27.28 93.8012 27.913 92.4157 29.0321C91.0188 30.1603 90.244 31.7475 90.244 33.5H92.244ZM98.084 29.28C100.497 29.28 102.026 29.8727 102.942 30.6908C103.843 31.4958 104.284 32.6381 104.284 34.04H106.284C106.284 32.2019 105.69 30.4642 104.274 29.1992C102.872 27.9473 100.801 27.28 98.084 27.28V29.28ZM104.284 34.04V36.56H106.284V34.04H104.284ZM105.284 35.56H95.204V37.56H105.284V35.56ZM95.204 35.56C88.5941 35.56 83.6103 37.0267 80.2621 39.7562C76.8828 42.5111 75.304 46.4422 75.304 51.05H77.304C77.304 46.9278 78.6952 43.6139 81.5258 41.3063C84.3877 38.9733 88.8539 37.56 95.204 37.56V35.56ZM75.304 51.05C75.304 55.4742 76.8551 59.439 79.8687 62.2946C82.8802 65.1483 87.262 66.81 92.774 66.81V64.81C87.666 64.81 83.8128 63.2767 81.2443 60.8429C78.6779 58.411 77.304 54.9958 77.304 51.05H75.304ZM96.284 54.01C94.3613 54.01 93.029 53.5493 92.2001 52.8968C91.3954 52.2633 90.984 51.3891 90.984 50.33H88.984C88.984 51.9709 89.6526 53.4367 90.9629 54.4682C92.249 55.4807 94.0667 56.01 96.284 56.01V54.01ZM90.984 50.33C90.984 49.356 91.3537 48.5324 92.1374 47.9257C92.9501 47.2965 94.3035 46.83 96.374 46.83V44.83C94.0345 44.83 92.1928 45.3535 90.9131 46.3443C89.6042 47.3576 88.984 48.784 88.984 50.33H90.984ZM96.374 46.83H105.284V44.83H96.374V46.83ZM104.284 45.83V47.81H106.284V45.83H104.284ZM104.284 47.81C104.284 50.9855 101.556 54.01 96.284 54.01V56.01C102.352 56.01 106.284 52.3745 106.284 47.81H104.284ZM157.17 65V66H158.17V65H157.17ZM157.17 52.94H158.17V51.94H157.17V52.94ZM145.74 29.72V28.72H144.74V29.72H145.74ZM156.99 29.72V30.72H157.99V29.72H156.99ZM156.99 17.93H157.99V16.93H156.99V17.93ZM145.74 17.93H144.74V18.93H145.74V17.93ZM145.74 5.6H146.74V4.6H145.74V5.6ZM132.51 5.6V4.6H131.51V5.6H132.51ZM132.51 17.93V18.93H133.51V17.93H132.51ZM124.23 17.93V16.93H123.23V17.93H124.23ZM124.23 29.72H123.23V30.72H124.23V29.72ZM131.88 29.72H132.88V28.72H131.88V29.72ZM147.63 66H157.17V64H147.63V66ZM158.17 65V52.94H156.17V65H158.17ZM157.17 51.94H151.77V53.94H157.17V51.94ZM151.77 51.94C149.831 51.94 148.644 51.4958 147.922 50.7486C147.192 49.9937 146.74 48.7289 146.74 46.64H144.74C144.74 48.9611 145.234 50.8463 146.484 52.1389C147.741 53.4392 149.569 53.94 151.77 53.94V51.94ZM146.74 46.64V29.72H144.74V46.64H146.74ZM145.74 30.72H156.99V28.72H145.74V30.72ZM157.99 29.72V17.93H155.99V29.72H157.99ZM156.99 16.93H145.74V18.93H156.99V16.93ZM146.74 17.93V5.6H144.74V17.93H146.74ZM145.74 4.6H132.51V6.6H145.74V4.6ZM131.51 5.6V17.93H133.51V5.6H131.51ZM132.51 16.93H124.23V18.93H132.51V16.93ZM123.23 17.93V29.72H125.23V17.93H123.23ZM124.23 30.72H131.88V28.72H124.23V30.72ZM130.88 29.72V49.97H132.88V29.72H130.88ZM130.88 49.97C130.88 54.428 132.149 58.4604 134.949 61.3831C137.758 64.3146 141.984 66 147.63 66V64C142.387 64 138.737 62.4454 136.394 59.9994C134.041 57.5446 132.88 54.062 132.88 49.97H130.88ZM192.195 60.77V59.77H191.742L191.444 60.1099L192.195 60.77ZM192.555 60.77L193.529 60.5421L193.348 59.77H192.555V60.77ZM193.545 65L192.571 65.2279L192.752 66H193.545V65ZM205.965 65V66H206.965V65H205.965ZM165.105 33.5H164.105V34.5H165.105V33.5ZM178.065 33.5V34.5H179.065V33.5H178.065ZM192.105 36.56V37.56H193.105V36.56H192.105ZM192.105 45.83H193.105V44.83H192.105V45.83ZM179.595 66.81C185.698 66.81 190.124 64.6411 192.946 61.4301L191.444 60.1099C189.045 62.8389 185.192 64.81 179.595 64.81V66.81ZM192.195 61.77H192.555V59.77H192.195V61.77ZM191.581 60.9979L192.571 65.2279L194.519 64.7721L193.529 60.5421L191.581 60.9979ZM193.545 66H205.965V64H193.545V66ZM206.965 65V34.04H204.965V65H206.965ZM206.965 34.04C206.965 28.8538 204.91 24.3402 201.133 21.1384C197.368 17.9478 191.969 16.12 185.355 16.12V18.12C191.611 18.12 196.516 19.8472 199.84 22.6641C203.15 25.4698 204.965 29.4162 204.965 34.04H206.965ZM185.355 16.12C178.247 16.12 172.923 18.0606 169.364 21.2587C165.799 24.4628 164.105 28.8407 164.105 33.5H166.105C166.105 29.3392 167.606 25.5272 170.701 22.7463C173.802 19.9594 178.603 18.12 185.355 18.12V16.12ZM165.105 34.5H178.065V32.5H165.105V34.5ZM179.065 33.5C179.065 32.3725 179.55 31.3497 180.493 30.5879C181.448 29.817 182.92 29.28 184.905 29.28V27.28C182.57 27.28 180.622 27.913 179.237 29.0321C177.84 30.1603 177.065 31.7475 177.065 33.5H179.065ZM184.905 29.28C187.318 29.28 188.847 29.8727 189.762 30.6908C190.664 31.4958 191.105 32.6381 191.105 34.04H193.105C193.105 32.2019 192.511 30.4642 191.095 29.1992C189.693 27.9473 187.622 27.28 184.905 27.28V29.28ZM191.105 34.04V36.56H193.105V34.04H191.105ZM192.105 35.56H182.025V37.56H192.105V35.56ZM182.025 35.56C175.415 35.56 170.431 37.0267 167.083 39.7562C163.704 42.5111 162.125 46.4422 162.125 51.05H164.125C164.125 46.9278 165.516 43.6139 168.347 41.3063C171.209 38.9733 175.675 37.56 182.025 37.56V35.56ZM162.125 51.05C162.125 55.4742 163.676 59.439 166.69 62.2946C169.701 65.1483 174.083 66.81 179.595 66.81V64.81C174.487 64.81 170.634 63.2767 168.065 60.8429C165.499 58.411 164.125 54.9958 164.125 51.05H162.125ZM183.105 54.01C181.182 54.01 179.85 53.5493 179.021 52.8968C178.216 52.2633 177.805 51.3891 177.805 50.33H175.805C175.805 51.9709 176.473 53.4367 177.784 54.4682C179.07 55.4807 180.888 56.01 183.105 56.01V54.01ZM177.805 50.33C177.805 49.356 178.175 48.5324 178.958 47.9257C179.771 47.2965 181.124 46.83 183.195 46.83V44.83C180.855 44.83 179.014 45.3535 177.734 46.3443C176.425 47.3576 175.805 48.784 175.805 50.33H177.805ZM183.195 46.83H192.105V44.83H183.195V46.83ZM191.105 45.83V47.81H193.105V45.83H191.105ZM191.105 47.81C191.105 50.9855 188.376 54.01 183.105 54.01V56.01C189.173 56.01 193.105 52.3745 193.105 47.81H191.105ZM51.59 92L52.5341 91.6703L52.3 91H51.59V92ZM33.5 92V91H32.7891L32.5555 91.6715L33.5 92ZM11.9 154.1L10.9555 153.771L10.9 153.931V154.1H11.9ZM11.9 155H10.9V156H11.9V155ZM26.84 155V156H27.5782L27.7956 155.295L26.84 155ZM30.53 143.03V142.03H29.7918L29.5744 142.735L30.53 143.03ZM53.93 143.03L54.8856 142.735L54.6682 142.03H53.93V143.03ZM57.62 155L56.6644 155.295L56.8818 156H57.62V155ZM73.28 155V156H74.28V155H73.28ZM73.28 154.1H74.28V153.93L74.2241 153.77L73.28 154.1ZM34.4 130.61L33.4455 130.312L33.0398 131.61H34.4V130.61ZM42.05 106.13V105.13H41.3148L41.0955 105.832L42.05 106.13ZM42.41 106.13L43.3645 105.832L43.1452 105.13H42.41V106.13ZM50.06 130.61V131.61H51.4202L51.0145 130.312L50.06 130.61ZM51.59 91H33.5V93H51.59V91ZM32.5555 91.6715L10.9555 153.771L12.8445 154.429L34.4445 92.3285L32.5555 91.6715ZM10.9 154.1V155H12.9V154.1H10.9ZM11.9 156H26.84V154H11.9V156ZM27.7956 155.295L31.4856 143.325L29.5744 142.735L25.8844 154.705L27.7956 155.295ZM30.53 144.03H53.93V142.03H30.53V144.03ZM52.9744 143.325L56.6644 155.295L58.5756 154.705L54.8856 142.735L52.9744 143.325ZM57.62 156H73.28V154H57.62V156ZM74.28 155V154.1H72.28V155H74.28ZM74.2241 153.77L52.5341 91.6703L50.6459 92.3297L72.3359 154.43L74.2241 153.77ZM35.3545 130.908L43.0045 106.428L41.0955 105.832L33.4455 130.312L35.3545 130.908ZM42.05 107.13H42.41V105.13H42.05V107.13ZM41.4555 106.428L49.1055 130.908L51.0145 130.312L43.3645 105.832L41.4555 106.428ZM50.06 129.61H34.4V131.61H50.06V129.61ZM78.3782 155H77.3782V156H78.3782V155ZM92.2382 155V156H93.2382V155H92.2382ZM108.708 155H107.708V156H108.708V155ZM122.568 155V156H123.568V155H122.568ZM92.2382 112.43V113.43H92.6996L92.999 113.079L92.2382 112.43ZM91.8782 112.43L90.9058 112.663L91.0898 113.43H91.8782V112.43ZM90.7982 107.93L91.7706 107.697L91.5866 106.93H90.7982V107.93ZM78.3782 107.93V106.93H77.3782V107.93H78.3782ZM78.3782 156H92.2382V154H78.3782V156ZM93.2382 155V128.9H91.2382V155H93.2382ZM93.2382 128.9C93.2382 126.28 94.0665 124.246 95.3793 122.875C96.6902 121.506 98.557 120.72 100.788 120.72V118.72C98.0694 118.72 95.6612 119.689 93.9347 121.492C92.21 123.294 91.2382 125.85 91.2382 128.9H93.2382ZM100.788 120.72C103.332 120.72 105 121.464 106.053 122.672C107.128 123.905 107.708 125.79 107.708 128.36H109.708C109.708 125.53 109.074 123.095 107.561 121.358C106.026 119.596 103.734 118.72 100.788 118.72V120.72ZM107.708 128.36V155H109.708V128.36H107.708ZM108.708 156H122.568V154H108.708V156ZM123.568 155V124.04H121.568V155H123.568ZM123.568 124.04C123.568 118.631 121.728 114.127 118.446 110.977C115.168 107.832 110.539 106.12 105.108 106.12V108.12C110.118 108.12 114.219 109.693 117.061 112.42C119.898 115.143 121.568 119.099 121.568 124.04H123.568ZM105.108 106.12C98.7164 106.12 94.2906 108.483 91.4774 111.781L92.999 113.079C95.4058 110.257 99.26 108.12 105.108 108.12V106.12ZM92.2382 111.43H91.8782V113.43H92.2382V111.43ZM92.8506 112.197L91.7706 107.697L89.8258 108.163L90.9058 112.663L92.8506 112.197ZM90.7982 106.93H78.3782V108.93H90.7982V106.93ZM77.3782 107.93V155H79.3782V107.93H77.3782ZM157.178 150.77V149.77H156.726L156.427 150.11L157.178 150.77ZM157.538 150.77L158.512 150.542L158.331 149.77H157.538V150.77ZM158.528 155L157.554 155.228L157.735 156H158.528V155ZM170.948 155V156H171.948V155H170.948ZM130.088 123.5H129.088V124.5H130.088V123.5ZM143.048 123.5V124.5H144.048V123.5H143.048ZM157.088 126.56V127.56H158.088V126.56H157.088ZM157.088 135.83H158.088V134.83H157.088V135.83ZM144.578 156.81C150.681 156.81 155.107 154.641 157.929 151.43L156.427 150.11C154.029 152.839 150.175 154.81 144.578 154.81V156.81ZM157.178 151.77H157.538V149.77H157.178V151.77ZM156.564 150.998L157.554 155.228L159.502 154.772L158.512 150.542L156.564 150.998ZM158.528 156H170.948V154H158.528V156ZM171.948 155V124.04H169.948V155H171.948ZM171.948 124.04C171.948 118.854 169.893 114.34 166.116 111.138C162.352 107.948 156.952 106.12 150.338 106.12V108.12C156.594 108.12 161.499 109.847 164.823 112.664C168.133 115.47 169.948 119.416 169.948 124.04H171.948ZM150.338 106.12C143.23 106.12 137.906 108.061 134.347 111.259C130.782 114.463 129.088 118.841 129.088 123.5H131.088C131.088 119.339 132.589 115.527 135.684 112.746C138.785 109.959 143.586 108.12 150.338 108.12V106.12ZM130.088 124.5H143.048V122.5H130.088V124.5ZM144.048 123.5C144.048 122.373 144.533 121.35 145.476 120.588C146.431 119.817 147.903 119.28 149.888 119.28V117.28C147.553 117.28 145.605 117.913 144.22 119.032C142.823 120.16 142.048 121.747 142.048 123.5H144.048ZM149.888 119.28C152.301 119.28 153.83 119.873 154.746 120.691C155.647 121.496 156.088 122.638 156.088 124.04H158.088C158.088 122.202 157.494 120.464 156.078 119.199C154.676 117.947 152.605 117.28 149.888 117.28V119.28ZM156.088 124.04V126.56H158.088V124.04H156.088ZM157.088 125.56H147.008V127.56H157.088V125.56ZM147.008 125.56C140.398 125.56 135.414 127.027 132.066 129.756C128.687 132.511 127.108 136.442 127.108 141.05H129.108C129.108 136.928 130.499 133.614 133.33 131.306C136.192 128.973 140.658 127.56 147.008 127.56V125.56ZM127.108 141.05C127.108 145.474 128.659 149.439 131.673 152.295C134.684 155.148 139.066 156.81 144.578 156.81V154.81C139.47 154.81 135.617 153.277 133.048 150.843C130.482 148.411 129.108 144.996 129.108 141.05H127.108ZM148.088 144.01C146.165 144.01 144.833 143.549 144.004 142.897C143.199 142.263 142.788 141.389 142.788 140.33H140.788C140.788 141.971 141.457 143.437 142.767 144.468C144.053 145.481 145.871 146.01 148.088 146.01V144.01ZM142.788 140.33C142.788 139.356 143.158 138.532 143.941 137.926C144.754 137.297 146.107 136.83 148.178 136.83V134.83C145.839 134.83 143.997 135.353 142.717 136.344C141.408 137.358 140.788 138.784 140.788 140.33H142.788ZM148.178 136.83H157.088V134.83H148.178V136.83ZM156.088 135.83V137.81H158.088V135.83H156.088ZM156.088 137.81C156.088 140.986 153.36 144.01 148.088 144.01V146.01C154.156 146.01 158.088 142.374 158.088 137.81H156.088ZM178.734 155H177.734V156H178.734V155ZM192.594 155V156H193.594V155H192.594ZM192.594 88.4H193.594V87.4H192.594V88.4ZM178.734 88.4V87.4H177.734V88.4H178.734ZM178.734 156H192.594V154H178.734V156ZM193.594 155V88.4H191.594V155H193.594ZM192.594 87.4H178.734V89.4H192.594V87.4ZM177.734 88.4V155H179.734V88.4H177.734ZM196.792 107.93V106.93H195.792V107.93H196.792ZM196.792 108.83H195.792V108.988L195.84 109.138L196.792 108.83ZM211.732 155L210.78 155.308L211.004 156H211.732V155ZM214.072 155L215.018 155.324L215.471 154H214.072V155ZM207.322 174.71L206.376 174.386L206.322 174.544V174.71H207.322ZM207.322 175.61H206.322V176.61H207.322V175.61ZM222.352 175.61V176.61H223.058L223.294 175.944L222.352 175.61ZM246.022 108.83L246.964 109.164L247.022 109.002V108.83H246.022ZM246.022 107.93H247.022V106.93H246.022V107.93ZM231.082 107.93V106.93H230.341L230.125 107.639L231.082 107.93ZM220.912 141.32V142.32H221.653L221.868 141.611L220.912 141.32ZM220.552 141.32L219.59 141.595L219.797 142.32H220.552V141.32ZM211.012 107.93L211.973 107.655L211.766 106.93H211.012V107.93ZM195.792 107.93V108.83H197.792V107.93H195.792ZM195.84 109.138L210.78 155.308L212.683 154.692L197.743 108.522L195.84 109.138ZM211.732 156H214.072V154H211.732V156ZM213.126 154.676L206.376 174.386L208.268 175.034L215.018 155.324L213.126 154.676ZM206.322 174.71V175.61H208.322V174.71H206.322ZM207.322 176.61H222.352V174.61H207.322V176.61ZM223.294 175.944L246.964 109.164L245.079 108.496L221.409 175.276L223.294 175.944ZM247.022 108.83V107.93H245.022V108.83H247.022ZM246.022 106.93H231.082V108.93H246.022V106.93ZM230.125 107.639L219.955 141.029L221.868 141.611L232.038 108.221L230.125 107.639ZM220.912 140.32H220.552V142.32H220.912V140.32ZM221.513 141.045L211.973 107.655L210.05 108.205L219.59 141.595L221.513 141.045ZM211.012 106.93H196.792V108.93H211.012V106.93ZM282.699 155V156H283.699V155H282.699ZM282.699 142.94H283.699V141.94H282.699V142.94ZM271.269 119.72V118.72H270.269V119.72H271.269ZM282.519 119.72V120.72H283.519V119.72H282.519ZM282.519 107.93H283.519V106.93H282.519V107.93ZM271.269 107.93H270.269V108.93H271.269V107.93ZM271.269 95.6H272.269V94.6H271.269V95.6ZM258.039 95.6V94.6H257.039V95.6H258.039ZM258.039 107.93V108.93H259.039V107.93H258.039ZM249.759 107.93V106.93H248.759V107.93H249.759ZM249.759 119.72H248.759V120.72H249.759V119.72ZM257.409 119.72H258.409V118.72H257.409V119.72ZM273.159 156H282.699V154H273.159V156ZM283.699 155V142.94H281.699V155H283.699ZM282.699 141.94H277.299V143.94H282.699V141.94ZM277.299 141.94C275.36 141.94 274.173 141.496 273.451 140.749C272.721 139.994 272.269 138.729 272.269 136.64H270.269C270.269 138.961 270.763 140.846 272.013 142.139C273.27 143.439 275.098 143.94 277.299 143.94V141.94ZM272.269 136.64V119.72H270.269V136.64H272.269ZM271.269 120.72H282.519V118.72H271.269V120.72ZM283.519 119.72V107.93H281.519V119.72H283.519ZM282.519 106.93H271.269V108.93H282.519V106.93ZM272.269 107.93V95.6H270.269V107.93H272.269ZM271.269 94.6H258.039V96.6H271.269V94.6ZM257.039 95.6V107.93H259.039V95.6H257.039ZM258.039 106.93H249.759V108.93H258.039V106.93ZM248.759 107.93V119.72H250.759V107.93H248.759ZM249.759 120.72H257.409V118.72H249.759V120.72ZM256.409 119.72V139.97H258.409V119.72H256.409ZM256.409 139.97C256.409 144.428 257.678 148.46 260.479 151.383C263.287 154.315 267.513 156 273.159 156V154C267.916 154 264.266 152.445 261.923 149.999C259.571 147.545 258.409 144.062 258.409 139.97H256.409ZM290.454 102.35H289.454V103.35H290.454V102.35ZM305.214 102.35V103.35H306.214V102.35H305.214ZM305.214 88.31H306.214V87.31H305.214V88.31ZM290.454 88.31V87.31H289.454V88.31H290.454ZM290.904 155H289.904V156H290.904V155ZM304.764 155V156H305.764V155H304.764ZM304.764 107.93H305.764V106.93H304.764V107.93ZM290.904 107.93V106.93H289.904V107.93H290.904ZM290.454 103.35H305.214V101.35H290.454V103.35ZM306.214 102.35V88.31H304.214V102.35H306.214ZM305.214 87.31H290.454V89.31H305.214V87.31ZM289.454 88.31V102.35H291.454V88.31H289.454ZM290.904 156H304.764V154H290.904V156ZM305.764 155V107.93H303.764V155H305.764ZM304.764 106.93H290.904V108.93H304.764V106.93ZM289.904 107.93V155H291.904V107.93H289.904ZM355.402 136.46L356.4 136.518L356.461 135.46H355.402V136.46ZM341.452 136.46V135.46H340.554L340.457 136.352L341.452 136.46ZM341.452 126.47L340.457 126.578L340.554 127.47H341.452V126.47ZM355.402 126.47V127.47H356.461L356.4 126.412L355.402 126.47ZM333.982 156.81C341.035 156.81 346.499 154.624 350.283 150.935C354.061 147.253 356.073 142.163 356.4 136.518L354.403 136.402C354.1 141.647 352.242 146.232 348.887 149.503C345.539 152.766 340.608 154.81 333.982 154.81V156.81ZM355.402 135.46H341.452V137.46H355.402V135.46ZM340.457 136.352C340.254 138.221 339.51 139.792 338.363 140.89C337.224 141.982 335.633 142.66 333.622 142.66V144.66C336.11 144.66 338.209 143.808 339.747 142.335C341.278 140.868 342.199 138.839 342.446 136.568L340.457 136.352ZM333.622 142.66C330.921 142.66 328.953 141.82 327.624 140.129C326.259 138.39 325.442 135.593 325.442 131.42H323.442C323.442 135.797 324.289 139.12 326.051 141.364C327.85 143.655 330.472 144.66 333.622 144.66V142.66ZM325.442 131.42C325.442 127.294 326.258 124.52 327.623 122.792C328.951 121.11 330.921 120.27 333.622 120.27V118.27C330.472 118.27 327.852 119.275 326.053 121.553C324.29 123.785 323.442 127.086 323.442 131.42H325.442ZM333.622 120.27C335.633 120.27 337.224 120.948 338.363 122.04C339.51 123.138 340.254 124.709 340.457 126.578L342.446 126.362C342.199 124.091 341.278 122.062 339.747 120.595C338.209 119.122 336.11 118.27 333.622 118.27V120.27ZM341.452 127.47H355.402V125.47H341.452V127.47ZM356.4 126.412C356.073 120.763 354.036 115.671 350.199 111.99C346.357 108.303 340.805 106.12 333.622 106.12V108.12C340.388 108.12 345.411 110.167 348.814 113.433C352.223 116.704 354.1 121.287 354.403 126.528L356.4 126.412ZM333.622 106.12C325.872 106.12 319.761 108.726 315.594 113.261C311.438 117.784 309.312 124.121 309.312 131.42H311.312C311.312 124.499 313.325 118.686 317.067 114.614C320.797 110.554 326.341 108.12 333.622 108.12V106.12ZM309.312 131.42C309.312 138.774 311.534 145.134 315.781 149.665C320.036 154.205 326.233 156.81 333.982 156.81V154.81C326.7 154.81 321.062 152.375 317.24 148.297C313.409 144.211 311.312 138.376 311.312 131.42H309.312ZM387.107 126.2L386.92 127.182L386.922 127.183L387.107 126.2ZM378.107 124.49L377.911 125.471L377.92 125.472L378.107 124.49ZM386.297 122.87L385.298 122.828L385.254 123.87H386.297V122.87ZM399.977 122.87V123.87H400.977V122.87H399.977ZM375.407 135.83L375.598 134.848L375.594 134.848L375.407 135.83ZM382.337 137.18L382.145 138.162L382.146 138.162L382.337 137.18ZM373.427 139.07H374.427V138.07H373.427V139.07ZM359.567 139.07V138.07H358.538L358.567 139.098L359.567 139.07ZM380.447 156.81C386.562 156.81 391.936 155.456 395.811 152.761C399.725 150.04 402.057 145.981 402.057 140.78H400.057C400.057 145.299 398.069 148.755 394.67 151.119C391.233 153.509 386.301 154.81 380.447 154.81V156.81ZM402.057 140.78C402.057 135.571 400.266 131.976 397.436 129.528C394.651 127.118 390.958 125.905 387.291 125.217L386.922 127.183C390.455 127.845 393.737 128.972 396.127 131.04C398.473 133.069 400.057 136.089 400.057 140.78H402.057ZM387.293 125.218L378.293 123.508L377.92 125.472L386.92 127.182L387.293 125.218ZM378.303 123.509C377.26 123.301 376.58 122.99 376.171 122.628C375.803 122.301 375.597 121.883 375.597 121.25H373.597C373.597 122.417 374.02 123.393 374.844 124.124C375.629 124.82 376.703 125.229 377.911 125.471L378.303 123.509ZM375.597 121.25C375.597 120.782 375.854 120.258 376.586 119.805C377.329 119.345 378.503 119.01 380.087 119.01V117.01C378.25 117.01 376.68 117.395 375.533 118.105C374.375 118.822 373.597 119.918 373.597 121.25H375.597ZM380.087 119.01C382.233 119.01 383.536 119.625 384.286 120.349C385.042 121.08 385.332 122.01 385.298 122.828L387.296 122.912C387.352 121.57 386.876 120.07 385.675 118.911C384.468 117.745 382.621 117.01 380.087 117.01V119.01ZM386.297 123.87H399.977V121.87H386.297V123.87ZM400.977 122.87C400.977 118.206 398.998 113.99 395.401 110.957C391.813 107.93 386.665 106.12 380.357 106.12V108.12C386.288 108.12 390.951 109.82 394.112 112.486C397.265 115.145 398.977 118.804 398.977 122.87H400.977ZM380.357 106.12C373.899 106.12 368.826 107.734 365.344 110.436C361.845 113.151 360.007 116.926 360.007 121.07H362.007C362.007 117.564 363.544 114.364 366.57 112.016C369.612 109.656 374.215 108.12 380.357 108.12V106.12ZM360.007 121.07C360.007 126.071 361.832 129.679 364.712 132.206C367.555 134.699 371.351 136.076 375.22 136.812L375.594 134.848C371.902 134.144 368.498 132.866 366.031 130.702C363.602 128.571 362.007 125.519 362.007 121.07H360.007ZM375.215 136.812L382.145 138.162L382.528 136.198L375.598 134.848L375.215 136.812ZM382.146 138.162C383.732 138.47 384.74 138.842 385.34 139.288C385.864 139.677 386.107 140.139 386.107 140.87H388.107C388.107 139.531 387.584 138.463 386.533 137.682C385.558 136.958 384.181 136.52 382.528 136.198L382.146 138.162ZM386.107 140.87C386.107 141.286 385.902 141.841 385.104 142.339C384.276 142.855 382.82 143.29 380.447 143.29V145.29C383.024 145.29 384.898 144.825 386.162 144.036C387.457 143.229 388.107 142.074 388.107 140.87H386.107ZM380.447 143.29C378.143 143.29 376.642 142.684 375.733 141.901C374.831 141.124 374.427 140.102 374.427 139.07H372.427C372.427 140.648 373.058 142.236 374.428 143.416C375.791 144.591 377.8 145.29 380.447 145.29V143.29ZM373.427 138.07H359.567V140.07H373.427V138.07ZM358.567 139.098C358.708 144.114 360.334 148.59 363.942 151.799C367.538 154.996 372.962 156.81 380.447 156.81V154.81C373.262 154.81 368.38 153.069 365.271 150.304C362.175 147.55 360.696 143.656 360.566 139.042L358.567 139.098Z" fill="#281AF0" fill-opacity="0.6"/>
</g>
<defs>
<filter id="filter0_ddddd_251_58832" x="0.899902" y="0" width="411.157" height="213.61" filterUnits="userSpaceOnUse" color-interpolation-filters="sRGB">
<feFlood flood-opacity="0" result="BackgroundImageFix"/>
<feColorMatrix in="SourceAlpha" type="matrix" values="0 0 0 0 0 0 0 0 0 0 0 0 0 0 0 0 0 0 127 0" result="hardAlpha"/>
<feOffset/>
<feColorMatrix type="matrix" values="0 0 0 0 0.156863 0 0 0 0 0.105882 0 0 0 0 0.941176 0 0 0 0.04 0"/>
<feBlend mode="normal" in2="BackgroundImageFix" result="effect1_dropShadow_251_58832"/>
<feColorMatrix in="SourceAlpha" type="matrix" values="0 0 0 0 0 0 0 0 0 0 0 0 0 0 0 0 0 0 127 0" result="hardAlpha"/>
<feOffset dy="2"/>
<feGaussianBlur stdDeviation="2"/>
<feColorMatrix type="matrix" values="0 0 0 0 0.156863 0 0 0 0 0.105882 0 0 0 0 0.941176 0 0 0 0.04 0"/>
<feBlend mode="normal" in2="effect1_dropShadow_251_58832" result="effect2_dropShadow_251_58832"/>
<feColorMatrix in="SourceAlpha" type="matrix" values="0 0 0 0 0 0 0 0 0 0 0 0 0 0 0 0 0 0 127 0" result="hardAlpha"/>
<feOffset dy="7"/>
<feGaussianBlur stdDeviation="3.5"/>
<feColorMatrix type="matrix" values="0 0 0 0 0.156863 0 0 0 0 0.105882 0 0 0 0 0.941176 0 0 0 0.04 0"/>
<feBlend mode="normal" in2="effect2_dropShadow_251_58832" result="effect3_dropShadow_251_58832"/>
<feColorMatrix in="SourceAlpha" type="matrix" values="0 0 0 0 0 0 0 0 0 0 0 0 0 0 0 0 0 0 127 0" result="hardAlpha"/>
<feOffset dy="15"/>
<feGaussianBlur stdDeviation="4.5"/>
<feColorMatrix type="matrix" values="0 0 0 0 0.156863 0 0 0 0 0.105882 0 0 0 0 0.941176 0 0 0 0.02 0"/>
<feBlend mode="normal" in2="effect3_dropShadow_251_58832" result="effect4_dropShadow_251_58832"/>
<feColorMatrix in="SourceAlpha" type="matrix" values="0 0 0 0 0 0 0 0 0 0 0 0 0 0 0 0 0 0 127 0" result="hardAlpha"/>
<feOffset dy="27"/>
<feGaussianBlur stdDeviation="5.5"/>
<feColorMatrix type="matrix" values="0 0 0 0 0.156863 0 0 0 0 0.105882 0 0 0 0 0.941176 0 0 0 0.01 0"/>
<feBlend mode="normal" in2="effect4_dropShadow_251_58832" result="effect5_dropShadow_251_58832"/>
<feBlend mode="normal" in="SourceGraphic" in2="effect5_dropShadow_251_58832" result="shape"/>
</filter>
<linearGradient id="paint0_linear_251_58832" x1="237" y1="-12" x2="237" y2="168" gradientUnits="userSpaceOnUse">
<stop stop-color="#FBFAFF"/>
<stop offset="0.259788" stop-color="white"/>
<stop offset="0.871399" stop-color="#EFEFFF"/>
<stop offset="1" stop-color="#F5F3FD"/>
</linearGradient>
</defs>
</svg>
