<svg width="407" height="108" viewBox="0 0 407 108" fill="none" xmlns="http://www.w3.org/2000/svg">
<g filter="url(#filter0_ddddd_251_58848)">
<path d="M51.59 6H33.5L11.9 68.1V69H26.84L30.53 57.03H53.93L57.62 69H73.28V68.1L51.59 6ZM34.4 44.61L42.05 20.13H42.41L50.06 44.61H34.4ZM80.1782 69H94.3982V6H80.1782V69ZM107.57 48.84H135.11V36.42H107.57V48.84ZM163.308 69.81C169.968 69.81 173.568 67.2 175.818 64.5H176.178L177.618 69H190.038V2.4H176.178V26.43H175.818C173.568 23.73 169.968 21.12 163.308 21.12C151.428 21.12 144.228 31.38 144.228 45.42C144.228 59.55 151.428 69.81 163.308 69.81ZM167.538 57.66C160.698 57.66 158.268 51.99 158.268 45.42C158.268 38.85 160.518 33.27 167.538 33.27C174.558 33.27 176.808 38.85 176.808 45.42C176.808 51.99 174.378 57.66 167.538 57.66ZM197.843 69H210.803V45.78C210.803 38.22 215.033 33.81 221.603 33.81H226.103V21.12H222.863C216.833 21.12 212.873 24.63 210.803 28.77H210.443L209.363 21.93H197.843V69ZM232.058 16.35H246.818V2.30999H232.058V16.35ZM232.508 69H246.368V21.93H232.508V69ZM265.506 69H283.236L297.996 22.83V21.93H283.956L274.686 55.95H274.326L264.786 21.93H250.566V22.83L265.506 69ZM322.372 69.81C335.242 69.81 342.712 62.34 343.972 53.88H330.562C329.752 56.04 327.502 58.56 322.372 58.56C316.072 58.56 313.282 54.69 313.192 49.2H344.602V44.07C344.602 31.29 336.502 21.12 322.102 21.12C306.802 21.12 299.062 32.19 299.062 45.51C299.062 59.01 307.522 69.81 322.372 69.81ZM313.282 40.47C313.552 35.97 316.162 32.46 322.102 32.46C327.592 32.46 330.202 35.97 330.472 40.47H313.282ZM351.006 69H364.866V42.9C364.866 37.23 368.466 33.72 373.416 33.72C378.906 33.72 381.336 36.96 381.336 42.36V69H395.196V38.04C395.196 27.69 388.176 21.12 377.736 21.12C371.616 21.12 367.476 23.37 364.866 26.43H364.506L363.426 21.93H351.006V69Z" fill="url(#paint0_linear_251_58848)"/>
<path d="M51.59 6L52.5341 5.67025L52.3 5H51.59V6ZM33.5 6V5H32.7891L32.5555 5.67148L33.5 6ZM11.9 68.1L10.9555 67.7715L10.9 67.9311V68.1H11.9ZM11.9 69H10.9V70H11.9V69ZM26.84 69V70H27.5782L27.7956 69.2946L26.84 69ZM30.53 57.03V56.03H29.7918L29.5744 56.7354L30.53 57.03ZM53.93 57.03L54.8856 56.7354L54.6682 56.03H53.93V57.03ZM57.62 69L56.6644 69.2946L56.8818 70H57.62V69ZM73.28 69V70H74.28V69H73.28ZM73.28 68.1H74.28V67.9304L74.2241 67.7703L73.28 68.1ZM34.4 44.61L33.4455 44.3117L33.0398 45.61H34.4V44.61ZM42.05 20.13V19.13H41.3148L41.0955 19.8317L42.05 20.13ZM42.41 20.13L43.3645 19.8317L43.1452 19.13H42.41V20.13ZM50.06 44.61V45.61H51.4202L51.0145 44.3117L50.06 44.61ZM51.59 5H33.5V7H51.59V5ZM32.5555 5.67148L10.9555 67.7715L12.8445 68.4285L34.4445 6.32852L32.5555 5.67148ZM10.9 68.1V69H12.9V68.1H10.9ZM11.9 70H26.84V68H11.9V70ZM27.7956 69.2946L31.4856 57.3246L29.5744 56.7354L25.8844 68.7054L27.7956 69.2946ZM30.53 58.03H53.93V56.03H30.53V58.03ZM52.9744 57.3246L56.6644 69.2946L58.5756 68.7054L54.8856 56.7354L52.9744 57.3246ZM57.62 70H73.28V68H57.62V70ZM74.28 69V68.1H72.28V69H74.28ZM74.2241 67.7703L52.5341 5.67025L50.6459 6.32974L72.3359 68.4297L74.2241 67.7703ZM35.3545 44.9083L43.0045 20.4283L41.0955 19.8317L33.4455 44.3117L35.3545 44.9083ZM42.05 21.13H42.41V19.13H42.05V21.13ZM41.4555 20.4283L49.1055 44.9083L51.0145 44.3117L43.3645 19.8317L41.4555 20.4283ZM50.06 43.61H34.4V45.61H50.06V43.61ZM80.1782 69H79.1782V70H80.1782V69ZM94.3982 69V70H95.3982V69H94.3982ZM94.3982 6H95.3982V5H94.3982V6ZM80.1782 6V5H79.1782V6H80.1782ZM80.1782 70H94.3982V68H80.1782V70ZM95.3982 69V6H93.3982V69H95.3982ZM94.3982 5H80.1782V7H94.3982V5ZM79.1782 6V69H81.1782V6H79.1782ZM107.57 48.84H106.57V49.84H107.57V48.84ZM135.11 48.84V49.84H136.11V48.84H135.11ZM135.11 36.42H136.11V35.42H135.11V36.42ZM107.57 36.42V35.42H106.57V36.42H107.57ZM107.57 49.84H135.11V47.84H107.57V49.84ZM136.11 48.84V36.42H134.11V48.84H136.11ZM135.11 35.42H107.57V37.42H135.11V35.42ZM106.57 36.42V48.84H108.57V36.42H106.57ZM175.818 64.5V63.5H175.35L175.05 63.8598L175.818 64.5ZM176.178 64.5L177.131 64.1952L176.908 63.5H176.178V64.5ZM177.618 69L176.666 69.3048L176.888 70H177.618V69ZM190.038 69V70H191.038V69H190.038ZM190.038 2.4H191.038V1.4H190.038V2.4ZM176.178 2.4V1.4H175.178V2.4H176.178ZM176.178 26.43V27.43H177.178V26.43H176.178ZM175.818 26.43L175.05 27.0702L175.35 27.43H175.818V26.43ZM163.308 70.81C170.292 70.81 174.165 68.0464 176.587 65.1402L175.05 63.8598C172.972 66.3536 169.644 68.81 163.308 68.81V70.81ZM175.818 65.5H176.178V63.5H175.818V65.5ZM175.226 64.8048L176.666 69.3048L178.571 68.6952L177.131 64.1952L175.226 64.8048ZM177.618 70H190.038V68H177.618V70ZM191.038 69V2.4H189.038V69H191.038ZM190.038 1.4H176.178V3.4H190.038V1.4ZM175.178 2.4V26.43H177.178V2.4H175.178ZM176.178 25.43H175.818V27.43H176.178V25.43ZM176.587 25.7898C174.165 22.8836 170.292 20.12 163.308 20.12V22.12C169.644 22.12 172.972 24.5764 175.05 27.0702L176.587 25.7898ZM163.308 20.12C157.047 20.12 151.986 22.8384 148.517 27.3997C145.068 31.9358 143.228 38.2409 143.228 45.42H145.228C145.228 38.5591 146.989 32.7142 150.109 28.6103C153.211 24.5316 157.69 22.12 163.308 22.12V20.12ZM143.228 45.42C143.228 52.6429 145.067 58.9703 148.517 63.518C151.985 68.0914 157.047 70.81 163.308 70.81V68.81C157.69 68.81 153.212 66.3986 150.11 62.3095C146.989 58.1947 145.228 52.3271 145.228 45.42H143.228ZM167.538 56.66C164.446 56.66 162.448 55.405 161.176 53.4568C159.862 51.4466 159.268 48.6081 159.268 45.42H157.268C157.268 48.8019 157.889 52.0834 159.501 54.5507C161.154 57.08 163.79 58.66 167.538 58.66V56.66ZM159.268 45.42C159.268 42.2196 159.822 39.4082 161.109 37.4261C162.352 35.5137 164.342 34.27 167.538 34.27V32.27C163.714 32.27 161.07 33.8163 159.432 36.3364C157.84 38.7868 157.268 42.0504 157.268 45.42H159.268ZM167.538 34.27C170.734 34.27 172.725 35.5137 173.967 37.4261C175.255 39.4082 175.808 42.2196 175.808 45.42H177.808C177.808 42.0504 177.237 38.7868 175.644 36.3364C174.007 33.8163 171.362 32.27 167.538 32.27V34.27ZM175.808 45.42C175.808 48.6081 175.214 51.4466 173.901 53.4568C172.629 55.405 170.63 56.66 167.538 56.66V58.66C171.286 58.66 173.923 57.08 175.576 54.5507C177.187 52.0834 177.808 48.8019 177.808 45.42H175.808ZM197.843 69H196.843V70H197.843V69ZM210.803 69V70H211.803V69H210.803ZM226.103 33.81V34.81H227.103V33.81H226.103ZM226.103 21.12H227.103V20.12H226.103V21.12ZM210.803 28.77V29.77H211.421L211.697 29.2172L210.803 28.77ZM210.443 28.77L209.455 28.926L209.588 29.77H210.443V28.77ZM209.363 21.93L210.351 21.774L210.217 20.93H209.363V21.93ZM197.843 21.93V20.93H196.843V21.93H197.843ZM197.843 70H210.803V68H197.843V70ZM211.803 69V45.78H209.803V69H211.803ZM211.803 45.78C211.803 42.182 212.808 39.4543 214.476 37.6361C216.135 35.8276 218.551 34.81 221.603 34.81V32.81C218.085 32.81 215.1 33.9974 213.002 36.2839C210.913 38.5607 209.803 41.818 209.803 45.78H211.803ZM221.603 34.81H226.103V32.81H221.603V34.81ZM227.103 33.81V21.12H225.103V33.81H227.103ZM226.103 20.12H222.863V22.12H226.103V20.12ZM222.863 20.12C216.372 20.12 212.108 23.9243 209.908 28.3228L211.697 29.2172C213.638 25.3357 217.294 22.12 222.863 22.12V20.12ZM210.803 27.77H210.443V29.77H210.803V27.77ZM211.431 28.614L210.351 21.774L208.375 22.086L209.455 28.926L211.431 28.614ZM209.363 20.93H197.843V22.93H209.363V20.93ZM196.843 21.93V69H198.843V21.93H196.843ZM232.058 16.35H231.058V17.35H232.058V16.35ZM246.818 16.35V17.35H247.818V16.35H246.818ZM246.818 2.30999H247.818V1.30999H246.818V2.30999ZM232.058 2.30999V1.30999H231.058V2.30999H232.058ZM232.508 69H231.508V70H232.508V69ZM246.368 69V70H247.368V69H246.368ZM246.368 21.93H247.368V20.93H246.368V21.93ZM232.508 21.93V20.93H231.508V21.93H232.508ZM232.058 17.35H246.818V15.35H232.058V17.35ZM247.818 16.35V2.30999H245.818V16.35H247.818ZM246.818 1.30999H232.058V3.30999H246.818V1.30999ZM231.058 2.30999V16.35H233.058V2.30999H231.058ZM232.508 70H246.368V68H232.508V70ZM247.368 69V21.93H245.368V69H247.368ZM246.368 20.93H232.508V22.93H246.368V20.93ZM231.508 21.93V69H233.508V21.93H231.508ZM265.506 69L264.554 69.3079L264.778 70H265.506V69ZM283.236 69V70H283.966L284.188 69.3045L283.236 69ZM297.996 22.83L298.948 23.1345L298.996 22.986V22.83H297.996ZM297.996 21.93H298.996V20.93H297.996V21.93ZM283.956 21.93V20.93H283.192L282.991 21.6671L283.956 21.93ZM274.686 55.95V56.95H275.45L275.651 56.2129L274.686 55.95ZM274.326 55.95L273.363 56.22L273.568 56.95H274.326V55.95ZM264.786 21.93L265.749 21.66L265.544 20.93H264.786V21.93ZM250.566 21.93V20.93H249.566V21.93H250.566ZM250.566 22.83H249.566V22.9878L249.614 23.1379L250.566 22.83ZM265.506 70H283.236V68H265.506V70ZM284.188 69.3045L298.948 23.1345L297.043 22.5255L282.283 68.6955L284.188 69.3045ZM298.996 22.83V21.93H296.996V22.83H298.996ZM297.996 20.93H283.956V22.93H297.996V20.93ZM282.991 21.6671L273.721 55.6871L275.651 56.2129L284.921 22.1929L282.991 21.6671ZM274.686 54.95H274.326V56.95H274.686V54.95ZM275.289 55.68L265.749 21.66L263.823 22.2L273.363 56.22L275.289 55.68ZM264.786 20.93H250.566V22.93H264.786V20.93ZM249.566 21.93V22.83H251.566V21.93H249.566ZM249.614 23.1379L264.554 69.3079L266.457 68.6921L251.517 22.5221L249.614 23.1379ZM343.972 53.88L344.961 54.0273L345.132 52.88H343.972V53.88ZM330.562 53.88V52.88H329.869L329.625 53.5289L330.562 53.88ZM313.192 49.2V48.2H312.175L312.192 49.2164L313.192 49.2ZM344.602 49.2V50.2H345.602V49.2H344.602ZM313.282 40.47L312.283 40.4101L312.22 41.47H313.282V40.47ZM330.472 40.47V41.47H331.533L331.47 40.4101L330.472 40.47ZM322.372 70.81C335.676 70.81 343.619 63.0349 344.961 54.0273L342.982 53.7327C341.804 61.6451 334.807 68.81 322.372 68.81V70.81ZM343.972 52.88H330.562V54.88H343.972V52.88ZM329.625 53.5289C329.282 54.4437 328.634 55.4377 327.519 56.2068C326.407 56.9737 324.768 57.56 322.372 57.56V59.56C325.105 59.56 327.156 58.8863 328.654 57.8532C330.149 56.8223 331.031 55.4763 331.498 54.2311L329.625 53.5289ZM322.372 57.56C319.434 57.56 317.459 56.6654 316.194 55.2678C314.912 53.8508 314.234 51.7763 314.191 49.1836L312.192 49.2164C312.239 52.1137 313.001 54.7192 314.711 56.6097C316.439 58.5196 319.009 59.56 322.372 59.56V57.56ZM313.192 50.2H344.602V48.2H313.192V50.2ZM345.602 49.2V44.07H343.602V49.2H345.602ZM345.602 44.07C345.602 37.4719 343.509 31.4783 339.486 27.1239C335.453 22.7583 329.551 20.12 322.102 20.12V22.12C329.052 22.12 334.4 24.5667 338.017 28.4811C341.644 32.4067 343.602 37.8881 343.602 44.07H345.602ZM322.102 20.12C314.191 20.12 308.144 22.9923 304.089 27.6645C300.05 32.3171 298.062 38.6651 298.062 45.51H300.062C300.062 39.0349 301.943 33.1879 305.599 28.9755C309.239 24.7827 314.712 22.12 322.102 22.12V20.12ZM298.062 45.51C298.062 52.4647 300.242 58.7924 304.406 63.3936C308.583 68.0076 314.688 70.81 322.372 70.81V68.81C315.205 68.81 309.655 66.2124 305.889 62.0514C302.111 57.8776 300.062 52.0553 300.062 45.51H298.062ZM314.28 40.5299C314.405 38.4492 315.063 36.7033 316.275 35.4818C317.476 34.2717 319.335 33.46 322.102 33.46V31.46C318.928 31.46 316.512 32.4033 314.855 34.0732C313.21 35.7317 312.428 37.9908 312.283 40.4101L314.28 40.5299ZM322.102 33.46C324.621 33.46 326.367 34.2576 327.52 35.4674C328.688 36.6932 329.348 38.4483 329.473 40.5299L331.47 40.4101C331.325 37.9917 330.545 35.7418 328.968 34.0876C327.376 32.4174 325.072 31.46 322.102 31.46V33.46ZM330.472 39.47H313.282V41.47H330.472V39.47ZM351.006 69H350.006V70H351.006V69ZM364.866 69V70H365.866V69H364.866ZM381.336 69H380.336V70H381.336V69ZM395.196 69V70H396.196V69H395.196ZM364.866 26.43V27.43H365.328L365.627 27.0789L364.866 26.43ZM364.506 26.43L363.534 26.6634L363.718 27.43H364.506V26.43ZM363.426 21.93L364.399 21.6966L364.215 20.93H363.426V21.93ZM351.006 21.93V20.93H350.006V21.93H351.006ZM351.006 70H364.866V68H351.006V70ZM365.866 69V42.9H363.866V69H365.866ZM365.866 42.9C365.866 40.2796 366.694 38.2465 368.007 36.8753C369.318 35.5061 371.185 34.72 373.416 34.72V32.72C370.697 32.72 368.289 33.6889 366.563 35.4922C364.838 37.2935 363.866 39.8504 363.866 42.9H365.866ZM373.416 34.72C375.96 34.72 377.628 35.4636 378.681 36.6719C379.756 37.9054 380.336 39.7901 380.336 42.36H382.336C382.336 39.5299 381.702 37.0946 380.189 35.3581C378.654 33.5964 376.362 32.72 373.416 32.72V34.72ZM380.336 42.36V69H382.336V42.36H380.336ZM381.336 70H395.196V68H381.336V70ZM396.196 69V38.04H394.196V69H396.196ZM396.196 38.04C396.196 32.6308 394.356 28.1269 391.073 24.9772C387.796 21.8319 383.167 20.12 377.736 20.12V22.12C382.745 22.12 386.847 23.6931 389.689 26.4203C392.526 29.1431 394.196 33.0992 394.196 38.04H396.196ZM377.736 20.12C371.344 20.12 366.918 22.4828 364.105 25.7811L365.627 27.0789C368.034 24.2572 371.888 22.12 377.736 22.12V20.12ZM364.866 25.43H364.506V27.43H364.866V25.43ZM365.479 26.1966L364.399 21.6966L362.454 22.1634L363.534 26.6634L365.479 26.1966ZM363.426 20.93H351.006V22.93H363.426V20.93ZM350.006 21.93V69H352.006V21.93H350.006Z" fill="#281AF0" fill-opacity="0.6"/>
</g>
<defs>
<filter id="filter0_ddddd_251_58848" x="0.899902" y="0.309998" width="405.296" height="107.5" filterUnits="userSpaceOnUse" color-interpolation-filters="sRGB">
<feFlood flood-opacity="0" result="BackgroundImageFix"/>
<feColorMatrix in="SourceAlpha" type="matrix" values="0 0 0 0 0 0 0 0 0 0 0 0 0 0 0 0 0 0 127 0" result="hardAlpha"/>
<feOffset/>
<feColorMatrix type="matrix" values="0 0 0 0 0.156863 0 0 0 0 0.105882 0 0 0 0 0.941176 0 0 0 0.04 0"/>
<feBlend mode="normal" in2="BackgroundImageFix" result="effect1_dropShadow_251_58848"/>
<feColorMatrix in="SourceAlpha" type="matrix" values="0 0 0 0 0 0 0 0 0 0 0 0 0 0 0 0 0 0 127 0" result="hardAlpha"/>
<feOffset dy="2"/>
<feGaussianBlur stdDeviation="2"/>
<feColorMatrix type="matrix" values="0 0 0 0 0.156863 0 0 0 0 0.105882 0 0 0 0 0.941176 0 0 0 0.04 0"/>
<feBlend mode="normal" in2="effect1_dropShadow_251_58848" result="effect2_dropShadow_251_58848"/>
<feColorMatrix in="SourceAlpha" type="matrix" values="0 0 0 0 0 0 0 0 0 0 0 0 0 0 0 0 0 0 127 0" result="hardAlpha"/>
<feOffset dy="7"/>
<feGaussianBlur stdDeviation="3.5"/>
<feColorMatrix type="matrix" values="0 0 0 0 0.156863 0 0 0 0 0.105882 0 0 0 0 0.941176 0 0 0 0.04 0"/>
<feBlend mode="normal" in2="effect2_dropShadow_251_58848" result="effect3_dropShadow_251_58848"/>
<feColorMatrix in="SourceAlpha" type="matrix" values="0 0 0 0 0 0 0 0 0 0 0 0 0 0 0 0 0 0 127 0" result="hardAlpha"/>
<feOffset dy="15"/>
<feGaussianBlur stdDeviation="4.5"/>
<feColorMatrix type="matrix" values="0 0 0 0 0.156863 0 0 0 0 0.105882 0 0 0 0 0.941176 0 0 0 0.02 0"/>
<feBlend mode="normal" in2="effect3_dropShadow_251_58848" result="effect4_dropShadow_251_58848"/>
<feColorMatrix in="SourceAlpha" type="matrix" values="0 0 0 0 0 0 0 0 0 0 0 0 0 0 0 0 0 0 127 0" result="hardAlpha"/>
<feOffset dy="27"/>
<feGaussianBlur stdDeviation="5.5"/>
<feColorMatrix type="matrix" values="0 0 0 0 0.156863 0 0 0 0 0.105882 0 0 0 0 0.941176 0 0 0 0.01 0"/>
<feBlend mode="normal" in2="effect4_dropShadow_251_58848" result="effect5_dropShadow_251_58848"/>
<feBlend mode="normal" in="SourceGraphic" in2="effect5_dropShadow_251_58848" result="shape"/>
</filter>
<linearGradient id="paint0_linear_251_58848" x1="205" y1="-8" x2="205" y2="82" gradientUnits="userSpaceOnUse">
<stop stop-color="#FBFAFF"/>
<stop offset="0.259788" stop-color="white"/>
<stop offset="0.871399" stop-color="#EFEFFF"/>
<stop offset="1" stop-color="#F5F3FD"/>
</linearGradient>
</defs>
</svg>
