<svg width="280" height="108" viewBox="0 0 280 108" fill="none" xmlns="http://www.w3.org/2000/svg">
<g filter="url(#filter0_ddddd_251_58816)">
<path d="M26.3 69H44.57L53.66 27.33H54.02L62.84 69H81.11L95.51 6.89999V6H80.48L72.2 49.47H71.84L61.58 6H45.92L35.84 49.47H35.48L27.11 6H11.9V6.89999L26.3 69ZM111.231 69.81C117.081 69.81 121.221 67.74 123.831 64.77H124.191L125.181 69H137.601V38.04C137.601 28.23 129.861 21.12 116.991 21.12C103.131 21.12 96.741 28.68 96.741 37.5H109.701C109.701 34.62 112.221 32.28 116.541 32.28C121.671 32.28 123.741 34.8 123.741 38.04V40.56H113.661C100.701 40.56 94.761 46.32 94.761 55.05C94.761 63.42 100.611 69.81 111.231 69.81ZM114.741 59.01C110.601 59.01 108.441 57.03 108.441 54.33C108.441 51.81 110.421 49.83 114.831 49.83H123.741V51.81C123.741 55.68 120.411 59.01 114.741 59.01ZM145.387 69H159.247V2.4H145.387V69ZM167.045 69H180.905V2.4H167.045V69ZM209.762 69.81C222.632 69.81 230.102 62.34 231.362 53.88H217.952C217.142 56.04 214.892 58.56 209.762 58.56C203.462 58.56 200.672 54.69 200.582 49.2H231.992V44.07C231.992 31.29 223.892 21.12 209.492 21.12C194.192 21.12 186.452 32.19 186.452 45.51C186.452 59.01 194.912 69.81 209.762 69.81ZM200.672 40.47C200.942 35.97 203.552 32.46 209.492 32.46C214.982 32.46 217.592 35.97 217.862 40.47H200.672ZM259.097 69H268.637V56.94H263.237C259.097 56.94 257.207 55.05 257.207 50.64V33.72H268.457V21.93H257.207V9.6H243.977V21.93H235.697V33.72H243.347V53.97C243.347 62.52 248.207 69 259.097 69Z" fill="url(#paint0_linear_251_58816)"/>
<path d="M26.3 69L25.3258 69.2259L25.5054 70H26.3V69ZM44.57 69V70H45.3754L45.547 69.2131L44.57 69ZM53.66 27.33V26.33H52.8546L52.683 27.1169L53.66 27.33ZM54.02 27.33L54.9983 27.1229L54.8305 26.33H54.02V27.33ZM62.84 69L61.8617 69.2071L62.0295 70H62.84V69ZM81.11 69V70H81.9047L82.0842 69.2259L81.11 69ZM95.51 6.89999L96.4842 7.12589L96.51 7.01442V6.89999H95.51ZM95.51 6H96.51V5H95.51V6ZM80.48 6V5H79.6525L79.4977 5.81288L80.48 6ZM72.2 49.47V50.47H73.0275L73.1823 49.6571L72.2 49.47ZM71.84 49.47L70.8667 49.6997L71.0486 50.47H71.84V49.47ZM61.58 6L62.5533 5.77028L62.3715 5H61.58V6ZM45.92 6V5H45.1254L44.9458 5.77411L45.92 6ZM35.84 49.47V50.47H36.6347L36.8142 49.6959L35.84 49.47ZM35.48 49.47L34.498 49.6591L34.6542 50.47H35.48V49.47ZM27.11 6L28.092 5.81092L27.9358 5H27.11V6ZM11.9 6V5H10.9V6H11.9ZM11.9 6.89999H10.9V7.01442L10.9258 7.12589L11.9 6.89999ZM26.3 70H44.57V68H26.3V70ZM45.547 69.2131L54.637 27.5431L52.683 27.1169L43.593 68.7869L45.547 69.2131ZM53.66 28.33H54.02V26.33H53.66V28.33ZM53.0417 27.5371L61.8617 69.2071L63.8183 68.7929L54.9983 27.1229L53.0417 27.5371ZM62.84 70H81.11V68H62.84V70ZM82.0842 69.2259L96.4842 7.12589L94.5359 6.6741L80.1358 68.7741L82.0842 69.2259ZM96.51 6.89999V6H94.51V6.89999H96.51ZM95.51 5H80.48V7H95.51V5ZM79.4977 5.81288L71.2177 49.2829L73.1823 49.6571L81.4623 6.18711L79.4977 5.81288ZM72.2 48.47H71.84V50.47H72.2V48.47ZM72.8133 49.2403L62.5533 5.77028L60.6067 6.22971L70.8667 49.6997L72.8133 49.2403ZM61.58 5H45.92V7H61.58V5ZM44.9458 5.77411L34.8658 49.2441L36.8142 49.6959L46.8942 6.22589L44.9458 5.77411ZM35.84 48.47H35.48V50.47H35.84V48.47ZM36.462 49.2809L28.092 5.81092L26.128 6.18907L34.498 49.6591L36.462 49.2809ZM27.11 5H11.9V7H27.11V5ZM10.9 6V6.89999H12.9V6H10.9ZM10.9258 7.12589L25.3258 69.2259L27.2742 68.7741L12.8742 6.6741L10.9258 7.12589ZM123.831 64.77V63.77H123.379L123.08 64.1099L123.831 64.77ZM124.191 64.77L125.165 64.5421L124.984 63.77H124.191V64.77ZM125.181 69L124.207 69.2279L124.388 70H125.181V69ZM137.601 69V70H138.601V69H137.601ZM96.741 37.5H95.741V38.5H96.741V37.5ZM109.701 37.5V38.5H110.701V37.5H109.701ZM123.741 40.56V41.56H124.741V40.56H123.741ZM123.741 49.83H124.741V48.83H123.741V49.83ZM111.231 70.81C117.334 70.81 121.76 68.6411 124.582 65.4301L123.08 64.1099C120.682 66.8389 116.828 68.81 111.231 68.81V70.81ZM123.831 65.77H124.191V63.77H123.831V65.77ZM123.217 64.9979L124.207 69.2279L126.155 68.7721L125.165 64.5421L123.217 64.9979ZM125.181 70H137.601V68H125.181V70ZM138.601 69V38.04H136.601V69H138.601ZM138.601 38.04C138.601 32.8538 136.546 28.3402 132.769 25.1384C129.005 21.9478 123.605 20.12 116.991 20.12V22.12C123.247 22.12 128.152 23.8472 131.476 26.6641C134.786 29.4698 136.601 33.4162 136.601 38.04H138.601ZM116.991 20.12C109.883 20.12 104.559 22.0606 101 25.2587C97.4347 28.4628 95.741 32.8407 95.741 37.5H97.741C97.741 33.3392 99.2423 29.5272 102.337 26.7463C105.438 23.9594 110.239 22.12 116.991 22.12V20.12ZM96.741 38.5H109.701V36.5H96.741V38.5ZM110.701 37.5C110.701 36.3725 111.186 35.3497 112.129 34.5879C113.084 33.817 114.556 33.28 116.541 33.28V31.28C114.206 31.28 112.258 31.913 110.873 33.0321C109.476 34.1603 108.701 35.7475 108.701 37.5H110.701ZM116.541 33.28C118.954 33.28 120.483 33.8727 121.399 34.6908C122.3 35.4958 122.741 36.6381 122.741 38.04H124.741C124.741 36.2019 124.147 34.4642 122.731 33.1992C121.329 31.9473 119.258 31.28 116.541 31.28V33.28ZM122.741 38.04V40.56H124.741V38.04H122.741ZM123.741 39.56H113.661V41.56H123.741V39.56ZM113.661 39.56C107.051 39.56 102.067 41.0267 98.7192 43.7562C95.3398 46.5111 93.761 50.4422 93.761 55.05H95.761C95.761 50.9278 97.1522 47.6139 99.9829 45.3063C102.845 42.9733 107.311 41.56 113.661 41.56V39.56ZM93.761 55.05C93.761 59.4742 95.3121 63.439 98.3257 66.2946C101.337 69.1483 105.719 70.81 111.231 70.81V68.81C106.123 68.81 102.27 67.2767 99.7013 64.8429C97.1349 62.411 95.761 58.9958 95.761 55.05H93.761ZM114.741 58.01C112.818 58.01 111.486 57.5493 110.657 56.8968C109.852 56.2633 109.441 55.3891 109.441 54.33H107.441C107.441 55.9709 108.11 57.4367 109.42 58.4682C110.706 59.4807 112.524 60.01 114.741 60.01V58.01ZM109.441 54.33C109.441 53.356 109.811 52.5324 110.594 51.9257C111.407 51.2965 112.76 50.83 114.831 50.83V48.83C112.492 48.83 110.65 49.3535 109.37 50.3443C108.061 51.3576 107.441 52.784 107.441 54.33H109.441ZM114.831 50.83H123.741V48.83H114.831V50.83ZM122.741 49.83V51.81H124.741V49.83H122.741ZM122.741 51.81C122.741 54.9855 120.013 58.01 114.741 58.01V60.01C120.809 60.01 124.741 56.3745 124.741 51.81H122.741ZM145.387 69H144.387V70H145.387V69ZM159.247 69V70H160.247V69H159.247ZM159.247 2.4H160.247V1.4H159.247V2.4ZM145.387 2.4V1.4H144.387V2.4H145.387ZM145.387 70H159.247V68H145.387V70ZM160.247 69V2.4H158.247V69H160.247ZM159.247 1.4H145.387V3.4H159.247V1.4ZM144.387 2.4V69H146.387V2.4H144.387ZM167.045 69H166.045V70H167.045V69ZM180.905 69V70H181.905V69H180.905ZM180.905 2.4H181.905V1.4H180.905V2.4ZM167.045 2.4V1.4H166.045V2.4H167.045ZM167.045 70H180.905V68H167.045V70ZM181.905 69V2.4H179.905V69H181.905ZM180.905 1.4H167.045V3.4H180.905V1.4ZM166.045 2.4V69H168.045V2.4H166.045ZM231.362 53.88L232.351 54.0273L232.522 52.88H231.362V53.88ZM217.952 53.88V52.88H217.259L217.016 53.5289L217.952 53.88ZM200.582 49.2V48.2H199.566L199.582 49.2164L200.582 49.2ZM231.992 49.2V50.2H232.992V49.2H231.992ZM200.672 40.47L199.674 40.4101L199.61 41.47H200.672V40.47ZM217.862 40.47V41.47H218.924L218.86 40.4101L217.862 40.47ZM209.762 70.81C223.067 70.81 231.01 63.0349 232.351 54.0273L230.373 53.7327C229.195 61.6451 222.197 68.81 209.762 68.81V70.81ZM231.362 52.88H217.952V54.88H231.362V52.88ZM217.016 53.5289C216.673 54.4437 216.025 55.4377 214.91 56.2068C213.798 56.9737 212.159 57.56 209.762 57.56V59.56C212.496 59.56 214.547 58.8863 216.045 57.8532C217.54 56.8223 218.422 55.4763 218.889 54.2311L217.016 53.5289ZM209.762 57.56C206.825 57.56 204.85 56.6654 203.585 55.2678C202.303 53.8508 201.625 51.7763 201.582 49.1836L199.582 49.2164C199.63 52.1137 200.392 54.7192 202.102 56.6097C203.83 58.5196 206.399 59.56 209.762 59.56V57.56ZM200.582 50.2H231.992V48.2H200.582V50.2ZM232.992 49.2V44.07H230.992V49.2H232.992ZM232.992 44.07C232.992 37.4719 230.9 31.4783 226.877 27.1239C222.843 22.7583 216.942 20.12 209.492 20.12V22.12C216.443 22.12 221.791 24.5667 225.408 28.4811C229.035 32.4067 230.992 37.8881 230.992 44.07H232.992ZM209.492 20.12C201.581 20.12 195.535 22.9923 191.48 27.6645C187.441 32.3171 185.452 38.6651 185.452 45.51H187.452C187.452 39.0349 189.334 33.1879 192.99 28.9755C196.629 24.7827 202.103 22.12 209.492 22.12V20.12ZM185.452 45.51C185.452 52.4647 187.633 58.7924 191.797 63.3936C195.973 68.0076 202.079 70.81 209.762 70.81V68.81C202.596 68.81 197.046 66.2124 193.28 62.0514C189.502 57.8776 187.452 52.0553 187.452 45.51H185.452ZM201.67 40.5299C201.795 38.4492 202.454 36.7033 203.666 35.4818C204.867 34.2717 206.726 33.46 209.492 33.46V31.46C206.319 31.46 203.903 32.4033 202.246 34.0732C200.601 35.7317 199.819 37.9908 199.674 40.4101L201.67 40.5299ZM209.492 33.46C212.012 33.46 213.758 34.2576 214.911 35.4674C216.079 36.6932 216.739 38.4483 216.864 40.5299L218.86 40.4101C218.715 37.9917 217.935 35.7418 216.359 34.0876C214.767 32.4174 212.463 31.46 209.492 31.46V33.46ZM217.862 39.47H200.672V41.47H217.862V39.47ZM268.637 69V70H269.637V69H268.637ZM268.637 56.94H269.637V55.94H268.637V56.94ZM257.207 33.72V32.72H256.207V33.72H257.207ZM268.457 33.72V34.72H269.457V33.72H268.457ZM268.457 21.93H269.457V20.93H268.457V21.93ZM257.207 21.93H256.207V22.93H257.207V21.93ZM257.207 9.6H258.207V8.6H257.207V9.6ZM243.977 9.6V8.6H242.977V9.6H243.977ZM243.977 21.93V22.93H244.977V21.93H243.977ZM235.697 21.93V20.93H234.697V21.93H235.697ZM235.697 33.72H234.697V34.72H235.697V33.72ZM243.347 33.72H244.347V32.72H243.347V33.72ZM259.097 70H268.637V68H259.097V70ZM269.637 69V56.94H267.637V69H269.637ZM268.637 55.94H263.237V57.94H268.637V55.94ZM263.237 55.94C261.298 55.94 260.111 55.4958 259.388 54.7486C258.658 53.9937 258.207 52.7289 258.207 50.64H256.207C256.207 52.9611 256.701 54.8463 257.951 56.1389C259.208 57.4392 261.036 57.94 263.237 57.94V55.94ZM258.207 50.64V33.72H256.207V50.64H258.207ZM257.207 34.72H268.457V32.72H257.207V34.72ZM269.457 33.72V21.93H267.457V33.72H269.457ZM268.457 20.93H257.207V22.93H268.457V20.93ZM258.207 21.93V9.6H256.207V21.93H258.207ZM257.207 8.6H243.977V10.6H257.207V8.6ZM242.977 9.6V21.93H244.977V9.6H242.977ZM243.977 20.93H235.697V22.93H243.977V20.93ZM234.697 21.93V33.72H236.697V21.93H234.697ZM235.697 34.72H243.347V32.72H235.697V34.72ZM242.347 33.72V53.97H244.347V33.72H242.347ZM242.347 53.97C242.347 58.428 243.616 62.4604 246.416 65.3831C249.225 68.3146 253.45 70 259.097 70V68C253.854 68 250.204 66.4454 247.86 63.9994C245.508 61.5446 244.347 58.062 244.347 53.97H242.347Z" fill="#281AF0" fill-opacity="0.6"/>
</g>
<defs>
<filter id="filter0_ddddd_251_58816" x="0.899902" y="0.399994" width="278.737" height="107.41" filterUnits="userSpaceOnUse" color-interpolation-filters="sRGB">
<feFlood flood-opacity="0" result="BackgroundImageFix"/>
<feColorMatrix in="SourceAlpha" type="matrix" values="0 0 0 0 0 0 0 0 0 0 0 0 0 0 0 0 0 0 127 0" result="hardAlpha"/>
<feOffset/>
<feColorMatrix type="matrix" values="0 0 0 0 0.156863 0 0 0 0 0.105882 0 0 0 0 0.941176 0 0 0 0.04 0"/>
<feBlend mode="normal" in2="BackgroundImageFix" result="effect1_dropShadow_251_58816"/>
<feColorMatrix in="SourceAlpha" type="matrix" values="0 0 0 0 0 0 0 0 0 0 0 0 0 0 0 0 0 0 127 0" result="hardAlpha"/>
<feOffset dy="2"/>
<feGaussianBlur stdDeviation="2"/>
<feColorMatrix type="matrix" values="0 0 0 0 0.156863 0 0 0 0 0.105882 0 0 0 0 0.941176 0 0 0 0.04 0"/>
<feBlend mode="normal" in2="effect1_dropShadow_251_58816" result="effect2_dropShadow_251_58816"/>
<feColorMatrix in="SourceAlpha" type="matrix" values="0 0 0 0 0 0 0 0 0 0 0 0 0 0 0 0 0 0 127 0" result="hardAlpha"/>
<feOffset dy="7"/>
<feGaussianBlur stdDeviation="3.5"/>
<feColorMatrix type="matrix" values="0 0 0 0 0.156863 0 0 0 0 0.105882 0 0 0 0 0.941176 0 0 0 0.04 0"/>
<feBlend mode="normal" in2="effect2_dropShadow_251_58816" result="effect3_dropShadow_251_58816"/>
<feColorMatrix in="SourceAlpha" type="matrix" values="0 0 0 0 0 0 0 0 0 0 0 0 0 0 0 0 0 0 127 0" result="hardAlpha"/>
<feOffset dy="15"/>
<feGaussianBlur stdDeviation="4.5"/>
<feColorMatrix type="matrix" values="0 0 0 0 0.156863 0 0 0 0 0.105882 0 0 0 0 0.941176 0 0 0 0.02 0"/>
<feBlend mode="normal" in2="effect3_dropShadow_251_58816" result="effect4_dropShadow_251_58816"/>
<feColorMatrix in="SourceAlpha" type="matrix" values="0 0 0 0 0 0 0 0 0 0 0 0 0 0 0 0 0 0 127 0" result="hardAlpha"/>
<feOffset dy="27"/>
<feGaussianBlur stdDeviation="5.5"/>
<feColorMatrix type="matrix" values="0 0 0 0 0.156863 0 0 0 0 0.105882 0 0 0 0 0.941176 0 0 0 0.01 0"/>
<feBlend mode="normal" in2="effect4_dropShadow_251_58816" result="effect5_dropShadow_251_58816"/>
<feBlend mode="normal" in="SourceGraphic" in2="effect5_dropShadow_251_58816" result="shape"/>
</filter>
<linearGradient id="paint0_linear_251_58816" x1="142" y1="-8" x2="142" y2="82" gradientUnits="userSpaceOnUse">
<stop stop-color="#FBFAFF"/>
<stop offset="0.259788" stop-color="white"/>
<stop offset="0.871399" stop-color="#EFEFFF"/>
<stop offset="1" stop-color="#F5F3FD"/>
</linearGradient>
</defs>
</svg>
