<svg width="206" height="108" viewBox="0 0 206 108" fill="none" xmlns="http://www.w3.org/2000/svg">
<g filter="url(#filter0_ddddd_251_58800)">
<path d="M11.3 69H33.08C52.79 69 65.66 55.05 65.66 37.5C65.66 18.6 51.89 6 33.08 6H11.3V69ZM24.53 56.49V18.6H32.27C44.06 18.6 51.26 24.45 51.26 37.5C51.26 50.64 44.06 56.49 32.27 56.49H24.53ZM93.614 69.81C106.484 69.81 113.954 62.34 115.214 53.88H101.804C100.994 56.04 98.744 58.56 93.614 58.56C87.314 58.56 84.524 54.69 84.434 49.2H115.844V44.07C115.844 31.29 107.744 21.12 93.344 21.12C78.044 21.12 70.304 32.19 70.304 45.51C70.304 59.01 78.764 69.81 93.614 69.81ZM84.524 40.47C84.794 35.97 87.404 32.46 93.344 32.46C98.834 32.46 101.444 35.97 101.714 40.47H84.524ZM124.049 69H138.179V44.61H166.259V32.01H138.179V18.6H169.049V6H124.049V69ZM180.019 16.35H194.779V2.30999H180.019V16.35ZM180.469 69H194.329V21.93H180.469V69Z" fill="url(#paint0_linear_251_58800)"/>
<path d="M11.3 69H10.3V70H11.3V69ZM11.3 6V5H10.3V6H11.3ZM24.53 56.49H23.53V57.49H24.53V56.49ZM24.53 18.6V17.6H23.53V18.6H24.53ZM11.3 70H33.08V68H11.3V70ZM33.08 70C53.3423 70 66.66 55.6023 66.66 37.5H64.66C64.66 54.4977 52.2377 68 33.08 68V70ZM66.66 37.5C66.66 27.7962 63.1193 19.6527 57.1131 13.938C51.1118 8.22805 42.7101 5 33.08 5V7C42.2599 7 50.1482 10.0719 55.7344 15.387C61.3157 20.6973 64.66 28.3038 64.66 37.5H66.66ZM33.08 5H11.3V7H33.08V5ZM10.3 6V69H12.3V6H10.3ZM25.53 56.49V18.6H23.53V56.49H25.53ZM24.53 19.6H32.27V17.6H24.53V19.6ZM32.27 19.6C38.0131 19.6 42.4749 21.0249 45.4994 23.8831C48.5136 26.7315 50.26 31.1555 50.26 37.5H52.26C52.26 30.7945 50.4064 25.7685 46.8731 22.4294C43.3501 19.1001 38.3169 17.6 32.27 17.6V19.6ZM50.26 37.5C50.26 43.8914 48.5125 48.3379 45.4981 51.1969C42.474 54.0652 38.0131 55.49 32.27 55.49V57.49C38.3169 57.49 43.351 55.9898 46.8744 52.6481C50.4075 49.2971 52.26 44.2486 52.26 37.5H50.26ZM32.27 55.49H24.53V57.49H32.27V55.49ZM115.214 53.88L116.203 54.0273L116.374 52.88H115.214V53.88ZM101.804 53.88V52.88H101.111L100.868 53.5289L101.804 53.88ZM84.434 49.2V48.2H83.4175L83.4341 49.2164L84.434 49.2ZM115.844 49.2V50.2H116.844V49.2H115.844ZM84.524 40.47L83.5258 40.4101L83.4622 41.47H84.524V40.47ZM101.714 40.47V41.47H102.776L102.712 40.4101L101.714 40.47ZM93.614 70.81C106.919 70.81 114.862 63.0349 116.203 54.0273L114.225 53.7327C113.046 61.6451 106.049 68.81 93.614 68.81V70.81ZM115.214 52.88H101.804V54.88H115.214V52.88ZM100.868 53.5289C100.525 54.4437 99.8764 55.4377 98.7613 56.2068C97.6493 56.9737 96.0104 57.56 93.614 57.56V59.56C96.3476 59.56 98.3987 58.8863 99.8967 57.8532C101.392 56.8223 102.273 55.4763 102.74 54.2311L100.868 53.5289ZM93.614 57.56C90.6769 57.56 88.7013 56.6654 87.4368 55.2678C86.1547 53.8508 85.4764 51.7763 85.4339 49.1836L83.4341 49.2164C83.4816 52.1137 84.2433 54.7192 85.9537 56.6097C87.6817 58.5196 90.2511 59.56 93.614 59.56V57.56ZM84.434 50.2H115.844V48.2H84.434V50.2ZM116.844 49.2V44.07H114.844V49.2H116.844ZM116.844 44.07C116.844 37.4719 114.752 31.4783 110.728 27.1239C106.695 22.7583 100.793 20.12 93.344 20.12V22.12C100.295 22.12 105.643 24.5667 109.259 28.4811C112.886 32.4067 114.844 37.8881 114.844 44.07H116.844ZM93.344 20.12C85.4331 20.12 79.3869 22.9923 75.3313 27.6645C71.2928 32.3171 69.304 38.6651 69.304 45.51H71.304C71.304 39.0349 73.1852 33.1879 76.8417 28.9755C80.4811 24.7827 85.9548 22.12 93.344 22.12V20.12ZM69.304 45.51C69.304 52.4647 71.4842 58.7924 75.6488 63.3936C79.8251 68.0076 85.9303 70.81 93.614 70.81V68.81C86.4477 68.81 80.8979 66.2124 77.1316 62.0514C73.3538 57.8776 71.304 52.0553 71.304 45.51H69.304ZM85.5222 40.5299C85.647 38.4492 86.3057 36.7033 87.5176 35.4818C88.7183 34.2717 90.5773 33.46 93.344 33.46V31.46C90.1707 31.46 87.7547 32.4033 86.0979 34.0732C84.4523 35.7317 83.6709 37.9908 83.5258 40.4101L85.5222 40.5299ZM93.344 33.46C95.8633 33.46 97.6095 34.2576 98.7626 35.4674C99.9309 36.6932 100.591 38.4483 100.716 40.5299L102.712 40.4101C102.567 37.9917 101.787 35.7418 100.21 34.0876C98.6185 32.4174 96.3147 31.46 93.344 31.46V33.46ZM101.714 39.47H84.524V41.47H101.714V39.47ZM124.049 69H123.049V70H124.049V69ZM138.179 69V70H139.179V69H138.179ZM138.179 44.61V43.61H137.179V44.61H138.179ZM166.259 44.61V45.61H167.259V44.61H166.259ZM166.259 32.01H167.259V31.01H166.259V32.01ZM138.179 32.01H137.179V33.01H138.179V32.01ZM138.179 18.6V17.6H137.179V18.6H138.179ZM169.049 18.6V19.6H170.049V18.6H169.049ZM169.049 6H170.049V5H169.049V6ZM124.049 6V5H123.049V6H124.049ZM124.049 70H138.179V68H124.049V70ZM139.179 69V44.61H137.179V69H139.179ZM138.179 45.61H166.259V43.61H138.179V45.61ZM167.259 44.61V32.01H165.259V44.61H167.259ZM166.259 31.01H138.179V33.01H166.259V31.01ZM139.179 32.01V18.6H137.179V32.01H139.179ZM138.179 19.6H169.049V17.6H138.179V19.6ZM170.049 18.6V6H168.049V18.6H170.049ZM169.049 5H124.049V7H169.049V5ZM123.049 6V69H125.049V6H123.049ZM180.019 16.35H179.019V17.35H180.019V16.35ZM194.779 16.35V17.35H195.779V16.35H194.779ZM194.779 2.30999H195.779V1.30999H194.779V2.30999ZM180.019 2.30999V1.30999H179.019V2.30999H180.019ZM180.469 69H179.469V70H180.469V69ZM194.329 69V70H195.329V69H194.329ZM194.329 21.93H195.329V20.93H194.329V21.93ZM180.469 21.93V20.93H179.469V21.93H180.469ZM180.019 17.35H194.779V15.35H180.019V17.35ZM195.779 16.35V2.30999H193.779V16.35H195.779ZM194.779 1.30999H180.019V3.30999H194.779V1.30999ZM179.019 2.30999V16.35H181.019V2.30999H179.019ZM180.469 70H194.329V68H180.469V70ZM195.329 69V21.93H193.329V69H195.329ZM194.329 20.93H180.469V22.93H194.329V20.93ZM179.469 21.93V69H181.469V21.93H179.469Z" fill="#281AF0" fill-opacity="0.6"/>
</g>
<defs>
<filter id="filter0_ddddd_251_58800" x="0.300049" y="0.309998" width="205.479" height="107.5" filterUnits="userSpaceOnUse" color-interpolation-filters="sRGB">
<feFlood flood-opacity="0" result="BackgroundImageFix"/>
<feColorMatrix in="SourceAlpha" type="matrix" values="0 0 0 0 0 0 0 0 0 0 0 0 0 0 0 0 0 0 127 0" result="hardAlpha"/>
<feOffset/>
<feColorMatrix type="matrix" values="0 0 0 0 0.156863 0 0 0 0 0.105882 0 0 0 0 0.941176 0 0 0 0.04 0"/>
<feBlend mode="normal" in2="BackgroundImageFix" result="effect1_dropShadow_251_58800"/>
<feColorMatrix in="SourceAlpha" type="matrix" values="0 0 0 0 0 0 0 0 0 0 0 0 0 0 0 0 0 0 127 0" result="hardAlpha"/>
<feOffset dy="2"/>
<feGaussianBlur stdDeviation="2"/>
<feColorMatrix type="matrix" values="0 0 0 0 0.156863 0 0 0 0 0.105882 0 0 0 0 0.941176 0 0 0 0.04 0"/>
<feBlend mode="normal" in2="effect1_dropShadow_251_58800" result="effect2_dropShadow_251_58800"/>
<feColorMatrix in="SourceAlpha" type="matrix" values="0 0 0 0 0 0 0 0 0 0 0 0 0 0 0 0 0 0 127 0" result="hardAlpha"/>
<feOffset dy="7"/>
<feGaussianBlur stdDeviation="3.5"/>
<feColorMatrix type="matrix" values="0 0 0 0 0.156863 0 0 0 0 0.105882 0 0 0 0 0.941176 0 0 0 0.04 0"/>
<feBlend mode="normal" in2="effect2_dropShadow_251_58800" result="effect3_dropShadow_251_58800"/>
<feColorMatrix in="SourceAlpha" type="matrix" values="0 0 0 0 0 0 0 0 0 0 0 0 0 0 0 0 0 0 127 0" result="hardAlpha"/>
<feOffset dy="15"/>
<feGaussianBlur stdDeviation="4.5"/>
<feColorMatrix type="matrix" values="0 0 0 0 0.156863 0 0 0 0 0.105882 0 0 0 0 0.941176 0 0 0 0.02 0"/>
<feBlend mode="normal" in2="effect3_dropShadow_251_58800" result="effect4_dropShadow_251_58800"/>
<feColorMatrix in="SourceAlpha" type="matrix" values="0 0 0 0 0 0 0 0 0 0 0 0 0 0 0 0 0 0 127 0" result="hardAlpha"/>
<feOffset dy="27"/>
<feGaussianBlur stdDeviation="5.5"/>
<feColorMatrix type="matrix" values="0 0 0 0 0.156863 0 0 0 0 0.105882 0 0 0 0 0.941176 0 0 0 0.01 0"/>
<feBlend mode="normal" in2="effect4_dropShadow_251_58800" result="effect5_dropShadow_251_58800"/>
<feBlend mode="normal" in="SourceGraphic" in2="effect5_dropShadow_251_58800" result="shape"/>
</filter>
<linearGradient id="paint0_linear_251_58800" x1="101.5" y1="-8" x2="101.5" y2="82" gradientUnits="userSpaceOnUse">
<stop stop-color="#FBFAFF"/>
<stop offset="0.259788" stop-color="white"/>
<stop offset="0.871399" stop-color="#EFEFFF"/>
<stop offset="1" stop-color="#F5F3FD"/>
</linearGradient>
</defs>
</svg>
