<svg width="46" height="50" viewBox="0 0 46 50" fill="none" xmlns="http://www.w3.org/2000/svg">
<path fill-rule="evenodd" clip-rule="evenodd" d="M10.2314 5.88889L20.4351 0L30.6665 5.88889L20.4351 11.7778L10.2314 5.88889ZM20.4351 11.778L30.6666 5.88916L40.8979 11.7779L40.8981 11.7778V23.5278L30.6666 29.4166V17.6391L30.6666 17.6392L20.4351 11.778ZM45.9999 38.25V26.4722L35.7685 32.3611V44.1111L45.9999 38.25ZM15.3333 32.3613V44.1113L25.5647 50.0002V38.2502L15.3333 32.3613ZM35.7684 32.3613V44.1113L25.5648 50.0002V38.2502L35.7684 32.3613ZM0 29.4165L10.2315 35.3053L10.2315 23.5279L20.4351 17.639L10.2315 11.7779L0.000287327 17.6388L0 17.6387V17.639V29.4165V29.4165ZM0 41.1943L10.2315 47.0554V35.3057L0 29.4165V41.1943Z" fill="#03FFE1"/>
</svg>
