<svg width="242" height="60" viewBox="0 0 242 60" fill="none" xmlns="http://www.w3.org/2000/svg">
<path d="M241.5 60H0.5L24.5 0H241.5V60Z" fill="white"/>
<path d="M56.3 38.312C55.148 38.312 54.084 38.032 53.108 37.472C52.148 36.896 51.38 36.128 50.804 35.168C50.244 34.192 49.964 33.128 49.964 31.976V26.864C49.964 25.712 50.244 24.656 50.804 23.696C51.38 22.72 52.148 21.952 53.108 21.392C54.084 20.816 55.148 20.528 56.3 20.528C57.308 20.528 58.244 20.712 59.108 21.08C59.972 21.432 60.708 21.952 61.316 22.64C61.412 22.752 61.46 22.888 61.46 23.048C61.46 23.208 61.396 23.368 61.268 23.528L60.212 24.632C60.084 24.76 59.956 24.824 59.828 24.824C59.668 24.824 59.524 24.752 59.396 24.608C58.596 23.76 57.572 23.336 56.324 23.336C55.716 23.336 55.148 23.496 54.62 23.816C54.092 24.136 53.668 24.568 53.348 25.112C53.044 25.656 52.892 26.24 52.892 26.864V31.976C52.892 32.6 53.044 33.184 53.348 33.728C53.668 34.272 54.092 34.704 54.62 35.024C55.148 35.344 55.716 35.504 56.324 35.504C56.932 35.504 57.5 35.352 58.028 35.048C58.556 34.744 58.972 34.328 59.276 33.8C59.58 33.272 59.732 32.696 59.732 32.072V30.896H56.516C56.372 30.896 56.252 30.848 56.156 30.752C56.06 30.656 56.012 30.536 56.012 30.392V28.664C56.012 28.52 56.06 28.4 56.156 28.304C56.252 28.208 56.372 28.16 56.516 28.16H61.58C61.868 28.16 62.108 28.264 62.3 28.472C62.508 28.664 62.612 28.904 62.612 29.192V31.976C62.612 33.128 62.324 34.192 61.748 35.168C61.188 36.128 60.42 36.896 59.444 37.472C58.484 38.032 57.436 38.312 56.3 38.312ZM71.2128 38.312C70.1728 38.312 69.2128 38.064 68.3328 37.568C67.4688 37.056 66.7808 36.368 66.2688 35.504C65.7568 34.64 65.5008 33.704 65.5008 32.696V29.552C65.5008 28.544 65.7568 27.608 66.2688 26.744C66.7808 25.88 67.4688 25.2 68.3328 24.704C69.2128 24.192 70.1728 23.936 71.2128 23.936C72.2528 23.936 73.2048 24.192 74.0688 24.704C74.9488 25.2 75.6448 25.88 76.1568 26.744C76.6688 27.608 76.9248 28.544 76.9248 29.552V32.696C76.9248 33.704 76.6688 34.64 76.1568 35.504C75.6448 36.368 74.9488 37.056 74.0688 37.568C73.2048 38.064 72.2528 38.312 71.2128 38.312ZM71.2128 35.528C71.9968 35.528 72.6608 35.256 73.2048 34.712C73.7648 34.152 74.0448 33.48 74.0448 32.696V29.552C74.0448 28.768 73.7648 28.104 73.2048 27.56C72.6608 27 71.9968 26.72 71.2128 26.72C70.4288 26.72 69.7568 27 69.1968 27.56C68.6528 28.104 68.3808 28.768 68.3808 29.552V32.696C68.3808 33.48 68.6528 34.152 69.1968 34.712C69.7568 35.256 70.4288 35.528 71.2128 35.528ZM91.5359 38C90.2879 38 89.2719 37.616 88.4879 36.848C87.7199 36.08 87.3359 35.072 87.3359 33.824V26.936H85.6799C85.5359 26.936 85.4159 26.888 85.3199 26.792C85.2239 26.696 85.1759 26.576 85.1759 26.432V24.752C85.1759 24.608 85.2239 24.488 85.3199 24.392C85.4159 24.296 85.5359 24.248 85.6799 24.248H87.3359V21.656C87.3359 21.512 87.3839 21.392 87.4799 21.296C87.5759 21.2 87.6959 21.152 87.8399 21.152H89.7119C89.8559 21.152 89.9759 21.2 90.0719 21.296C90.1679 21.392 90.2159 21.512 90.2159 21.656V24.248H94.2719C94.4159 24.248 94.5359 24.296 94.6319 24.392C94.7279 24.488 94.7759 24.608 94.7759 24.752V26.456C94.7759 26.6 94.7279 26.72 94.6319 26.816C94.5359 26.912 94.4159 26.96 94.2719 26.96H90.2159V33.704C90.2159 34.184 90.3519 34.568 90.6239 34.856C90.9119 35.144 91.2879 35.288 91.7519 35.288L94.2719 35.312C94.4159 35.312 94.5359 35.36 94.6319 35.456C94.7279 35.552 94.7759 35.672 94.7759 35.816V37.496C94.7759 37.64 94.7279 37.76 94.6319 37.856C94.5359 37.952 94.4159 38 94.2719 38H91.5359ZM102.713 38.312C101.673 38.312 100.713 38.064 99.8328 37.568C98.9688 37.056 98.2808 36.368 97.7688 35.504C97.2568 34.64 97.0008 33.704 97.0008 32.696V29.552C97.0008 28.544 97.2568 27.608 97.7688 26.744C98.2808 25.88 98.9688 25.2 99.8328 24.704C100.713 24.192 101.673 23.936 102.713 23.936C103.753 23.936 104.705 24.192 105.569 24.704C106.449 25.2 107.145 25.88 107.657 26.744C108.169 27.608 108.425 28.544 108.425 29.552V32.696C108.425 33.704 108.169 34.64 107.657 35.504C107.145 36.368 106.449 37.056 105.569 37.568C104.705 38.064 103.753 38.312 102.713 38.312ZM102.713 35.528C103.497 35.528 104.161 35.256 104.705 34.712C105.265 34.152 105.545 33.48 105.545 32.696V29.552C105.545 28.768 105.265 28.104 104.705 27.56C104.161 27 103.497 26.72 102.713 26.72C101.929 26.72 101.257 27 100.697 27.56C100.153 28.104 99.8808 28.768 99.8808 29.552V32.696C99.8808 33.48 100.153 34.152 100.697 34.712C101.257 35.256 101.929 35.528 102.713 35.528ZM122.1 38.048C121.956 38.048 121.828 38.008 121.716 37.928C121.604 37.832 121.532 37.72 121.5 37.592L116.82 21.464C116.804 21.432 116.796 21.384 116.796 21.32C116.796 21.192 116.844 21.08 116.94 20.984C117.036 20.888 117.156 20.84 117.3 20.84H119.172C119.316 20.84 119.444 20.888 119.556 20.984C119.668 21.064 119.74 21.168 119.772 21.296L123.348 33.632L126.78 21.296C126.812 21.168 126.884 21.064 126.996 20.984C127.108 20.888 127.236 20.84 127.38 20.84H129.252C129.396 20.84 129.524 20.888 129.636 20.984C129.748 21.064 129.82 21.168 129.852 21.296L133.428 33.632L136.86 21.296C136.892 21.168 136.964 21.064 137.076 20.984C137.188 20.888 137.316 20.84 137.46 20.84H139.428C139.604 20.84 139.732 20.904 139.812 21.032C139.908 21.16 139.932 21.304 139.884 21.464L135.084 37.592C135.052 37.736 134.972 37.848 134.844 37.928C134.732 38.008 134.604 38.048 134.46 38.048H132.18C132.036 38.048 131.908 38.008 131.796 37.928C131.684 37.832 131.612 37.72 131.58 37.592L128.316 25.928L125.004 37.592C124.972 37.736 124.892 37.848 124.764 37.928C124.652 38.008 124.524 38.048 124.38 38.048H122.1ZM147.103 38C146.063 38 145.103 37.744 144.223 37.232C143.359 36.72 142.671 36.024 142.159 35.144C141.647 34.264 141.391 33.304 141.391 32.264V29.672C141.391 28.632 141.647 27.672 142.159 26.792C142.671 25.912 143.359 25.216 144.223 24.704C145.103 24.192 146.063 23.936 147.103 23.936C148.143 23.936 149.095 24.192 149.959 24.704C150.839 25.216 151.535 25.912 152.047 26.792C152.559 27.672 152.815 28.632 152.815 29.672V31.28C152.815 31.568 152.711 31.816 152.503 32.024C152.311 32.216 152.071 32.312 151.783 32.312H144.271V32.432C144.271 33.216 144.543 33.888 145.087 34.448C145.647 34.992 146.319 35.264 147.103 35.264H150.919C151.063 35.264 151.183 35.312 151.279 35.408C151.375 35.504 151.423 35.624 151.423 35.768V37.496C151.423 37.64 151.375 37.76 151.279 37.856C151.183 37.952 151.063 38 150.919 38H147.103ZM149.935 29.72V29.504C149.935 28.72 149.655 28.056 149.095 27.512C148.551 26.952 147.887 26.672 147.103 26.672C146.319 26.672 145.647 26.952 145.087 27.512C144.543 28.056 144.271 28.72 144.271 29.504V29.72H149.935ZM162.031 38.312C161.327 38.312 160.663 38.16 160.039 37.856C159.431 37.536 158.919 37.072 158.503 36.464V37.496C158.503 37.64 158.455 37.76 158.359 37.856C158.263 37.952 158.143 38 157.999 38H156.439C156.295 38 156.175 37.952 156.079 37.856C155.983 37.76 155.935 37.64 155.935 37.496V20.12C155.935 19.976 155.983 19.856 156.079 19.76C156.175 19.664 156.295 19.616 156.439 19.616H158.311C158.455 19.616 158.575 19.664 158.671 19.76C158.767 19.856 158.815 19.976 158.815 20.12V25.472C159.215 24.976 159.695 24.6 160.255 24.344C160.831 24.072 161.423 23.936 162.031 23.936C163.007 23.936 163.903 24.192 164.719 24.704C165.535 25.2 166.183 25.872 166.663 26.72C167.143 27.568 167.383 28.48 167.383 29.456V32.792C167.383 33.768 167.135 34.68 166.639 35.528C166.159 36.376 165.503 37.056 164.671 37.568C163.855 38.064 162.975 38.312 162.031 38.312ZM161.671 35.552C162.455 35.552 163.119 35.28 163.663 34.736C164.223 34.176 164.503 33.504 164.503 32.72V29.528C164.503 28.744 164.223 28.08 163.663 27.536C163.119 26.976 162.455 26.696 161.671 26.696C160.887 26.696 160.215 26.976 159.655 27.536C159.095 28.08 158.815 28.744 158.815 29.528V32.72C158.815 33.504 159.095 34.176 159.655 34.736C160.215 35.28 160.887 35.552 161.671 35.552ZM174.522 38.312C173.658 38.312 172.826 38.176 172.026 37.904C171.226 37.632 170.514 37.256 169.89 36.776C169.81 36.712 169.754 36.632 169.722 36.536C169.706 36.424 169.714 36.32 169.746 36.224C169.858 35.968 170.13 35.464 170.562 34.712C170.69 34.52 170.85 34.424 171.042 34.424C171.154 34.424 171.266 34.456 171.378 34.52C171.954 34.92 172.49 35.216 172.986 35.408C173.498 35.584 174.034 35.672 174.594 35.672C175.266 35.672 175.778 35.552 176.13 35.312C176.482 35.056 176.658 34.712 176.658 34.28C176.658 33.912 176.506 33.624 176.202 33.416C175.898 33.208 175.322 32.944 174.474 32.624L173.61 32.288C172.906 32.016 172.306 31.728 171.81 31.424C171.314 31.104 170.89 30.672 170.538 30.128C170.202 29.584 170.034 28.904 170.034 28.088C170.034 26.824 170.45 25.824 171.282 25.088C172.13 24.336 173.25 23.96 174.642 23.96C175.458 23.96 176.258 24.096 177.042 24.368C177.826 24.624 178.514 24.984 179.106 25.448C179.186 25.512 179.234 25.6 179.25 25.712C179.282 25.808 179.282 25.904 179.25 26C179.106 26.336 178.866 26.84 178.53 27.512C178.434 27.688 178.282 27.776 178.074 27.776C177.962 27.776 177.85 27.744 177.738 27.68C176.634 26.96 175.61 26.6 174.666 26.6C174.122 26.6 173.69 26.72 173.37 26.96C173.066 27.184 172.914 27.504 172.914 27.92C172.914 28.336 173.09 28.688 173.442 28.976C173.794 29.248 174.442 29.568 175.386 29.936C176.298 30.288 177.002 30.592 177.498 30.848C178.01 31.088 178.474 31.48 178.89 32.024C179.322 32.552 179.538 33.24 179.538 34.088C179.538 34.92 179.322 35.656 178.89 36.296C178.474 36.936 177.882 37.432 177.114 37.784C176.362 38.136 175.498 38.312 174.522 38.312ZM184.72 22.64C184.576 22.64 184.456 22.592 184.36 22.496C184.264 22.4 184.215 22.28 184.215 22.136V19.52C184.215 19.376 184.264 19.256 184.36 19.16C184.456 19.064 184.576 19.016 184.72 19.016H186.352C186.496 19.016 186.616 19.064 186.712 19.16C186.808 19.256 186.855 19.376 186.855 19.52V22.136C186.855 22.28 186.808 22.4 186.712 22.496C186.616 22.592 186.496 22.64 186.352 22.64H184.72ZM185.296 38C184.96 38 184.672 37.888 184.432 37.664C184.208 37.424 184.096 37.136 184.096 36.8V26.984H182.152C182.008 26.984 181.888 26.936 181.792 26.84C181.696 26.744 181.648 26.624 181.648 26.48V24.752C181.648 24.608 181.696 24.488 181.792 24.392C181.888 24.296 182.008 24.248 182.152 24.248H185.776C186.112 24.248 186.392 24.368 186.616 24.608C186.856 24.832 186.976 25.112 186.976 25.448V35.264H188.92C189.064 35.264 189.184 35.312 189.28 35.408C189.376 35.504 189.424 35.624 189.424 35.768V37.496C189.424 37.64 189.376 37.76 189.28 37.856C189.184 37.952 189.064 38 188.92 38H185.296ZM196.934 38C195.686 38 194.67 37.616 193.886 36.848C193.118 36.08 192.734 35.072 192.734 33.824V26.936H191.078C190.934 26.936 190.814 26.888 190.718 26.792C190.622 26.696 190.574 26.576 190.574 26.432V24.752C190.574 24.608 190.622 24.488 190.718 24.392C190.814 24.296 190.934 24.248 191.078 24.248H192.734V21.656C192.734 21.512 192.782 21.392 192.878 21.296C192.974 21.2 193.094 21.152 193.238 21.152H195.11C195.254 21.152 195.374 21.2 195.47 21.296C195.566 21.392 195.614 21.512 195.614 21.656V24.248H199.67C199.814 24.248 199.934 24.296 200.03 24.392C200.126 24.488 200.174 24.608 200.174 24.752V26.456C200.174 26.6 200.126 26.72 200.03 26.816C199.934 26.912 199.814 26.96 199.67 26.96H195.614V33.704C195.614 34.184 195.75 34.568 196.022 34.856C196.31 35.144 196.686 35.288 197.15 35.288L199.67 35.312C199.814 35.312 199.934 35.36 200.03 35.456C200.126 35.552 200.174 35.672 200.174 35.816V37.496C200.174 37.64 200.126 37.76 200.03 37.856C199.934 37.952 199.814 38 199.67 38H196.934ZM208.111 38C207.071 38 206.111 37.744 205.231 37.232C204.367 36.72 203.679 36.024 203.167 35.144C202.655 34.264 202.399 33.304 202.399 32.264V29.672C202.399 28.632 202.655 27.672 203.167 26.792C203.679 25.912 204.367 25.216 205.231 24.704C206.111 24.192 207.071 23.936 208.111 23.936C209.151 23.936 210.103 24.192 210.967 24.704C211.847 25.216 212.543 25.912 213.055 26.792C213.567 27.672 213.823 28.632 213.823 29.672V31.28C213.823 31.568 213.719 31.816 213.511 32.024C213.319 32.216 213.079 32.312 212.791 32.312H205.279V32.432C205.279 33.216 205.551 33.888 206.095 34.448C206.655 34.992 207.327 35.264 208.111 35.264H211.927C212.071 35.264 212.191 35.312 212.287 35.408C212.383 35.504 212.431 35.624 212.431 35.768V37.496C212.431 37.64 212.383 37.76 212.287 37.856C212.191 37.952 212.071 38 211.927 38H208.111ZM210.943 29.72V29.504C210.943 28.72 210.663 28.056 210.103 27.512C209.559 26.952 208.895 26.672 208.111 26.672C207.327 26.672 206.655 26.952 206.095 27.512C205.551 28.056 205.279 28.72 205.279 29.504V29.72H210.943Z" fill="black"/>
</svg>
