<svg width="281" height="60" viewBox="0 0 281 60" fill="none" xmlns="http://www.w3.org/2000/svg">
<path d="M0 0H281L257 60H0V0Z" fill="#D5FF01"/>
<path d="M23.876 38C23.732 38 23.612 37.952 23.516 37.856C23.42 37.76 23.372 37.64 23.372 37.496V21.872C23.372 21.584 23.468 21.344 23.66 21.152C23.868 20.944 24.116 20.84 24.404 20.84H28.676C29.684 20.84 30.612 21.088 31.46 21.584C32.324 22.08 33.004 22.752 33.5 23.6C34.012 24.448 34.268 25.368 34.268 26.36C34.268 27.368 34.012 28.296 33.5 29.144C33.004 29.992 32.324 30.664 31.46 31.16C30.612 31.656 29.684 31.904 28.676 31.904H26.3V37.496C26.3 37.64 26.252 37.76 26.156 37.856C26.06 37.952 25.94 38 25.796 38H23.876ZM28.556 29.144C29.324 29.144 29.98 28.872 30.524 28.328C31.068 27.784 31.34 27.128 31.34 26.36C31.34 25.608 31.068 24.96 30.524 24.416C29.98 23.872 29.324 23.6 28.556 23.6H26.3V29.144H28.556ZM37.2922 38C37.1482 38 37.0282 37.952 36.9322 37.856C36.8362 37.76 36.7882 37.64 36.7882 37.496V35.72C36.7882 35.576 36.8362 35.456 36.9322 35.36C37.0282 35.264 37.1482 35.216 37.2922 35.216H39.1162V26.96H37.0522C36.9082 26.96 36.7882 26.912 36.6922 26.816C36.5962 26.72 36.5482 26.6 36.5482 26.456V24.752C36.5482 24.608 36.5962 24.488 36.6922 24.392C36.7882 24.296 36.9082 24.248 37.0522 24.248H40.7722C41.0602 24.248 41.3002 24.352 41.4922 24.56C41.7002 24.752 41.8042 24.992 41.8042 25.28V26.144L43.1002 25.112C43.5802 24.728 43.9962 24.464 44.3482 24.32C44.7002 24.16 45.1162 24.08 45.5962 24.08H46.3402C46.4842 24.08 46.6042 24.128 46.7002 24.224C46.7962 24.32 46.8442 24.44 46.8442 24.584V26.432C46.8442 26.576 46.7962 26.696 46.7002 26.792C46.6042 26.888 46.4842 26.936 46.3402 26.936H45.7162C45.3002 26.936 44.9402 27.008 44.6362 27.152C44.3322 27.296 43.8682 27.616 43.2442 28.112L41.9242 29.168V35.216H44.3002C44.4442 35.216 44.5642 35.264 44.6602 35.36C44.7562 35.456 44.8042 35.576 44.8042 35.72V37.496C44.8042 37.64 44.7562 37.76 44.6602 37.856C44.5642 37.952 44.4442 38 44.3002 38H37.2922ZM54.3378 38C53.2978 38 52.3378 37.744 51.4578 37.232C50.5938 36.72 49.9058 36.024 49.3938 35.144C48.8818 34.264 48.6258 33.304 48.6258 32.264V29.672C48.6258 28.632 48.8818 27.672 49.3938 26.792C49.9058 25.912 50.5938 25.216 51.4578 24.704C52.3378 24.192 53.2978 23.936 54.3378 23.936C55.3778 23.936 56.3298 24.192 57.1938 24.704C58.0738 25.216 58.7698 25.912 59.2818 26.792C59.7938 27.672 60.0498 28.632 60.0498 29.672V31.28C60.0498 31.568 59.9458 31.816 59.7378 32.024C59.5458 32.216 59.3058 32.312 59.0178 32.312H51.5058V32.432C51.5058 33.216 51.7778 33.888 52.3218 34.448C52.8818 34.992 53.5538 35.264 54.3378 35.264H58.1538C58.2978 35.264 58.4178 35.312 58.5138 35.408C58.6098 35.504 58.6578 35.624 58.6578 35.768V37.496C58.6578 37.64 58.6098 37.76 58.5138 37.856C58.4178 37.952 58.2978 38 58.1538 38H54.3378ZM57.1698 29.72V29.504C57.1698 28.72 56.8898 28.056 56.3298 27.512C55.7858 26.952 55.1218 26.672 54.3378 26.672C53.5538 26.672 52.8818 26.952 52.3218 27.512C51.7778 28.056 51.5058 28.72 51.5058 29.504V29.72H57.1698ZM67.1741 38.144C66.8061 38.144 66.5581 37.976 66.4301 37.64L61.9901 25.016C61.9581 24.92 61.9421 24.848 61.9421 24.8C61.9421 24.64 61.9981 24.512 62.1101 24.416C62.2221 24.304 62.3661 24.248 62.5421 24.248H64.2221C64.3821 24.248 64.5261 24.296 64.6541 24.392C64.7981 24.488 64.8941 24.616 64.9421 24.776L68.1821 34.424L71.4221 24.776C71.4701 24.616 71.5581 24.488 71.6861 24.392C71.8301 24.296 71.9821 24.248 72.1421 24.248H73.7021C73.8781 24.248 74.0221 24.304 74.1341 24.416C74.2461 24.512 74.3021 24.64 74.3021 24.8C74.3021 24.848 74.2861 24.92 74.2541 25.016L69.8141 37.64C69.7501 37.8 69.6461 37.928 69.5021 38.024C69.3741 38.12 69.2301 38.168 69.0701 38.168L67.1741 38.144ZM79.532 22.64C79.388 22.64 79.268 22.592 79.172 22.496C79.076 22.4 79.028 22.28 79.028 22.136V19.52C79.028 19.376 79.076 19.256 79.172 19.16C79.268 19.064 79.388 19.016 79.532 19.016H81.164C81.308 19.016 81.428 19.064 81.524 19.16C81.62 19.256 81.668 19.376 81.668 19.52V22.136C81.668 22.28 81.62 22.4 81.524 22.496C81.428 22.592 81.308 22.64 81.164 22.64H79.532ZM80.108 38C79.772 38 79.484 37.888 79.244 37.664C79.02 37.424 78.908 37.136 78.908 36.8V26.984H76.964C76.82 26.984 76.7 26.936 76.604 26.84C76.508 26.744 76.46 26.624 76.46 26.48V24.752C76.46 24.608 76.508 24.488 76.604 24.392C76.7 24.296 76.82 24.248 76.964 24.248H80.588C80.924 24.248 81.204 24.368 81.428 24.608C81.668 24.832 81.788 25.112 81.788 25.448V35.264H83.732C83.876 35.264 83.996 35.312 84.092 35.408C84.188 35.504 84.236 35.624 84.236 35.768V37.496C84.236 37.64 84.188 37.76 84.092 37.856C83.996 37.952 83.876 38 83.732 38H80.108ZM91.8613 38C90.8213 38 89.8613 37.744 88.9813 37.232C88.1173 36.72 87.4293 36.024 86.9173 35.144C86.4053 34.264 86.1493 33.304 86.1493 32.264V29.672C86.1493 28.632 86.4053 27.672 86.9173 26.792C87.4293 25.912 88.1173 25.216 88.9813 24.704C89.8613 24.192 90.8213 23.936 91.8613 23.936C92.9013 23.936 93.8533 24.192 94.7173 24.704C95.5973 25.216 96.2933 25.912 96.8053 26.792C97.3173 27.672 97.5733 28.632 97.5733 29.672V31.28C97.5733 31.568 97.4693 31.816 97.2613 32.024C97.0693 32.216 96.8293 32.312 96.5413 32.312H89.0293V32.432C89.0293 33.216 89.3013 33.888 89.8453 34.448C90.4053 34.992 91.0773 35.264 91.8613 35.264H95.6773C95.8213 35.264 95.9413 35.312 96.0373 35.408C96.1333 35.504 96.1813 35.624 96.1813 35.768V37.496C96.1813 37.64 96.1333 37.76 96.0373 37.856C95.9413 37.952 95.8213 38 95.6773 38H91.8613ZM94.6933 29.72V29.504C94.6933 28.72 94.4133 28.056 93.8533 27.512C93.3093 26.952 92.6453 26.672 91.8613 26.672C91.0773 26.672 90.4053 26.952 89.8453 27.512C89.3013 28.056 89.0293 28.72 89.0293 29.504V29.72H94.6933ZM104.458 38.144C104.09 38.144 103.842 37.976 103.714 37.64L99.5135 25.016C99.4815 24.92 99.4655 24.848 99.4655 24.8C99.4655 24.64 99.5215 24.512 99.6335 24.416C99.7455 24.304 99.8895 24.248 100.066 24.248H101.746C101.906 24.248 102.05 24.296 102.178 24.392C102.322 24.488 102.418 24.616 102.465 24.776L105.442 34.472L108.106 24.776C108.154 24.616 108.242 24.488 108.37 24.392C108.514 24.296 108.666 24.248 108.826 24.248H110.506C110.666 24.248 110.81 24.296 110.938 24.392C111.082 24.488 111.178 24.616 111.226 24.776L114.106 34.472L116.866 24.776C116.914 24.616 117.002 24.488 117.13 24.392C117.274 24.296 117.426 24.248 117.586 24.248H119.146C119.322 24.248 119.466 24.304 119.578 24.416C119.69 24.512 119.746 24.64 119.746 24.8C119.746 24.848 119.73 24.92 119.698 25.016L115.738 37.64C115.69 37.8 115.594 37.928 115.45 38.024C115.322 38.12 115.17 38.168 114.994 38.168L113.098 38.144C112.922 38.144 112.762 38.096 112.618 38C112.49 37.92 112.402 37.8 112.354 37.64L109.642 28.544L107.098 37.64C107.05 37.8 106.954 37.928 106.81 38.024C106.682 38.12 106.53 38.168 106.354 38.168L104.458 38.144ZM133.319 38.12C133.143 38.12 132.983 38.072 132.839 37.976C132.711 37.88 132.623 37.752 132.575 37.592L127.367 21.584C127.351 21.536 127.343 21.472 127.343 21.392C127.343 21.232 127.399 21.104 127.511 21.008C127.623 20.896 127.759 20.84 127.919 20.84H129.599C129.775 20.84 129.927 20.896 130.055 21.008C130.199 21.104 130.295 21.232 130.343 21.392L134.231 33.92L138.119 21.392C138.167 21.232 138.255 21.104 138.383 21.008C138.527 20.896 138.687 20.84 138.863 20.84H140.591C140.751 20.84 140.887 20.896 140.999 21.008C141.111 21.104 141.167 21.232 141.167 21.392C141.167 21.472 141.159 21.536 141.143 21.584L135.935 37.592C135.887 37.752 135.791 37.88 135.647 37.976C135.519 38.072 135.367 38.12 135.191 38.12H133.319ZM146.188 22.64C146.044 22.64 145.924 22.592 145.828 22.496C145.732 22.4 145.684 22.28 145.684 22.136V19.52C145.684 19.376 145.732 19.256 145.828 19.16C145.924 19.064 146.044 19.016 146.188 19.016H147.82C147.964 19.016 148.084 19.064 148.18 19.16C148.276 19.256 148.324 19.376 148.324 19.52V22.136C148.324 22.28 148.276 22.4 148.18 22.496C148.084 22.592 147.964 22.64 147.82 22.64H146.188ZM146.764 38C146.428 38 146.14 37.888 145.9 37.664C145.676 37.424 145.564 37.136 145.564 36.8V26.984H143.62C143.476 26.984 143.356 26.936 143.26 26.84C143.164 26.744 143.116 26.624 143.116 26.48V24.752C143.116 24.608 143.164 24.488 143.26 24.392C143.356 24.296 143.476 24.248 143.62 24.248H147.244C147.58 24.248 147.86 24.368 148.084 24.608C148.324 24.832 148.444 25.112 148.444 25.448V35.264H150.388C150.532 35.264 150.652 35.312 150.748 35.408C150.844 35.504 150.892 35.624 150.892 35.768V37.496C150.892 37.64 150.844 37.76 150.748 37.856C150.652 37.952 150.532 38 150.388 38H146.764ZM158.11 38.312C157.182 38.312 156.31 38.064 155.494 37.568C154.678 37.056 154.022 36.376 153.526 35.528C153.046 34.68 152.806 33.768 152.806 32.792V29.456C152.806 28.48 153.046 27.568 153.526 26.72C154.006 25.872 154.654 25.2 155.47 24.704C156.286 24.192 157.174 23.936 158.134 23.936C158.742 23.936 159.326 24.032 159.886 24.224C160.462 24.416 160.958 24.688 161.374 25.04V20.12C161.374 19.976 161.422 19.856 161.518 19.76C161.614 19.664 161.734 19.616 161.878 19.616H163.75C163.894 19.616 164.014 19.664 164.109 19.76C164.206 19.856 164.254 19.976 164.254 20.12V37.496C164.254 37.64 164.206 37.76 164.109 37.856C164.014 37.952 163.894 38 163.75 38H162.19C162.046 38 161.926 37.952 161.83 37.856C161.734 37.76 161.686 37.64 161.686 37.496V36.344C161.254 37 160.734 37.496 160.126 37.832C159.518 38.152 158.846 38.312 158.11 38.312ZM158.518 35.552C159.302 35.552 159.974 35.28 160.534 34.736C161.094 34.176 161.374 33.504 161.374 32.72V29.528C161.374 28.744 161.094 28.08 160.534 27.536C159.974 26.976 159.302 26.696 158.518 26.696C157.734 26.696 157.062 26.976 156.502 27.536C155.958 28.08 155.686 28.744 155.686 29.528V32.72C155.686 33.504 155.958 34.176 156.502 34.736C157.062 35.28 157.734 35.552 158.518 35.552ZM173.4 38C172.36 38 171.4 37.744 170.52 37.232C169.656 36.72 168.968 36.024 168.456 35.144C167.944 34.264 167.688 33.304 167.688 32.264V29.672C167.688 28.632 167.944 27.672 168.456 26.792C168.968 25.912 169.656 25.216 170.52 24.704C171.4 24.192 172.36 23.936 173.4 23.936C174.44 23.936 175.392 24.192 176.256 24.704C177.136 25.216 177.832 25.912 178.344 26.792C178.856 27.672 179.112 28.632 179.112 29.672V31.28C179.112 31.568 179.008 31.816 178.8 32.024C178.608 32.216 178.368 32.312 178.08 32.312H170.568V32.432C170.568 33.216 170.84 33.888 171.384 34.448C171.944 34.992 172.616 35.264 173.4 35.264H177.216C177.36 35.264 177.48 35.312 177.576 35.408C177.672 35.504 177.72 35.624 177.72 35.768V37.496C177.72 37.64 177.672 37.76 177.576 37.856C177.48 37.952 177.36 38 177.216 38H173.4ZM176.232 29.72V29.504C176.232 28.72 175.952 28.056 175.392 27.512C174.848 26.952 174.184 26.672 173.4 26.672C172.616 26.672 171.944 26.952 171.384 27.512C170.84 28.056 170.568 28.72 170.568 29.504V29.72H176.232ZM187.557 38.312C186.517 38.312 185.557 38.064 184.677 37.568C183.813 37.056 183.125 36.368 182.613 35.504C182.101 34.64 181.845 33.704 181.845 32.696V29.552C181.845 28.544 182.101 27.608 182.613 26.744C183.125 25.88 183.813 25.2 184.677 24.704C185.557 24.192 186.517 23.936 187.557 23.936C188.597 23.936 189.549 24.192 190.413 24.704C191.293 25.2 191.989 25.88 192.501 26.744C193.013 27.608 193.269 28.544 193.269 29.552V32.696C193.269 33.704 193.013 34.64 192.501 35.504C191.989 36.368 191.293 37.056 190.413 37.568C189.549 38.064 188.597 38.312 187.557 38.312ZM187.557 35.528C188.341 35.528 189.005 35.256 189.549 34.712C190.109 34.152 190.389 33.48 190.389 32.696V29.552C190.389 28.768 190.109 28.104 189.549 27.56C189.005 27 188.341 26.72 187.557 26.72C186.773 26.72 186.101 27 185.541 27.56C184.997 28.104 184.725 28.768 184.725 29.552V32.696C184.725 33.48 184.997 34.152 185.541 34.712C186.101 35.256 186.773 35.528 187.557 35.528Z" fill="black"/>
<path d="M222.5 19V39L240.833 29L222.5 19Z" fill="black"/>
</svg>
