<svg width="173" height="40" viewBox="0 0 173 40" fill="none" xmlns="http://www.w3.org/2000/svg">
<path d="M95.0687 12.1408V9.90856H99.6105C99.6395 10.1695 99.6927 10.4352 99.6975 10.6961C99.6975 16.33 99.712 21.9639 99.6879 27.6026C99.6879 28.5254 99.6154 29.4628 99.4221 30.3615C98.7022 33.7293 96.6342 35.8504 93.2568 36.5269C91.0341 36.9714 88.7729 37.0052 86.5792 36.2805C83.5787 35.2899 81.7668 32.7726 81.9214 29.7914H86.3811C86.4246 29.8542 86.5212 29.9363 86.5502 30.0426C87.42 33.1446 90.9472 34.2849 93.5225 32.2846C94.5517 31.4873 94.9962 30.4002 95.0107 29.1246C95.0252 27.8007 95.0107 26.4719 95.0107 25.1287C95.0349 25.1287 94.9237 25.0852 94.9044 25.1142C92.7398 27.7524 89.9325 28.2259 86.8353 27.3465C83.6995 26.4526 81.9745 24.1865 81.3367 21.0748C80.8294 18.6154 81.0082 16.214 82.0663 13.8803C84.4532 8.60398 91.87 7.52649 95.0687 12.1457V12.1408ZM95.2958 18.6396C95.3731 15.9048 93.9284 13.629 91.7589 13.0782C88.9323 12.3583 86.4391 14.146 85.8834 17.2867C85.2891 20.64 87.1735 23.7033 89.9905 23.9787C93.02 24.2735 95.1943 22.0847 95.2909 18.6396H95.2958Z" fill="#281AF0"/>
<path d="M133.138 9.89891H137.613V12.2617C138.83 10.6237 140.236 9.69597 142.034 9.35775C145.343 8.73928 148.557 10.0632 150.17 13.0106C152.282 16.8615 152.388 20.8767 150.426 24.8146C148.827 28.0278 145.469 29.5836 141.932 28.9845C140.169 28.6897 138.816 27.7572 137.709 26.1385V36.0775H133.138V9.89891ZM137.216 19.1421C137.627 20.495 137.878 21.8479 138.448 23.051C139.207 24.6648 140.603 25.4959 142.444 25.4234C144.222 25.351 145.488 24.4378 146.218 22.8626C147.378 20.3549 147.363 17.8037 146.145 15.3153C145.397 13.7837 144.087 12.9671 142.382 12.9236C140.628 12.8801 139.197 13.6387 138.453 15.2187C137.883 16.4218 137.637 17.7796 137.221 19.1421H137.216Z" fill="#281AF0"/>
<path d="M2.38049 28.3852C3.45798 25.3798 4.49198 22.5146 5.52115 19.6445C7.3669 14.5035 9.22714 9.36246 11.0439 4.20694C11.3 3.46768 11.5899 3.11979 12.4548 3.15361C14.3827 3.23575 16.3154 3.17777 18.3012 3.17777C21.2969 11.5319 24.283 19.8426 27.3415 28.3707C25.7615 28.3707 24.2975 28.4384 22.8479 28.3176C22.5339 28.2934 22.1715 27.6218 22.012 27.1821C19.7363 20.9104 17.4895 14.6291 15.2379 8.35262C15.1461 8.0917 15.0446 7.83562 14.8513 7.33311C13.8753 10.0292 12.9766 12.4935 12.0924 14.9625C10.6139 19.084 9.12567 23.2055 7.68096 27.3415C7.42005 28.0856 7.10115 28.4625 6.23626 28.4045C4.99932 28.3176 3.75272 28.3852 2.38049 28.3852Z" fill="#281AF0"/>
<path d="M170.377 28.3467H165.932C165.932 27.8925 165.932 27.4673 165.932 27.0373C165.932 23.6985 165.965 20.3598 165.907 17.021C165.879 15.4845 165.448 14.0446 163.926 13.2812C162.714 12.6724 161.486 12.7883 160.385 13.5663C159.037 14.523 158.481 15.9048 158.476 17.5332C158.476 20.7125 158.476 23.8918 158.476 27.0663C158.476 27.4577 158.476 27.8539 158.476 28.3225H153.91V3.26489H158.423V12.2955C159.684 10.3193 161.279 9.43992 163.25 9.25631C167.28 8.88426 170.28 11.2953 170.469 15.4168C170.667 19.6302 170.517 23.8628 170.517 28.0858C170.517 28.1534 170.445 28.2211 170.377 28.3467Z" fill="#281AF0"/>
<path d="M114.227 15.8373C114.347 13.8176 115.159 12.3246 116.565 11.136C119.194 8.9085 124.32 8.55095 127.268 10.3629C129.089 11.4838 130.114 13.2136 130.181 15.2478C130.326 19.5723 130.225 23.9064 130.225 28.3226H126.181V26.2981C123.528 29.0474 120.45 29.806 117.406 28.5352C115.174 27.6027 113.811 25.6265 113.797 23.3024C113.782 20.7947 114.874 18.9973 117.334 18.1131C118.938 17.5332 120.682 17.3255 122.368 16.9728C122.919 16.8568 123.533 16.9293 124.026 16.707C124.63 16.4316 125.514 16.0016 125.591 15.528C125.697 14.8709 125.364 13.8997 124.866 13.4359C123.248 11.909 119.938 12.7691 119.237 14.8806C118.957 15.7262 118.561 15.8904 117.793 15.8566C116.638 15.8083 115.483 15.8421 114.222 15.8421L114.227 15.8373ZM125.857 19.4804C124.528 19.7752 123.238 20.0361 121.962 20.3502C121.3 20.5096 120.643 20.7077 120.02 20.9686C118.991 21.4035 118.454 22.1862 118.556 23.341C118.657 24.4862 119.324 25.153 120.373 25.4912C122.827 26.2739 125.591 24.4524 125.842 21.8577C125.92 21.0653 125.852 20.2584 125.852 19.4804H125.857Z" fill="#281AF0"/>
<path d="M79.4909 19.1613C79.5054 26.1481 74.0793 30.4193 67.2907 28.7765C62.9372 27.7232 60.2798 23.8723 60.4247 18.8327C60.6325 11.6575 66.9911 7.36689 73.6686 9.88909C77.3263 11.271 79.4813 14.7064 79.4909 19.1613ZM75.007 19.2434C74.6543 17.9243 74.4611 16.6391 73.973 15.4795C73.2531 13.769 71.8036 12.9234 69.953 12.9234C68.1024 12.9234 66.6867 13.7835 65.9329 15.4843C64.8361 17.9582 64.8265 20.49 65.9619 22.9494C66.7157 24.5874 68.0976 25.4088 69.9143 25.4233C71.7263 25.4378 73.1661 24.6744 73.9054 23.0267C74.4369 21.8429 74.6495 20.519 75.0119 19.2434H75.007Z" fill="#281AF0"/>
<path d="M28.0663 9.90869H32.7821C32.7821 13.4262 32.7724 16.8761 32.7917 20.326C32.7917 21.0846 32.8207 21.8625 32.9802 22.6018C33.2942 24.0513 34.1253 25.0708 35.6763 25.3269C37.1403 25.5685 38.817 24.8776 39.4596 23.515C39.8896 22.6066 40.1167 21.5243 40.1409 20.5145C40.223 17.0211 40.1699 13.5229 40.1699 9.92802H44.7842V28.3226H40.3197V26.1193C38.8556 28.2985 36.9954 29.1005 34.7148 29.0812C31.2891 29.0522 28.6461 26.8634 28.2692 23.457C28.0324 21.3069 28.1001 19.1229 28.0759 16.9486C28.0469 14.6535 28.0711 12.3632 28.0711 9.90869H28.0663Z" fill="#281AF0"/>
<path d="M50.3215 13.5275H46.2821V9.85531H50.4133V3.27441H55.0228V9.82632H59.5937V13.5226H55.1581C55.1581 16.7116 55.0711 19.7943 55.1967 22.8721C55.2547 24.2975 56.1824 24.9305 57.6561 24.9933C58.1296 25.0126 58.6032 24.9933 59.2216 24.9933C59.2216 25.5103 59.2216 25.979 59.2216 26.4477C59.2216 27.8908 58.5162 28.6558 57.1053 28.7428C52.7132 29.0133 50.4664 26.9115 50.4471 22.5049C50.4326 19.6493 50.4374 16.7938 50.4326 13.9382C50.4326 13.8657 50.394 13.7884 50.3118 13.5226L50.3215 13.5275Z" fill="#281AF0"/>
<path d="M106.926 12.8559C108.791 9.86987 110.608 8.89385 113.256 9.40602V13.7208C112.956 13.7208 112.734 13.7353 112.507 13.7208C109.057 13.4696 107.076 15.2187 106.994 18.7024C106.931 21.4758 106.974 24.2541 106.974 27.0275C106.974 27.4238 106.974 27.82 106.974 28.308H102.418V9.92785H106.931V12.8511L106.926 12.8559Z" fill="#281AF0"/>
<path d="M18.4076 24.8194C18.4124 26.7811 16.8904 28.3417 14.9335 28.3804C12.9187 28.4142 11.3145 26.8487 11.3097 24.8484C11.3049 22.848 12.9042 21.2583 14.9094 21.2825C16.8614 21.3067 18.4028 22.8673 18.4124 24.8242L18.4076 24.8194Z" fill="#281AF0"/>
</svg>
