<svg width="101" height="40" viewBox="0 0 101 40" fill="none" xmlns="http://www.w3.org/2000/svg">
<path d="M29.9873 11.0484C28.7387 12.2455 27.5452 13.3875 26.3422 14.5415C25.7448 14.0112 25.193 13.4713 24.5896 12.9949C21.7418 10.742 18.5491 9.96745 15.0464 11.0305C11.1595 12.2096 8.71864 15.5961 8.61569 19.7381C8.49838 24.4797 11.2996 28.1296 15.9167 29.0933C19.1022 29.7577 22.0111 29.0514 24.5405 26.9541C25.1379 26.4585 25.7077 25.9318 26.3302 25.3835C27.4866 26.5878 28.643 27.7921 29.858 29.0586C29.4211 29.4608 29.0081 29.8535 28.5831 30.2317C23.5661 34.6873 17.8392 35.475 11.7616 33.0533C6.86196 31.102 4.29541 27.1349 3.62504 21.9587C3.16775 18.4273 3.74355 15.0599 5.72593 12.0528C8.26734 8.19576 11.9328 6.10564 16.5021 5.67948C21.8543 5.1791 26.2979 7.07768 29.9873 11.0496V11.0484Z" fill="#281AF0"/>
<path d="M52.7727 25.0999H36.6395C36.7245 27.1864 38.4926 29.17 40.7443 29.6093C43.0248 30.0546 45.146 29.6955 46.9572 28.0998C47.0973 27.9765 47.4037 27.8879 47.557 27.9561C48.8666 28.5391 50.157 29.1604 51.5241 29.8044C50.8681 30.7777 50.0888 31.5737 49.197 32.2728C45.8343 34.9124 38.5752 35.2991 34.7601 31.3798C31.9745 28.5176 31.121 25.0448 31.941 21.2261C33.1596 15.5519 37.9731 12.3425 43.8436 13.1051C49.9787 13.9011 53.3341 19.1312 52.8529 24.9658C52.8517 24.9838 52.8337 25.0005 52.7727 25.0999ZM47.7245 21.0501C47.3211 18.8319 44.8563 17.2218 42.0132 17.2913C39.5556 17.3523 37.1782 19.0929 36.9208 21.0501H47.7245Z" fill="#281AF0"/>
<path d="M84.3063 25.0879H68.0642C68.3575 27.6593 70.4332 29.577 73.0824 29.753C75.0899 29.887 76.9238 29.4657 78.4513 28.0567C78.5674 27.9502 78.8296 27.8688 78.9553 27.925C80.2936 28.5296 81.6176 29.164 82.9751 29.8045C81.8343 31.4612 80.4229 32.7289 78.5806 33.4316C75.8513 34.4719 73.0417 34.6072 70.2525 33.7548C66.909 32.7325 64.6741 30.4796 63.6613 27.1397C62.4906 23.2767 63.0819 19.6759 65.682 16.5192C67.4286 14.3979 69.7617 13.2763 72.4683 13.0392C75.7196 12.7543 78.6931 13.5085 81.1232 15.8213C83.1236 17.7258 84.0824 20.126 84.2967 22.8422C84.3542 23.5688 84.3051 24.305 84.3051 25.0855L84.3063 25.0879ZM68.3407 21.0346H79.1744C78.7817 18.9648 76.4881 17.3859 73.9072 17.2829C71.2616 17.1776 69.0566 18.6883 68.3407 21.0346Z" fill="#281AF0"/>
<path d="M60.5034 33.6985H55.4984V5.73218H60.5034V33.6985Z" fill="#281AF0"/>
<path d="M98.0248 17.9711C97.1498 18.0309 96.3298 18.0417 95.5241 18.153C93.5214 18.4296 92.1136 19.9547 92.0765 21.9729C92.0083 25.6408 92.0047 29.3099 91.9736 32.979C91.9712 33.2363 91.9736 33.4937 91.9736 33.7966H86.9697V13.6412H91.3175V16.215C93.0581 13.8974 95.4176 13.409 98.026 13.3743V17.9711H98.0248Z" fill="#281AF0"/>
</svg>
