<svg width="258" height="40" viewBox="0 0 258 40" fill="none" xmlns="http://www.w3.org/2000/svg">
<g clip-path="url(#clip0_201_47740)">
<path fill-rule="evenodd" clip-rule="evenodd" d="M32.7176 21.7515L46.3213 35.8335C46.4847 36.0002 46.6147 36.1985 46.7039 36.4172C46.7931 36.6358 46.8399 36.8706 46.8416 37.108C46.8431 37.3454 46.7996 37.5808 46.7131 37.8008C46.6268 38.0208 46.4996 38.2209 46.3385 38.39L45.3404 39.4197C45.0597 39.724 44.6893 39.9226 44.2873 39.9842C44.0219 40.0209 43.7519 39.9935 43.4984 39.9042C43.2448 39.8149 43.0148 39.666 42.826 39.4694L26.2142 22.2735C25.9254 21.9751 25.6964 21.6206 25.5399 21.2303C25.3836 20.8402 25.3031 20.4218 25.3031 19.9994C25.3031 19.5769 25.3836 19.1586 25.5399 18.7683C25.6964 18.3782 25.9254 18.0235 26.2142 17.7251L42.826 0.529326C42.9879 0.361525 43.18 0.228398 43.3917 0.13757C43.6033 0.0467423 43.8301 0 44.0591 0C44.2882 0 44.515 0.0467423 44.7267 0.13757C44.9382 0.228398 45.1305 0.361525 45.2924 0.529326L46.3213 1.61228C46.4834 1.7798 46.612 1.97877 46.6997 2.19778C46.7874 2.41682 46.8327 2.6516 46.8327 2.88872C46.8327 3.12583 46.7874 3.36062 46.6997 3.57965C46.612 3.79868 46.4834 3.99766 46.3213 4.1652L32.7176 18.2506C32.2714 18.7162 32.0211 19.3454 32.0211 20.0011C32.0211 20.6569 32.2714 21.286 32.7176 21.7515ZM14.8111 18.2655L1.2127 4.17997C1.0477 4.01312 0.916327 3.81402 0.826216 3.59418C0.736105 3.37435 0.689047 3.13818 0.687771 2.89937C0.686495 2.66055 0.73103 2.42385 0.818787 2.20298C0.906543 1.98214 1.03578 1.78154 1.19899 1.61282L2.19333 0.579557C2.47648 0.277162 2.84733 0.0789192 3.24937 0.0150088C3.51465 -0.0205806 3.78428 0.00732413 4.0375 0.0965812C4.29073 0.185838 4.52081 0.334051 4.71002 0.529843L21.3154 17.7258C21.6042 18.0243 21.8331 18.3789 21.9894 18.7691C22.1457 19.1594 22.2262 19.5777 22.2262 20.0002C22.2262 20.4226 22.1457 20.8409 21.9894 21.2311C21.8331 21.6214 21.6042 21.9758 21.3154 22.2743L4.71002 39.4703C4.54794 39.6383 4.35551 39.7715 4.14373 39.8623C3.93193 39.9532 3.70493 40 3.47567 40C3.24642 40 3.01941 39.9532 2.80762 39.8623C2.59582 39.7715 2.40339 39.6383 2.24133 39.4703L1.2127 38.4052C1.05056 38.2374 0.921935 38.038 0.834179 37.8188C0.746423 37.5994 0.701258 37.3643 0.701258 37.1269C0.701258 36.8895 0.746423 36.6545 0.834179 36.4351C0.921935 36.2157 1.05056 36.0165 1.2127 35.8486L14.8111 21.7666C15.2571 21.3011 15.5073 20.6718 15.5073 20.016C15.5073 19.3603 15.2571 18.7311 14.8111 18.2655Z" fill="#281AF0"/>
<path fill-rule="evenodd" clip-rule="evenodd" d="M116.537 17.337C115.518 16.6715 114.324 16.3244 113.106 16.3401C112.113 16.3243 111.133 16.5667 110.262 17.0438C109.707 17.3379 109.21 17.7315 108.796 18.2047V9.59595H105.571V30.7079H108.796V29.1739C109.205 29.6379 109.691 30.0281 110.233 30.3269C111.12 30.7875 112.107 31.0193 113.106 31.0012C114.32 31.0178 115.511 30.6816 116.537 30.0336C117.566 29.3956 118.406 28.4949 118.971 27.4239C119.584 26.2795 119.897 24.9983 119.88 23.6999C119.901 22.4012 119.588 21.1189 118.971 19.9761C118.413 18.8927 117.572 17.9809 116.537 17.337ZM116.039 25.8992C115.72 26.5283 115.233 27.0561 114.631 27.4239C114.009 27.787 113.299 27.9716 112.579 27.957C111.849 27.9692 111.13 27.7852 110.497 27.4239C109.895 27.0569 109.407 26.5287 109.089 25.8992C108.746 25.2075 108.575 24.4429 108.591 23.6707C108.575 22.8986 108.746 22.1339 109.089 21.4421C109.402 20.817 109.892 20.2972 110.497 19.9467C111.124 19.569 111.846 19.3758 112.579 19.3896C113.302 19.3735 114.015 19.5669 114.631 19.9467C115.236 20.2979 115.725 20.8175 116.039 21.4421C116.402 22.1278 116.586 22.8947 116.572 23.6707C116.586 24.4467 116.402 25.2135 116.039 25.8992ZM81.5451 27.7758C82.7962 27.7758 83.8519 27.5901 84.712 27.2186C85.5556 26.851 86.3129 26.3107 86.9351 25.6326L89.2223 27.9196C88.2766 28.8824 87.1508 29.6496 85.9088 30.1775C84.6382 30.7249 83.1819 30.9986 81.5399 30.9986C80.1237 31.0116 78.7191 30.7426 77.408 30.2069C76.1709 29.6772 75.0516 28.9066 74.1153 27.9401C73.1789 26.9735 72.4442 25.8303 71.954 24.577C71.4413 23.2603 71.1826 21.8583 71.1917 20.4452C71.1812 19.0404 71.4409 17.6467 71.9568 16.3401C72.444 15.0812 73.1813 13.9342 74.1239 12.968C75.0868 11.9774 76.2414 11.1934 77.5174 10.6641C78.7934 10.1347 80.1639 9.87102 81.5451 9.88915C83.2076 9.88825 84.6436 10.1637 85.8528 10.7155C87.0551 11.2542 88.1489 12.0076 89.0809 12.9387L86.7939 15.2258C86.1734 14.5512 85.4128 14.0208 84.5654 13.6717C83.7069 13.3003 82.7003 13.1146 81.5451 13.1146C80.5903 13.1044 79.6431 13.2857 78.7596 13.6477C77.9269 13.9923 77.1773 14.5103 76.5603 15.1672C75.9402 15.8363 75.4622 16.6244 75.1556 17.4836C74.8148 18.4333 74.646 19.4363 74.6571 20.4452C74.6457 21.4523 74.8137 22.4532 75.1529 23.4013C75.4646 24.2676 75.9428 25.0644 76.5603 25.7472C77.1834 26.3909 77.9319 26.8998 78.7596 27.2426C79.6431 27.6047 80.5903 27.7859 81.5451 27.7758ZM92.8194 16.633L96.4248 25.803L100.238 16.633H103.815L97.2765 30.8544L94.6668 36.5723H91.0894L94.6228 29.2923L89.2714 16.633H92.8194ZM128.936 16.3376C130.25 16.3369 131.405 16.6398 132.402 17.2467C133.404 17.8423 134.222 18.7029 134.766 19.7338C135.365 20.8401 135.668 22.0824 135.646 23.3404C135.646 23.5859 135.626 23.831 135.587 24.0735C135.564 24.3393 135.524 24.6038 135.47 24.8652H124.971C125.055 25.2219 125.184 25.5669 125.354 25.8915C125.692 26.5424 126.212 27.0819 126.849 27.4455C127.535 27.809 128.302 27.9926 129.078 27.9787C129.763 27.9873 130.443 27.8578 131.077 27.5975C131.685 27.3561 132.228 26.9743 132.66 26.4832L134.713 28.565C134.038 29.3601 133.184 29.9832 132.22 30.383C131.236 30.795 130.179 31.0046 129.112 30.9989C127.783 31.0195 126.47 30.6981 125.3 30.0658C124.173 29.4276 123.239 28.4958 122.599 27.3693C121.959 26.2427 121.636 24.9636 121.664 23.6683C121.65 22.7064 121.827 21.7513 122.186 20.859C122.546 19.9667 123.08 19.1552 123.757 18.4723C124.435 17.7893 125.242 17.2487 126.131 16.8821C127.021 16.5156 127.974 16.3304 128.936 16.3376ZM126.745 19.827C126.141 20.1783 125.652 20.6979 125.338 21.3226L125.335 21.3252C125.186 21.6106 125.071 21.9132 124.994 22.2261H132.483C132.408 21.8403 132.283 21.4656 132.111 21.1119C131.837 20.5453 131.397 20.0752 130.85 19.763C130.323 19.4503 129.669 19.2939 128.886 19.2939C128.137 19.2772 127.398 19.4613 126.745 19.827ZM147.039 16.7212C146.438 16.4598 145.788 16.3299 145.133 16.3399C143.534 16.3399 142.332 16.8972 141.527 18.0113C141.514 18.0289 141.502 18.0469 141.49 18.065L141.468 18.0979V16.6319H138.242V30.7079H141.468V22.8789C141.468 21.6669 141.761 20.7783 142.348 20.2132C142.934 19.6481 143.677 19.3646 144.576 19.3629C144.945 19.3559 145.313 19.4155 145.661 19.5387C145.987 19.6646 146.278 19.8655 146.511 20.1252L148.629 17.9527C148.197 17.4296 147.654 17.009 147.039 16.7212ZM160.463 27.7758C161.715 27.7758 162.771 27.5899 163.631 27.2186C164.475 26.8513 165.234 26.311 165.855 25.6326L168.143 27.9196C167.197 28.8824 166.072 29.6495 164.829 30.1775C163.558 30.7249 162.103 30.9986 160.46 30.9986C159.045 31.0116 157.64 30.7424 156.329 30.2069C155.092 29.6772 153.972 28.9066 153.036 27.9399C152.1 26.9735 151.365 25.8303 150.875 24.5769C150.362 23.2603 150.104 21.8583 150.113 20.4452C150.101 19.0406 150.36 17.6469 150.875 16.3399C151.363 15.081 152.101 13.9339 153.045 12.968C154.007 11.9777 155.162 11.1939 156.437 10.6645C157.712 10.1352 159.083 9.87135 160.463 9.88912C162.125 9.88822 163.562 10.1637 164.774 10.7155C165.975 11.2545 167.068 12.0078 168 12.9386L165.712 15.2258C165.092 14.5512 164.331 14.0207 163.483 13.6717C162.625 13.3003 161.618 13.1146 160.463 13.1146C159.509 13.1044 158.562 13.2856 157.678 13.6477C156.845 13.9923 156.095 14.5103 155.478 15.1671C154.857 15.8361 154.379 16.6241 154.071 17.4836C153.73 18.4333 153.562 19.4363 153.573 20.4452C153.562 21.4523 153.731 22.4533 154.071 23.4013C154.383 24.2675 154.862 25.0644 155.478 25.7472C156.102 26.3909 156.851 26.8998 157.678 27.2426C158.562 27.6047 159.509 27.7859 160.463 27.7758ZM180.518 17.3078C179.377 16.6555 178.08 16.3213 176.765 16.3403C175.455 16.3241 174.168 16.669 173.042 17.3372C171.945 17.9658 171.028 18.8641 170.375 19.9469C169.722 21.0681 169.386 22.3464 169.405 23.6441C169.389 24.9496 169.723 26.2356 170.372 27.3681C171.023 28.4669 171.94 29.3838 173.038 30.0336C173.877 30.5283 174.805 30.8518 175.768 30.9853C176.732 31.119 177.712 31.0601 178.654 30.8123C179.594 30.5644 180.477 30.1323 181.249 29.541C182.022 28.9499 182.669 28.2113 183.155 27.3681C183.823 26.2419 184.169 24.9536 184.154 23.6441C184.172 22.3438 183.828 21.0643 183.157 19.9495C182.528 18.8499 181.617 17.9381 180.518 17.3078ZM180.314 25.8379C179.989 26.473 179.491 27.0021 178.877 27.3627C178.232 27.7259 177.505 27.9101 176.765 27.8958C176.028 27.9055 175.298 27.7216 174.654 27.3627C174.048 26.9912 173.552 26.4649 173.217 25.8379C172.875 25.1559 172.705 24.4013 172.718 23.6387C172.703 22.8853 172.874 22.1396 173.217 21.4689C173.554 20.8587 174.051 20.3518 174.654 20.0029C175.294 19.6273 176.023 19.4346 176.765 19.4456C177.508 19.4298 178.238 19.6229 178.877 20.0029C179.48 20.3523 179.975 20.859 180.314 21.4689C180.677 22.1335 180.86 22.8815 180.846 23.6387C180.858 24.4061 180.675 25.1639 180.314 25.8406V25.8379ZM194.255 16.3401C195.254 16.3235 196.235 16.6096 197.069 17.1612C197.883 17.6792 198.552 18.3967 199.011 19.2456C199.466 20.0498 199.705 20.9581 199.703 21.8821V30.7081H196.478V22.5858C196.478 21.6484 196.177 20.8763 195.574 20.2693C194.988 19.6633 194.226 19.3603 193.288 19.3603C192.705 19.3501 192.128 19.4916 191.615 19.7709C191.135 20.0373 190.738 20.4335 190.472 20.9144C190.192 21.4266 190.051 22.0026 190.062 22.5858V30.7081H186.837V16.6333H190.062V18.2261C190.448 17.7619 190.915 17.3713 191.44 17.0732C192.295 16.5804 193.268 16.3272 194.255 16.3401ZM213.22 17.1612C212.386 16.6096 211.405 16.3235 210.405 16.3401C209.417 16.3272 208.445 16.5804 207.589 17.0732C207.063 17.371 206.595 17.7615 206.208 18.2261V16.6333H202.982V30.7081H206.208V22.5858C206.197 22.0026 206.338 21.4266 206.618 20.9144C206.885 20.4335 207.28 20.0373 207.762 19.7709C208.274 19.4916 208.849 19.3501 209.432 19.3603C210.371 19.3603 211.134 19.6633 211.72 20.2693C212.328 20.8753 212.629 21.6475 212.629 22.5858V30.7081H215.854V21.8821C215.852 20.9563 215.611 20.0469 215.151 19.243C214.694 18.3963 214.029 17.6796 213.22 17.1612ZM225.495 16.3376C226.808 16.3369 227.963 16.6398 228.96 17.2467C229.962 17.843 230.78 18.7035 231.325 19.7338C231.925 20.8401 232.228 22.0824 232.205 23.3404C232.203 23.5859 232.183 23.8309 232.146 24.0735C232.122 24.3393 232.083 24.6036 232.029 24.8652H221.529C221.614 25.2219 221.742 25.5669 221.912 25.8915C222.251 26.5424 222.771 27.0819 223.408 27.4455C224.094 27.8092 224.86 27.9927 225.637 27.9787C226.322 27.9872 227.002 27.8575 227.635 27.5975C228.243 27.3555 228.786 26.9738 229.218 26.4832L231.271 28.565C230.595 29.3595 229.742 29.9826 228.778 30.383C227.795 30.7949 226.738 31.0043 225.671 30.9989C224.342 31.0196 223.029 30.6984 221.858 30.0658C220.731 29.4276 219.798 28.4958 219.157 27.3693C218.517 26.2427 218.194 24.9636 218.223 23.6683C218.208 22.7064 218.386 21.7513 218.745 20.859C219.105 19.9667 219.638 19.1552 220.315 18.4723C220.994 17.7893 221.8 17.2487 222.691 16.8821C223.58 16.5156 224.534 16.3304 225.495 16.3376ZM223.305 19.827C222.698 20.1775 222.209 20.6973 221.897 21.3226L221.894 21.3252C221.745 21.6104 221.629 21.913 221.554 22.2261H229.04C228.966 21.8401 228.842 21.4655 228.669 21.1119C228.395 20.5456 227.955 20.0756 227.409 19.763C226.88 19.4503 226.226 19.2939 225.445 19.2939C224.695 19.277 223.957 19.4612 223.305 19.827ZM239.14 20.0055C239.789 19.6273 240.529 19.4346 241.282 19.4483C241.926 19.4403 242.566 19.5703 243.157 19.8295C243.738 20.0601 244.254 20.4332 244.652 20.9144L246.765 18.7739C246.103 17.9933 245.268 17.3787 244.326 16.9799C243.369 16.5456 242.328 16.3255 241.277 16.3349C239.952 16.3183 238.648 16.6521 237.494 17.3024C236.395 17.9319 235.485 18.8429 234.855 19.9415C234.2 21.0719 233.866 22.3593 233.888 23.6653C233.871 24.9709 234.205 26.257 234.855 27.3893C235.485 28.4879 236.395 29.3989 237.494 30.0284C238.532 30.5978 239.688 30.9252 240.871 30.9861C242.054 31.047 243.235 30.8399 244.326 30.3803C245.265 29.9649 246.095 29.3435 246.76 28.5623L244.649 26.4216C244.245 26.9055 243.732 27.2872 243.154 27.5359C242.557 27.7759 241.92 27.8956 241.277 27.8878C240.529 27.8999 239.791 27.7161 239.137 27.3547C238.535 26.989 238.042 26.4736 237.7 25.8592C237.358 25.1772 237.188 24.4226 237.202 23.6601C237.183 22.897 237.354 22.1413 237.7 21.4609C238.038 20.8541 238.537 20.351 239.14 20.0055ZM254.226 16.6336H257.597V19.5658H254.226V30.7083H251V19.5658H247.628V16.6336H251V10.7691H254.226V16.6336Z" fill="#281AF0"/>
</g>
<defs>
<clipPath id="clip0_201_47740">
<rect width="256.923" height="40" fill="white" transform="translate(0.687744)"/>
</clipPath>
</defs>
</svg>
