<svg width="163" height="40" viewBox="0 0 163 40" fill="none" xmlns="http://www.w3.org/2000/svg">
<path fill-rule="evenodd" clip-rule="evenodd" d="M4.61475 28L35.2813 0L26.9258 21.6L4.61475 28ZM31.7286 21.7773L11.7729 39.9995L17.1952 25.955L31.7286 21.7773ZM83.5144 7.51016H83.3063C82.7435 7.51016 82.2037 7.73373 81.8058 8.13169C81.4078 8.52965 81.1842 9.0694 81.1842 9.6322C81.1842 10.195 81.4078 10.7347 81.8058 11.1327C82.2037 11.5307 82.7435 11.7542 83.3063 11.7542H83.5144C84.0772 11.7542 84.617 11.5307 85.0149 11.1327C85.4129 10.7347 85.6365 10.195 85.6365 9.6322C85.6365 9.0694 85.4129 8.52965 85.0149 8.13169C84.617 7.73373 84.0772 7.51016 83.5144 7.51016ZM49.6964 7.55059H67.6658V11.3869H54.1474V18.1632H64.8886V21.9996H54.1462V31.5102H49.6964V7.55059ZM72.3617 14.4494H68.278V31.5102H72.4437V24.3273C72.4437 20.1641 74.0368 18.4081 77.6307 18.4081C78.2833 18.4081 78.8968 18.4081 79.4686 18.5306V14.2449C79.0597 14.1641 78.6519 14.1224 78.325 14.1224C76.6095 14.1224 75.3433 14.5314 74.4041 15.3885C73.5054 16.2457 72.8111 17.1836 72.3617 18.2049V14.4494ZM81.347 14.4494H85.4723V31.4698H81.347V14.4494ZM109.648 17.7152H105.972V14.4495H109.646V9.14375H113.813V14.4899H118.346V17.7556H113.813V26.5315C113.813 27.6335 114.303 28.1233 115.405 28.1233H118.346V31.5519H113.976C111.199 31.5519 109.646 29.9601 109.646 27.2246V17.7164L109.648 17.7152ZM125.167 14.4495H121.04V31.4699H125.167V14.4495ZM122.999 7.51016H123.207C123.77 7.51016 124.31 7.73373 124.708 8.13169C125.106 8.52965 125.329 9.0694 125.329 9.6322C125.329 10.195 125.106 10.7347 124.708 11.1327C124.31 11.5307 123.77 11.7542 123.207 11.7542H122.999C122.436 11.7542 121.897 11.5307 121.499 11.1327C121.101 10.7347 120.877 10.195 120.877 9.6322C120.877 9.0694 121.101 8.52965 121.499 8.13169C121.897 7.73373 122.436 7.51016 122.999 7.51016ZM145.016 22.9792C145.016 17.6734 141.422 13.9583 136.438 13.9583C131.415 13.9583 127.861 17.6734 127.861 22.9792C127.861 28.1624 131.496 32 136.438 32C141.34 32 145.016 28.3669 145.016 22.9792ZM132.15 23.0612C132.15 19.3461 133.825 17.3465 136.438 17.3465C138.97 17.3465 140.727 19.3057 140.727 23.0612C140.727 26.7347 139.052 28.6522 136.438 28.6522C133.825 28.6522 132.15 26.7347 132.15 23.0612ZM146.896 14.4494H146.938V31.4685H151.104V23.6734C151.104 21.6322 151.226 19.8775 152.37 18.4902C152.982 17.7555 153.881 17.4285 155.025 17.4285C156.945 17.4285 158.088 18.653 158.088 21.102V31.4685H162.253V20.1628C162.253 16.2041 160.415 13.9179 156.494 13.9179C153.635 13.9179 151.797 15.5918 150.98 17.1432V14.4494H146.938V14.4481H146.896V14.4494ZM89.2708 31.5102H93.4365V26.7347L95.5793 24.4841L100.959 31.5102H106.227L98.4801 21.7094L105.325 14.4506H100.138L93.4365 21.3469V7.55059H89.2708V31.5102Z" fill="#281AF0"/>
</svg>
