<svg width="32" height="32" viewBox="0 0 32 32" fill="none" xmlns="http://www.w3.org/2000/svg">
<path fill-rule="evenodd" clip-rule="evenodd" d="M26.6667 15.9847C26.3653 16.7447 22.6893 18.6953 16 18.6953C9.27468 18.6953 5.59068 16.722 5.33334 16.0287V12.7527C8.18401 14.0473 12.1667 14.6673 16 14.6673C19.8333 14.6673 23.816 14.0473 26.6667 12.7527V15.9847ZM26.6667 23.9553C26.3653 24.7153 22.6893 26.6673 16 26.6673C9.27468 26.6673 5.59068 24.6927 5.33334 24.0007V20.782C8.18401 22.0753 12.1667 22.6953 16 22.6953C19.8333 22.6953 23.816 22.0753 26.6667 20.782V23.9553ZM5.33334 8.04598C5.63468 7.28598 9.31068 5.33398 16 5.33398C22.5587 5.33398 26.224 7.21132 26.648 8.00065C26.224 8.78998 22.5587 10.6673 16 10.6673C9.31068 10.6673 5.63468 8.71532 5.33334 8.06998V8.04598ZM16 1.33398C8.93601 1.33398 1.33334 3.41932 1.33334 8.00065V24.0007C1.33334 28.5807 8.93601 30.6673 16 30.6673C23.064 30.6673 30.6667 28.5807 30.6667 24.0007V8.00065C30.6667 3.41932 23.064 1.33398 16 1.33398Z" fill="#DAD3FF"/>
</svg>
