<svg width="32" height="32" viewBox="0 0 32 32" fill="none" xmlns="http://www.w3.org/2000/svg">
<path fill-rule="evenodd" clip-rule="evenodd" d="M29.7331 13.533L26.4931 16.7743C26.6131 17.3876 26.6664 18.013 26.6664 18.6676C26.6664 21.253 25.7464 23.733 24.0531 25.6543L27.0664 28.281C29.3864 25.6263 30.6664 22.2143 30.6664 18.6676C30.6664 16.8663 30.3331 15.133 29.7331 13.533ZM27.7331 9.88098C26.9331 8.79964 25.9864 7.83964 24.9197 7.04098L17.0264 14.9343L17.0237 14.9356C16.6957 14.8476 16.3557 14.7863 15.9997 14.7863C13.7904 14.7863 11.9997 16.577 11.9997 18.7863C11.9997 20.997 13.7904 22.7863 15.9997 22.7863C18.2091 22.7863 19.9997 20.997 19.9997 18.7863C19.9997 18.4303 19.9384 18.0916 19.8504 17.7623L27.7331 9.88098ZM5.33307 18.6676C5.33307 21.253 6.25307 23.733 7.9464 25.6543L4.93307 28.281C2.61307 25.6263 1.33307 22.2143 1.33307 18.6676C1.33307 10.5863 7.9064 4.00098 15.9997 4.00098C17.8797 4.00098 19.6664 4.34631 21.3064 5.00098L18.1064 8.19964C17.4264 8.06631 16.7197 8.00098 15.9997 8.00098C10.1197 8.00098 5.33307 12.7863 5.33307 18.6676Z" fill="#DAD3FF"/>
</svg>
