<svg width="150" height="40" viewBox="0 0 150 40" fill="none" xmlns="http://www.w3.org/2000/svg">
<path d="M26.2921 0V9.61926L34.6878 4.81614L26.2921 0Z" fill="#281AF0"/>
<path opacity="0.9" d="M34.6879 4.81616V14.4484L43.0966 9.61929L34.6879 4.81616Z" fill="#281AF0"/>
<path opacity="0.8" d="M26.2921 9.61938V19.2517L34.6878 14.4485L26.2921 9.61938Z" fill="#281AF0"/>
<path opacity="0.8" d="M34.6879 14.4485V24.0678L43.0966 19.2516L34.6879 14.4485Z" fill="#281AF0"/>
<path opacity="0.8" d="M26.2921 19.2515V28.8837L34.6878 24.0676L26.2921 19.2515Z" fill="#281AF0"/>
<path d="M34.6879 24.0676V33.6999L43.0966 28.8838L34.6879 24.0676Z" fill="#281AF0"/>
<path opacity="0.4" d="M4.58044 9.30688V18.9261L12.9761 14.11L4.58044 9.30688Z" fill="#281AF0"/>
<path opacity="0.2" d="M15.1759 12.8735V22.5058L23.5586 17.7027L15.1759 12.8735Z" fill="#281AF0"/>
<path opacity="0.3" d="M8.95398 18.9651V28.5974L17.3497 23.7812L8.95398 18.9651Z" fill="#281AF0"/>
<path opacity="0.9" d="M14.4861 26.2285V35.8608L22.8688 31.0447L14.4861 26.2285Z" fill="#281AF0"/>
<path opacity="0.7" d="M26.2271 30.3809V40.0001L34.6097 35.184L26.2271 30.3809Z" fill="#281AF0"/>
<path opacity="0.9" d="M16.5818 8.12231V17.7546L24.9645 12.9515L16.5818 8.12231Z" fill="#281AF0"/>
<path opacity="0.8" d="M26.2921 0V9.61926L17.8964 4.81614L26.2921 0Z" fill="#281AF0"/>
<path opacity="0.6" d="M16.5817 4.08716V13.7194L8.17297 8.89028L16.5817 4.08716Z" fill="#281AF0"/>
<path opacity="0.6" d="M24.9775 8.85132V18.4836L16.5818 13.6675L24.9775 8.85132Z" fill="#281AF0"/>
<path opacity="0.95" d="M15.1369 12.8735V22.5058L6.74121 17.7027L15.1369 12.8735Z" fill="#281AF0"/>
<path opacity="0.6" d="M26.2921 19.2515V28.8837L17.9094 24.0676L26.2921 19.2515Z" fill="#281AF0"/>
<path opacity="0.55" d="M8.95401 21.4905V31.1228L0.545288 26.3066L8.95401 21.4905Z" fill="#281AF0"/>
<path d="M43.0966 9.61938V19.2517L34.6879 14.4485L43.0966 9.61938Z" fill="#281AF0"/>
<path opacity="0.95" d="M34.6878 14.4485V24.0678L26.2921 19.2516L34.6878 14.4485Z" fill="#281AF0"/>
<path opacity="0.9" d="M43.0966 19.2515V28.8837L34.6879 24.0676L43.0966 19.2515Z" fill="#281AF0"/>
<path opacity="0.7" d="M34.6878 24.0676V33.6999L26.2921 28.8838L34.6878 24.0676Z" fill="#281AF0"/>
<path opacity="0.4" d="M24.4307 28.0769V37.7092L16.035 32.9061L24.4307 28.0769Z" fill="#281AF0"/>
<path d="M34.6878 4.81616V14.4484L26.2921 9.61929L34.6878 4.81616Z" fill="#281AF0"/>
<path d="M58.0136 10.6475C58.4041 10.6475 58.5993 10.8427 58.5993 11.2332V28.7666C58.5993 29.1701 58.4041 29.3523 58.0136 29.3523H55.1629C54.7594 29.3523 54.5511 29.1571 54.5511 28.7666V11.2332C54.5511 10.8297 54.7594 10.6475 55.1629 10.6475H58.0136Z" fill="#281AF0"/>
<path d="M75.5339 14.6826C76.7184 14.6826 77.7077 14.7737 78.5147 14.982C79.3217 15.1903 79.9595 15.5027 80.4542 15.9452C80.9488 16.3878 81.2742 16.9475 81.4955 17.6374C81.7168 18.3273 81.8079 19.1473 81.8079 20.1105V23.9504C81.8079 24.9137 81.7038 25.7337 81.4955 26.4236C81.2742 27.1135 80.9358 27.6732 80.4542 28.1157C79.9726 28.5583 79.3217 28.8707 78.5147 29.066C77.7077 29.2612 76.7184 29.3523 75.5339 29.3523H68.0754C66.8779 29.3523 65.8756 29.2612 65.0816 29.066C64.2876 28.8707 63.6367 28.5583 63.1551 28.1157C62.6735 27.6732 62.3351 27.1135 62.1138 26.4236C61.9055 25.7337 61.8014 24.9137 61.8014 23.9504V20.1105C61.8014 19.1473 61.9055 18.3273 62.1138 17.6374C62.3351 16.9475 62.6735 16.3878 63.1551 15.9452C63.6367 15.5027 64.2745 15.1903 65.0816 14.982C65.8886 14.7737 66.8779 14.6826 68.0754 14.6826H75.5339ZM65.5632 23.2866C65.5632 23.8593 65.6022 24.3279 65.6934 24.7054C65.7845 25.0829 65.9407 25.3823 66.1489 25.6035C66.3702 25.8248 66.6696 25.994 67.0341 26.0852C67.3985 26.1763 67.8801 26.2414 68.4268 26.2414H75.1694C75.7552 26.2414 76.2238 26.2023 76.5882 26.0852C76.9527 25.994 77.2521 25.8248 77.4734 25.6035C77.6947 25.3823 77.8509 25.0829 77.929 24.7054C78.0201 24.3409 78.0591 23.8593 78.0591 23.2866V20.7483C78.0591 20.2017 78.0201 19.7331 77.929 19.3686C77.8378 19.0041 77.6816 18.6917 77.4734 18.4574C77.2521 18.2231 76.9527 18.0539 76.5882 17.9758C76.2238 17.8977 75.7422 17.8326 75.1694 17.8326H68.4399C67.8671 17.8326 67.4115 17.8717 67.0471 17.9758C66.6826 18.0669 66.3832 18.2231 66.162 18.4574C65.9407 18.6917 65.7845 18.9911 65.7064 19.3686C65.6153 19.7331 65.5762 20.2017 65.5762 20.7483V23.2866H65.5632Z" fill="#281AF0"/>
<path d="M105.095 10.6475C105.498 10.6475 105.706 10.8427 105.706 11.2332V13.8495C105.706 14.2661 105.498 14.4613 105.095 14.4613H96.8031V28.7535C96.8031 29.1571 96.6078 29.3393 96.2173 29.3393H93.3407C92.9502 29.3393 92.7549 29.144 92.7549 28.7535V14.4613H84.4633C84.0598 14.4613 83.8516 14.2531 83.8516 13.8495V11.2332C83.8516 10.8297 84.0598 10.6475 84.4633 10.6475H105.082H105.095Z" fill="#281AF0"/>
<path d="M120.884 14.6826C121.782 14.6826 122.524 14.7477 123.123 14.9039C123.721 15.0601 124.177 15.3074 124.515 15.6589C124.854 15.9973 125.101 16.4529 125.244 17.0126C125.374 17.5723 125.466 18.2622 125.466 19.0562V21.5944C125.466 22.1672 125.348 22.5577 125.101 22.792C124.854 23.0132 124.476 23.1174 123.969 23.1174H110.627V23.7682C110.627 24.6013 110.835 25.213 111.225 25.5775C111.616 25.942 112.397 26.1372 113.529 26.1372H124.528C124.841 26.1372 124.997 26.3064 124.997 26.6188V28.8707C124.997 29.1831 124.841 29.3523 124.528 29.3523H113.152C111.954 29.3523 110.952 29.2612 110.158 29.066C109.364 28.8707 108.726 28.5583 108.232 28.1157C107.75 27.6732 107.411 27.1135 107.19 26.4236C106.969 25.7337 106.878 24.9137 106.878 23.9504V20.1105C106.878 19.1473 106.982 18.3273 107.19 17.6374C107.411 16.9475 107.75 16.3878 108.232 15.9452C108.713 15.5027 109.351 15.1903 110.158 14.982C110.952 14.7737 111.954 14.6826 113.152 14.6826H120.884ZM110.614 20.7483H121.3C121.6 20.7483 121.743 20.5921 121.743 20.2928V19.1733C121.743 18.6266 121.639 18.2231 121.404 17.9888C121.17 17.7545 120.753 17.6504 120.142 17.6504H113.516C112.384 17.6504 111.603 17.8326 111.212 18.1971C110.822 18.5616 110.614 19.1733 110.614 20.0194V20.7483Z" fill="#281AF0"/>
<path d="M148.895 10.6475C149.143 10.6475 149.273 10.7256 149.299 10.9079C149.325 11.0771 149.273 11.2203 149.156 11.3504L141.059 19.668L149.533 28.6625C149.65 28.7797 149.716 28.9359 149.676 29.1051C149.65 29.2743 149.52 29.3654 149.273 29.3654H145.654C145.433 29.3654 145.277 29.3394 145.147 29.2873C145.03 29.2352 144.899 29.1311 144.808 29.0009L138.287 22.0761L131.74 28.9879C131.622 29.1311 131.492 29.2352 131.388 29.2743C131.284 29.3264 131.102 29.3524 130.867 29.3524H127.444C127.21 29.3524 127.093 29.2743 127.067 29.0921C127.041 28.9228 127.093 28.7797 127.21 28.6495L135.892 19.5118L128.056 11.3374C127.952 11.2203 127.913 11.0641 127.926 10.8949C127.939 10.7256 128.069 10.6345 128.316 10.6345H131.935C132.156 10.6345 132.312 10.6606 132.442 10.7256C132.56 10.7777 132.69 10.8818 132.781 10.999L138.534 17.1949L144.626 10.999C144.73 10.8818 144.847 10.7777 144.964 10.7256C145.082 10.6606 145.251 10.6345 145.472 10.6345H148.895V10.6475Z" fill="#281AF0"/>
</svg>
