<svg width="40" height="40" viewBox="0 0 40 40" fill="none" xmlns="http://www.w3.org/2000/svg">
<path fill-rule="evenodd" clip-rule="evenodd" d="M24 11C23.44 11 23 10.56 23 10C23 9.44 23.44 9 24 9C24.56 9 25 9.44 25 10C25 10.56 24.56 11 24 11ZM24 18C22.8954 18 22 17.1046 22 16C22 14.8954 22.8954 14 24 14C25.1046 14 26 14.8954 26 16C26 17.1046 25.1046 18 24 18ZM24 26C22.8954 26 22 25.1046 22 24C22 22.8954 22.8954 22 24 22C25.1046 22 26 22.8954 26 24C26 25.1046 25.1046 26 24 26ZM16 29C16.56 29 17 29.44 17 30C17 30.56 16.56 31 16 31C15.44 31 15 30.56 15 30C15 29.44 15.44 29 16 29ZM16 18C14.8954 18 14 17.1046 14 16C14 14.8954 14.8954 14 16 14C17.1046 14 18 14.8954 18 16C18 17.1046 17.1046 18 16 18ZM10 23C10.56 23 11 23.44 11 24C11 24.56 10.56 25 10 25C9.44 25 9 24.56 9 24C9 23.44 9.44 23 10 23ZM20 0C31.04 0 40 8.96 40 20C40 31.04 31.04 40 20 40C8.96 40 0 31.04 0 20C0 8.96 8.96 0 20 0ZM20 36C28.84 36 36 28.84 36 20C36 11.16 28.84 4 20 4C11.16 4 4 11.16 4 20C4 28.84 11.16 36 20 36ZM10 15C10.56 15 11 15.44 11 16C11 16.56 10.56 17 10 17C9.44 17 9 16.56 9 16C9 15.44 9.44 15 10 15ZM16 26C14.8954 26 14 25.1046 14 24C14 22.8954 14.8954 22 16 22C17.1046 22 18 22.8954 18 24C18 25.1046 17.1046 26 16 26ZM16 11C15.44 11 15 10.56 15 10C15 9.44 15.44 9 16 9C16.56 9 17 9.44 17 10C17 10.56 16.56 11 16 11ZM24 29C24.56 29 25 29.44 25 30C25 30.56 24.56 31 24 31C23.44 31 23 30.56 23 30C23 29.44 23.44 29 24 29ZM30 15C30.56 15 31 15.44 31 16C31 16.56 30.56 17 30 17C29.44 17 29 16.56 29 16C29 15.44 29.44 15 30 15ZM30 23C30.56 23 31 23.44 31 24C31 24.56 30.56 25 30 25C29.44 25 29 24.56 29 24C29 23.44 29.44 23 30 23Z" fill="#0057FF"/>
</svg>
