<svg width="40" height="40" viewBox="0 0 40 40" fill="none" xmlns="http://www.w3.org/2000/svg">
<path d="M0 6C0 2.68629 2.68629 0 6 0H34C37.3137 0 40 2.68629 40 6V34C40 37.3137 37.3137 40 34 40H6C2.68629 40 0 37.3137 0 34V6Z" fill="#0057FF"/>
<g opacity="0.5">
<path fill-rule="evenodd" clip-rule="evenodd" d="M29.75 10.25H10.25V30.5H29.75V10.25ZM13.25 28.1212L21.3714 19.9998L13.25 11.8785V16.1212L17.1287 19.9998L13.25 23.8785V28.1212ZM19.2576 24.4812L26.7576 24.5188L26.7425 27.5187L19.2425 27.4812L19.2576 24.4812Z" fill="white"/>
</g>
</svg>
