<svg width="24" height="24" viewBox="0 0 24 24" fill="none" xmlns="http://www.w3.org/2000/svg">
<path fill-rule="evenodd" clip-rule="evenodd" d="M4.59259 7.18518C6.02444 7.18518 7.18518 6.02444 7.18518 4.59259C7.18518 3.16074 6.02444 2 4.59259 2C3.16074 2 2 3.16074 2 4.59259C2 6.02444 3.16074 7.18518 4.59259 7.18518ZM7.18518 12C7.18518 13.4319 6.02444 14.5926 4.59259 14.5926C3.16074 14.5926 2 13.4319 2 12C2 10.5681 3.16074 9.40741 4.59259 9.40741C6.02444 9.40741 7.18518 10.5681 7.18518 12ZM4.59259 22C6.02444 22 7.18518 20.8393 7.18518 19.4074C7.18518 17.9756 6.02444 16.8148 4.59259 16.8148C3.16074 16.8148 2 17.9756 2 19.4074C2 20.8393 3.16074 22 4.59259 22ZM14.5926 19.4074C14.5926 20.8393 13.4319 22 12 22C10.5681 22 9.40741 20.8393 9.40741 19.4074C9.40741 17.9756 10.5681 16.8148 12 16.8148C13.4319 16.8148 14.5926 17.9756 14.5926 19.4074ZM14.5926 12C14.5926 13.4319 13.4319 14.5926 12 14.5926C10.5681 14.5926 9.40741 13.4319 9.40741 12C9.40741 10.5681 10.5681 9.40741 12 9.40741C13.4319 9.40741 14.5926 10.5681 14.5926 12ZM14.5926 4.59259C14.5926 6.02444 13.4319 7.18518 12 7.18518C10.5681 7.18518 9.40741 6.02444 9.40741 4.59259C9.40741 3.16074 10.5681 2 12 2C13.4319 2 14.5926 3.16074 14.5926 4.59259ZM22 19.4074C22 20.8393 20.8393 22 19.4074 22C17.9756 22 16.8148 20.8393 16.8148 19.4074C16.8148 17.9756 17.9756 16.8148 19.4074 16.8148C20.8393 16.8148 22 17.9756 22 19.4074ZM22 12C22 13.4319 20.8393 14.5926 19.4074 14.5926C17.9756 14.5926 16.8148 13.4319 16.8148 12C16.8148 10.5681 17.9756 9.40741 19.4074 9.40741C20.8393 9.40741 22 10.5681 22 12ZM22 4.59259C22 6.02444 20.8393 7.18518 19.4074 7.18518C17.9756 7.18518 16.8148 6.02444 16.8148 4.59259C16.8148 3.16074 17.9756 2 19.4074 2C20.8393 2 22 3.16074 22 4.59259Z" fill="white"/>
</svg>
