<svg width="24" height="24" viewBox="0 0 24 24" fill="none" xmlns="http://www.w3.org/2000/svg">
<path d="M4.875 6.75C6.32475 6.75 7.5 5.57475 7.5 4.125C7.5 2.67525 6.32475 1.5 4.875 1.5C3.42525 1.5 2.25 2.67525 2.25 4.125C2.25 5.57475 3.42525 6.75 4.875 6.75Z" fill="white"/>
<path d="M7.5 11.625C7.5 13.0747 6.32475 14.25 4.875 14.25C3.42525 14.25 2.25 13.0747 2.25 11.625C2.25 10.1753 3.42525 9 4.875 9C6.32475 9 7.5 10.1753 7.5 11.625Z" fill="white"/>
<path d="M7.5 19.125C7.5 20.5747 6.32475 21.75 4.875 21.75C3.42525 21.75 2.25 20.5747 2.25 19.125C2.25 17.6753 3.42525 16.5 4.875 16.5C6.32475 16.5 7.5 17.6753 7.5 19.125Z" fill="white"/>
<path d="M15 19.125C15 20.5747 13.8247 21.75 12.375 21.75C10.9253 21.75 9.75 20.5747 9.75 19.125C9.75 17.6753 10.9253 16.5 12.375 16.5C13.8247 16.5 15 17.6753 15 19.125Z" fill="white"/>
<path d="M12.375 14.25C13.8247 14.25 15 13.0747 15 11.625C15 10.1753 13.8247 9 12.375 9C10.9253 9 9.75 10.1753 9.75 11.625C9.75 13.0747 10.9253 14.25 12.375 14.25Z" fill="white"/>
<path d="M15 4.125C15 5.57475 13.8247 6.75 12.375 6.75C10.9253 6.75 9.75 5.57475 9.75 4.125C9.75 2.67525 10.9253 1.5 12.375 1.5C13.8247 1.5 15 2.67525 15 4.125Z" fill="white"/>
<path d="M19.875 21.75C21.3247 21.75 22.5 20.5747 22.5 19.125C22.5 17.6753 21.3247 16.5 19.875 16.5C18.4253 16.5 17.25 17.6753 17.25 19.125C17.25 20.5747 18.4253 21.75 19.875 21.75Z" fill="white"/>
<path d="M22.5 11.625C22.5 13.0747 21.3247 14.25 19.875 14.25C18.4253 14.25 17.25 13.0747 17.25 11.625C17.25 10.1753 18.4253 9 19.875 9C21.3247 9 22.5 10.1753 22.5 11.625Z" fill="white"/>
<path d="M19.875 6.75C21.3247 6.75 22.5 5.57475 22.5 4.125C22.5 2.67525 21.3247 1.5 19.875 1.5C18.4253 1.5 17.25 2.67525 17.25 4.125C17.25 5.57475 18.4253 6.75 19.875 6.75Z" fill="white"/>
</svg>
