<svg width="40" height="40" viewBox="0 0 40 40" fill="none" xmlns="http://www.w3.org/2000/svg">
<path d="M0 6C0 2.68629 2.68629 0 6 0H34C37.3137 0 40 2.68629 40 6V34C40 37.3137 37.3137 40 34 40H6C2.68629 40 0 37.3137 0 34V6Z" fill="#0057FF"/>
<g opacity="0.5">
<path d="M12.875 14.75C14.3247 14.75 15.5 13.5747 15.5 12.125C15.5 10.6753 14.3247 9.5 12.875 9.5C11.4253 9.5 10.25 10.6753 10.25 12.125C10.25 13.5747 11.4253 14.75 12.875 14.75Z" fill="white"/>
<path d="M15.5 19.625C15.5 21.0747 14.3247 22.25 12.875 22.25C11.4253 22.25 10.25 21.0747 10.25 19.625C10.25 18.1753 11.4253 17 12.875 17C14.3247 17 15.5 18.1753 15.5 19.625Z" fill="white"/>
<path d="M15.5 27.125C15.5 28.5747 14.3247 29.75 12.875 29.75C11.4253 29.75 10.25 28.5747 10.25 27.125C10.25 25.6753 11.4253 24.5 12.875 24.5C14.3247 24.5 15.5 25.6753 15.5 27.125Z" fill="white"/>
<path d="M23 27.125C23 28.5747 21.8247 29.75 20.375 29.75C18.9253 29.75 17.75 28.5747 17.75 27.125C17.75 25.6753 18.9253 24.5 20.375 24.5C21.8247 24.5 23 25.6753 23 27.125Z" fill="white"/>
<path d="M20.375 22.25C21.8247 22.25 23 21.0747 23 19.625C23 18.1753 21.8247 17 20.375 17C18.9253 17 17.75 18.1753 17.75 19.625C17.75 21.0747 18.9253 22.25 20.375 22.25Z" fill="white"/>
<path d="M23 12.125C23 13.5747 21.8247 14.75 20.375 14.75C18.9253 14.75 17.75 13.5747 17.75 12.125C17.75 10.6753 18.9253 9.5 20.375 9.5C21.8247 9.5 23 10.6753 23 12.125Z" fill="white"/>
<path d="M27.875 29.75C29.3247 29.75 30.5 28.5747 30.5 27.125C30.5 25.6753 29.3247 24.5 27.875 24.5C26.4253 24.5 25.25 25.6753 25.25 27.125C25.25 28.5747 26.4253 29.75 27.875 29.75Z" fill="white"/>
<path d="M30.5 19.625C30.5 21.0747 29.3247 22.25 27.875 22.25C26.4253 22.25 25.25 21.0747 25.25 19.625C25.25 18.1753 26.4253 17 27.875 17C29.3247 17 30.5 18.1753 30.5 19.625Z" fill="white"/>
<path d="M27.875 14.75C29.3247 14.75 30.5 13.5747 30.5 12.125C30.5 10.6753 29.3247 9.5 27.875 9.5C26.4253 9.5 25.25 10.6753 25.25 12.125C25.25 13.5747 26.4253 14.75 27.875 14.75Z" fill="white"/>
</g>
</svg>
