<svg width="196" height="32" viewBox="0 0 196 32" fill="none" xmlns="http://www.w3.org/2000/svg">
<path fill-rule="evenodd" clip-rule="evenodd" d="M14.0032 16L14.0032 8.99999L7.00164 8.99999L7.0016 8.99999L2.91893e-06 8.99999L3.22491e-06 16L2.57722e-06 23L2.8832e-06 30L7.0016 30L7.00164 30L14.0032 30L14.0032 23L7.00164 23L7.00164 16L14.0032 16Z" fill="#0057FF"/>
<path fill-rule="evenodd" clip-rule="evenodd" d="M20.9984 23L20.9984 16L28 16L28 23L20.9984 23ZM20.9984 8.99999L20.9984 1.99999L28 1.99999L28 8.99999L28 16L20.9984 16L20.9984 8.99999ZM13.9967 8.99999L13.9967 1.99999L20.9983 1.99999L20.9983 8.99999L13.9967 8.99999ZM13.9967 16L13.9967 23L20.9983 23L20.9983 16L13.9967 16Z" fill="#80ABFF"/>
<path d="M124.911 4.63989C126.361 4.63989 127.588 4.90656 128.591 5.43989C129.615 5.97323 130.393 6.6879 130.927 7.5839C131.46 8.47989 131.727 9.47189 131.727 10.5599C131.727 11.9466 131.279 13.1199 130.383 14.0799C130.024 14.4639 129.598 14.8001 129.103 15.0885L128.983 15.1539L129.063 15.1919C129.794 15.5599 130.415 16.0212 130.927 16.5759C131.972 17.6852 132.495 19.0506 132.495 20.6719C132.495 21.9092 132.185 23.0292 131.567 24.0319C130.969 25.0132 130.095 25.7919 128.943 26.3679C127.812 26.9439 126.447 27.2319 124.847 27.2319H115.215V4.63989H124.911ZM124.367 17.3759H120.174V23.3279H124.367C125.348 23.3279 126.116 23.0399 126.671 22.4639C127.225 21.8879 127.503 21.1839 127.503 20.3519C127.503 19.7759 127.375 19.2639 127.119 18.8159C126.863 18.3679 126.5 18.0159 126.031 17.7599C125.583 17.5039 125.028 17.3759 124.367 17.3759ZM123.951 8.54389H120.174V13.5679H123.951C124.783 13.5679 125.455 13.3652 125.967 12.9599C126.479 12.5332 126.735 11.8932 126.735 11.0399C126.735 10.2079 126.479 9.58923 125.967 9.1839C125.455 8.75723 124.783 8.54389 123.951 8.54389Z" fill="white"/>
<path d="M134.267 27.232V4H139.163V27.232H134.267Z" fill="white"/>
<path d="M149.457 11.3281C151.078 11.3281 152.529 11.6801 153.809 12.3841C155.089 13.0881 156.102 14.0588 156.849 15.2961C157.596 16.5121 157.969 17.8881 157.969 19.4241C157.969 20.9601 157.596 22.3468 156.849 23.5841C156.102 24.8214 155.089 25.8028 153.809 26.5281C152.529 27.2321 151.078 27.5841 149.457 27.5841C147.857 27.5841 146.406 27.2321 145.105 26.5281C143.825 25.8028 142.812 24.8214 142.065 23.5841C141.318 22.3468 140.945 20.9601 140.945 19.4241C140.945 17.8881 141.318 16.5121 142.065 15.2961C142.812 14.0801 143.825 13.1201 145.105 12.4161C146.385 11.6908 147.836 11.3281 149.457 11.3281ZM149.457 15.7761C148.774 15.7761 148.166 15.9361 147.633 16.2561C147.1 16.5548 146.684 16.9814 146.385 17.5361C146.086 18.0908 145.937 18.7308 145.937 19.4561C145.937 20.1601 146.086 20.8001 146.385 21.3761C146.684 21.9308 147.1 22.3681 147.633 22.6881C148.166 22.9868 148.774 23.1361 149.457 23.1361C150.161 23.1361 150.78 22.9868 151.313 22.6881C151.846 22.3681 152.252 21.9308 152.529 21.3761C152.828 20.8001 152.977 20.1494 152.977 19.4241C152.977 18.6988 152.828 18.0694 152.529 17.5361C152.23 16.9814 151.814 16.5548 151.281 16.2561C150.769 15.9361 150.161 15.7761 149.457 15.7761Z" fill="white"/>
<path d="M167.926 27.5841C166.326 27.5841 164.876 27.2321 163.574 26.5281C162.273 25.8241 161.249 24.8534 160.502 23.6161C159.756 22.3788 159.382 20.9921 159.382 19.4561C159.382 17.8988 159.756 16.5121 160.502 15.2961C161.27 14.0588 162.305 13.0881 163.606 12.3841C164.908 11.6801 166.369 11.3281 167.99 11.3281C169.206 11.3281 170.316 11.5415 171.318 11.9681C172.342 12.3735 173.249 12.9921 174.038 13.8241L170.902 16.9601C170.54 16.5548 170.113 16.2561 169.622 16.0641C169.153 15.8721 168.609 15.7761 167.99 15.7761C167.286 15.7761 166.657 15.9361 166.102 16.2561C165.569 16.5548 165.142 16.9814 164.822 17.5361C164.524 18.0694 164.374 18.6988 164.374 19.4241C164.374 20.1494 164.524 20.7894 164.822 21.3441C165.142 21.8988 165.58 22.3361 166.134 22.6561C166.689 22.9761 167.308 23.1361 167.99 23.1361C168.63 23.1361 169.196 23.0294 169.686 22.8161C170.198 22.5814 170.636 22.2614 170.998 21.8561L174.102 24.9921C173.292 25.8454 172.374 26.4961 171.35 26.9441C170.326 27.3708 169.185 27.5841 167.926 27.5841Z" fill="white"/>
<path d="M180.881 4V19.16L186.285 11.68H191.757L186.069 19.011L192.077 27.232H186.317L180.881 19.174V27.232H175.985V4H180.881Z" fill="white"/>
<path d="M53.44 4.64014V8.12814L42.633 22.9111L53.44 22.9121V27.2321H36V23.7121L46.753 8.96014H36V4.64014H53.44Z" fill="#0057FF"/>
<path d="M63.198 27.5841C61.5127 27.5841 60.0087 27.2428 58.686 26.5601C57.3847 25.8561 56.3607 24.8855 55.614 23.6481C54.8674 22.4108 54.494 21.0135 54.494 19.4561C54.494 17.8988 54.8567 16.5121 55.582 15.2961C56.3287 14.0588 57.3314 13.0881 58.59 12.3841C59.8487 11.6801 61.2674 11.3281 62.846 11.3281C64.382 11.3281 65.7367 11.6588 66.91 12.3201C68.0834 12.9815 69.0007 13.8988 69.662 15.0721C70.3447 16.2455 70.686 17.5895 70.686 19.1041C70.686 19.3815 70.6647 19.6801 70.622 20.0001C70.6007 20.2988 70.5474 20.6508 70.462 21.0561L57.054 21.0881V17.7281L68.382 17.6961L66.27 19.1041C66.2487 18.2081 66.11 17.4721 65.854 16.8961C65.598 16.2988 65.214 15.8508 64.702 15.5521C64.2114 15.2321 63.6034 15.0721 62.878 15.0721C62.11 15.0721 61.438 15.2535 60.862 15.6161C60.3074 15.9575 59.87 16.4481 59.55 17.0881C59.2514 17.7281 59.102 18.5068 59.102 19.4241C59.102 20.3415 59.262 21.1308 59.582 21.7921C59.9234 22.4321 60.3927 22.9335 60.99 23.2961C61.6087 23.6375 62.334 23.8081 63.166 23.8081C63.934 23.8081 64.6274 23.6801 65.246 23.4241C65.8647 23.1468 66.4087 22.7415 66.878 22.2081L69.566 24.8961C68.798 25.7921 67.87 26.4641 66.782 26.9121C65.694 27.3601 64.4994 27.5841 63.198 27.5841Z" fill="#0057FF"/>
<path d="M63.198 27.5841C61.5127 27.5841 60.0087 27.2428 58.686 26.5601C57.3847 25.8561 56.3607 24.8855 55.614 23.6481C54.8674 22.4108 54.494 21.0135 54.494 19.4561C54.494 17.8988 54.8567 16.5121 55.582 15.2961C56.3287 14.0588 57.3314 13.0881 58.59 12.3841C59.8487 11.6801 61.2674 11.3281 62.846 11.3281C64.382 11.3281 65.7367 11.6588 66.91 12.3201C68.0834 12.9815 69.0007 13.8988 69.662 15.0721C70.3447 16.2455 70.686 17.5895 70.686 19.1041C70.686 19.3815 70.6647 19.6801 70.622 20.0001C70.6007 20.2988 70.5474 20.6508 70.462 21.0561L57.054 21.0881V17.7281L68.382 17.6961L66.27 19.1041C66.2487 18.2081 66.11 17.4721 65.854 16.8961C65.598 16.2988 65.214 15.8508 64.702 15.5521C64.2114 15.2321 63.6034 15.0721 62.878 15.0721C62.11 15.0721 61.438 15.2535 60.862 15.6161C60.3074 15.9575 59.87 16.4481 59.55 17.0881C59.2514 17.7281 59.102 18.5068 59.102 19.4241C59.102 20.3415 59.262 21.1308 59.582 21.7921C59.9234 22.4321 60.3927 22.9335 60.99 23.2961C61.6087 23.6375 62.334 23.8081 63.166 23.8081C63.934 23.8081 64.6274 23.6801 65.246 23.4241C65.8647 23.1468 66.4087 22.7415 66.878 22.2081L69.566 24.8961C68.798 25.7921 67.87 26.4641 66.782 26.9121C65.694 27.3601 64.4994 27.5841 63.198 27.5841Z" fill="#0057FF"/>
<path d="M86.8438 11.68L86.8448 5.24805H91.7408L91.7398 11.68H95.2608V15.84L91.7398 15.839L91.7408 27.232H86.8448L86.8438 15.839H79.8084L79.8094 27.232H74.9134L74.9124 15.839L71.3934 15.84V11.68H74.9124L74.9134 5.24805H79.8094L79.8084 11.68H86.8438Z" fill="#0057FF"/>
<path d="M103.601 11.3601C104.646 11.3601 105.585 11.5628 106.417 11.9681C106.977 12.234 107.468 12.5688 107.89 12.9724L107.889 11.6801H112.689V27.2321H107.889L107.89 25.9707C107.481 26.3576 107.001 26.6821 106.449 26.9441C105.596 27.3495 104.646 27.5521 103.601 27.5521C102.172 27.5521 100.892 27.2001 99.7608 26.4961C98.6515 25.7921 97.7661 24.8321 97.1048 23.6161C96.4648 22.4001 96.1448 21.0135 96.1448 19.4561C96.1448 17.8988 96.4648 16.5121 97.1048 15.2961C97.7661 14.0801 98.6515 13.1201 99.7608 12.4161C100.892 11.7121 102.172 11.3601 103.601 11.3601ZM104.625 15.7761C103.942 15.7761 103.334 15.9361 102.801 16.2561C102.289 16.5548 101.873 16.9815 101.553 17.5361C101.254 18.0908 101.105 18.7308 101.105 19.4561C101.105 20.1601 101.254 20.7895 101.553 21.3441C101.852 21.8988 102.268 22.3361 102.801 22.6561C103.334 22.9761 103.932 23.1361 104.593 23.1361C105.638 23.1361 106.481 22.7948 107.121 22.1121C107.761 21.4081 108.081 20.5228 108.081 19.4561C108.081 18.7308 107.932 18.0908 107.633 17.5361C107.356 16.9815 106.95 16.5548 106.417 16.2561C105.905 15.9361 105.308 15.7761 104.625 15.7761Z" fill="#0057FF"/>
</svg>
