<svg width="40" height="40" viewBox="0 0 50 50" fill="none"  xmlns="http://www.w3.org/2000/svg">
  <path fill-rule="evenodd" clip-rule="evenodd" d="M5 0H45C47.7614 0 50 2.23858 50 5V45C50 47.7614 47.7614 50 45 50H5C2.23858 50 0 47.7614 0 45V5C0 2.23858 2.23858 0 5 0Z" fill="#ffffff" />
      <path d="M27.3062 25.2229C27.3062 30.8687 22.7604 35.4455 17.1533 35.4455C11.5461 35.4455 7 30.8677 7 25.2229C7 19.5782 11.5457 15 17.1533 15C22.7608 15 27.3062 19.5771 27.3062 25.2229ZM38.4442 25.2229C38.4442 30.5372 36.1714 34.847 33.3676 34.847C30.5639 34.847 28.291 30.5372 28.291 25.2229C28.291 19.9086 30.5635 15.5988 33.3673 15.5988C36.171 15.5988 38.4439 19.9073 38.4439 25.2229H38.4442ZM43 25.2229C43 29.9832 42.2008 33.8446 41.2145 33.8446C40.2283 33.8446 39.4294 29.9843 39.4294 25.2229C39.4294 20.4616 40.2287 16.6013 41.2145 16.6013C42.2004 16.6013 43 20.4612 43 25.2229" fill="#0057ff" />
</svg>