<svg width="40" height="40" viewBox="0 0 40 40" fill="none" xmlns="http://www.w3.org/2000/svg">
<path d="M31.9023 20.7694C31.5702 19.7514 30.4613 19.2102 29.4381 19.5424L27.006 20.3515L25.3828 15.5293L27.8149 14.7202C28.8381 14.388 29.3738 13.2843 29.047 12.2609C28.7149 11.2428 27.606 10.7017 26.5828 11.0339L24.1507 11.8429L23.3096 9.32468C22.9775 8.30665 21.8686 7.76549 20.8454 8.09769C19.8222 8.42989 19.2865 9.53364 19.6132 10.557L20.4543 13.0753L15.4508 14.747L14.6098 12.2287C14.2776 11.2107 13.1687 10.6695 12.1455 11.0017C11.1223 11.3339 10.5866 12.4377 10.9134 13.4611L11.7544 15.9793L9.3277 16.783C8.3045 17.1152 7.7688 18.219 8.09558 19.2424C8.36343 20.0193 9.11878 20.5283 9.89555 20.5605C10.2598 20.614 10.5384 20.4747 12.9866 19.6603L14.6098 24.4825L12.1777 25.2916C11.1598 25.6238 10.6188 26.7329 10.9455 27.7509C11.2134 28.5278 11.9687 29.0368 12.7455 29.069C13.1098 29.1226 13.3883 28.9833 15.8365 28.1688L16.6776 30.6871C16.9936 31.5926 18.0008 32.2409 19.1418 31.9141C20.165 31.5819 20.7007 30.4782 20.3739 29.4548L19.5329 26.9365L24.5471 25.2594L25.3882 27.7777C25.7042 28.6832 26.7113 29.3315 27.8524 29.0047C28.8756 28.6725 29.4113 27.5687 29.0845 26.5454L28.2435 24.0271L30.6756 23.218C31.6934 22.8965 32.2345 21.7874 31.9023 20.7694V20.7694ZM18.2901 23.2984L16.6669 18.4655L21.6757 16.7884L23.2989 21.6213L18.2901 23.2984V23.2984Z" fill="#0057FF"/>
</svg>
