<svg width="40" height="40" viewBox="0 0 40 40" fill="none" xmlns="http://www.w3.org/2000/svg">
<path d="M29.7379 10.7829C27.9125 9.94805 25.974 9.3396 23.9506 9C23.6958 9.43865 23.4128 10.0329 23.2147 10.4999C21.0626 10.1886 18.9259 10.1886 16.8034 10.4999C16.6053 10.0329 16.3081 9.43865 16.0676 9C14.03 9.3396 12.0915 9.94805 10.2789 10.7829C6.61405 16.1881 5.62355 21.4661 6.1188 26.6732C8.55258 28.4419 10.9015 29.5174 13.2093 30.2249C13.7753 29.4608 14.2847 28.6401 14.7234 27.777C13.8885 27.4656 13.0962 27.0836 12.3321 26.6308C12.5302 26.4893 12.7283 26.3337 12.9122 26.178C17.5251 28.2864 22.5214 28.2864 27.0777 26.178C27.2758 26.3337 27.4597 26.4893 27.6578 26.6308C26.8937 27.0836 26.1014 27.4656 25.2665 27.777C25.7051 28.6401 26.2146 29.4608 26.7805 30.2249C29.087 29.5174 31.45 28.4419 33.8711 26.6732C34.4794 20.6454 32.9074 15.41 29.7379 10.7829ZM15.3601 23.4612C13.9734 23.4612 12.8414 22.2019 12.8414 20.6596C12.8414 19.1172 13.9451 17.8578 15.3601 17.8578C16.761 17.8578 17.9071 19.1172 17.8788 20.6596C17.8788 22.2019 16.761 23.4612 15.3601 23.4612ZM24.6581 23.4612C23.2713 23.4612 22.1379 22.2019 22.1379 20.6596C22.1379 19.1172 23.243 17.8578 24.6581 17.8578C26.0589 17.8578 27.205 19.1172 27.1767 20.6596C27.1767 22.2019 26.0731 23.4612 24.6581 23.4612Z" fill="#0057FF"/>
</svg>
