<svg width="40" height="40" viewBox="0 0 40 40" fill="none" xmlns="http://www.w3.org/2000/svg">
<path fill-rule="evenodd" clip-rule="evenodd" d="M11.6508 14.2952C10.1851 14.2952 9 13.1081 9 11.6468C9 10.1856 10.1867 9 11.6508 9C13.1118 9 14.3 10.1872 14.3 11.6468C14.3 13.1081 13.1118 14.2952 11.6508 14.2952ZM13.9702 30.9999H9.42381V16.3846H13.9702V30.9999ZM26.4566 31H31V22.984C31 19.0484 30.1492 16.0213 25.5458 16.0213C23.3342 16.0213 21.8517 17.233 21.2444 18.3817H21.1828V16.3846H16.8213V31H21.3646V23.7693C21.3646 21.8631 21.7284 20.0169 24.094 20.0169C26.4258 20.0169 26.4566 22.1972 26.4566 23.8925V31Z" fill="#0057FF"/>
</svg>
