<svg width="40" height="40" viewBox="0 0 40 40" fill="none" xmlns="http://www.w3.org/2000/svg">
<path fill-rule="evenodd" clip-rule="evenodd" d="M32.4545 12.3674C31.5177 12.7697 30.5113 13.0404 29.4549 13.1625C30.5338 12.5377 31.361 11.5486 31.7507 10.3692C30.7423 10.9475 29.6243 11.3678 28.4339 11.595C27.4813 10.6134 26.1244 10 24.6227 10C21.7386 10 19.4008 12.2613 19.4008 15.049C19.4008 15.4446 19.4478 15.8308 19.5359 16.1991C15.196 15.9889 11.3486 13.9784 8.77196 10.9229C8.32359 11.6688 8.06611 12.5359 8.06611 13.4625C8.06611 15.2137 8.98734 16.7594 10.3883 17.6643C9.53263 17.6378 8.72693 17.4107 8.02304 17.033C8.02304 17.0548 8.02304 17.0746 8.02304 17.0964C8.02304 19.5433 9.82241 21.5841 12.2121 22.047C11.7745 22.1624 11.3124 22.224 10.8357 22.224C10.4999 22.224 10.1719 22.1918 9.85374 22.134C10.5185 24.1398 12.4471 25.6004 14.732 25.6411C12.9454 26.9956 10.6937 27.803 8.24625 27.803C7.82528 27.803 7.40922 27.7794 7 27.732C9.31138 29.1642 12.0555 30 15.0051 30C24.6109 30 29.8622 22.3063 29.8622 15.634C29.8622 15.4153 29.8573 15.1976 29.8475 14.9808C30.8686 14.2681 31.7546 13.3792 32.4545 12.3674Z" fill="#0057FF"/>
</svg>
